<?xml version="1.0" encoding="UTF-8"?>
<svg xmlns="http://www.w3.org/2000/svg" id="Layer_1" data-name="Layer 1" viewBox="0 0 1240 40">
  <defs>
    <style>
      .cls-1 {
        fill: #f9a51a;
        stroke-width: 0px;
      }
    </style>
  </defs>
  <path class="cls-1" d="m599.18,17.03h0v-.02c0-1.44.55-2.79,1.58-3.79,1.63-1.6,4.25-1.57,5.84.05.6.61.93,1.42.92,2.28,0,.86-.35,1.66-.96,2.26-.47.46-1.08.71-1.74.71h-.02c-.66,0-1.28-.27-1.75-.74-.73-.75-.72-1.95.02-2.68.56-.55,1.46-.54,2.01.02.97.9-.09,2.55-.09,2.55.27-.07.52-.22.72-.41.77-.76.78-2,.02-2.77-.9-.92-2.38-.93-3.3-.03-1.1,1.08-1.12,2.86-.04,3.97.05.05.1.1.16.14,0,0,0,0,0,0,.65,3.91,3.89,6.41,5.47,7.63.31.24.57.44.68.56l.3.31.3-.31c.11-.12.38-.32.68-.56,1.59-1.23,4.87-3.75,5.48-7.71.02-.02.04-.04.07-.06,1.08-1.1,1.07-2.88-.04-3.97-.92-.9-2.4-.89-3.3.03-.76.77-.75,2.01.03,2.77.2.2.45.34.72.41,0,0-1.06-1.64-.09-2.55.55-.56,1.45-.57,2.01-.02.75.73.76,1.93.02,2.68-.46.47-1.09.74-1.75.74h-.02c-.65,0-1.27-.25-1.74-.71-.61-.6-.95-1.41-.96-2.26,0-.86.32-1.67.92-2.28,1.6-1.63,4.22-1.65,5.84-.05,1.03,1.01,1.59,2.35,1.58,3.79h0s0,.02,0,.02c.15,4.09-2.76,6.94-5.57,9.69-1.57,1.54-3.19,3.12-4.23,4.9-1.04-1.78-2.66-3.37-4.23-4.9-2.81-2.75-5.72-5.6-5.57-9.69m-.91-.02c-.16,4.49,2.89,7.48,5.84,10.37,1.36,1.34,2.67,2.62,3.63,4,.83,1.19,1.24,3.14,1.24,3.14,0,0,.41-1.95,1.24-3.14.96-1.38,2.26-2.66,3.63-4,2.95-2.89,6-5.88,5.84-10.37,0-1.68-.65-3.26-1.85-4.44-.98-.96-2.26-1.44-3.53-1.44s-2.61.5-3.6,1.51c-.77.79-1.19,1.83-1.18,2.93s.45,2.13,1.23,2.91c.65.64,1.5.97,2.41.97.43,0,.85-.09,1.24-.25-.87,3.13-3.58,5.22-4.96,6.28-.16.13-.31.24-.43.34-.12-.1-.27-.21-.43-.34-1.37-1.06-4.07-3.14-4.95-6.25,0,0,0,0,0,0,.37.14.76.21,1.16.22.91,0,1.76-.34,2.41-.97.79-.77,1.22-1.8,1.24-2.91,0-1.1-.41-2.14-1.18-2.93-.99-1-2.29-1.51-3.6-1.51s-2.55.48-3.53,1.44c-1.2,1.18-1.86,2.76-1.85,4.44m-1.07,14.33c-.58,1.05-.97,1.74-.97,2.9,0,.93.76,1.69,1.69,1.69s1.69-.76,1.69-1.69c0-1.16-.39-1.85-.97-2.9-.22-.4-.47-.84-.72-1.36-.25.52-.49.96-.72,1.36m-20.15-14.31h0v-.02c0-1.44.55-2.79,1.58-3.79,1.62-1.6,4.25-1.57,5.84.05.6.61.93,1.42.92,2.28,0,.86-.35,1.66-.96,2.26-.47.46-1.08.71-1.74.71h-.02c-.66,0-1.28-.27-1.75-.74-.73-.75-.72-1.95.02-2.68.56-.55,1.46-.54,2.01.02.97.9-.09,2.55-.09,2.55.27-.07.52-.22.72-.41.77-.76.78-2,.02-2.77-.9-.92-2.38-.93-3.3-.03-1.1,1.08-1.12,2.86-.04,3.97.05.05.1.1.16.14,0,0,0,0,0,0,.65,3.91,3.89,6.41,5.47,7.63.31.24.57.44.68.56l.3.31.3-.31c.11-.12.38-.32.68-.56,1.59-1.23,4.87-3.75,5.48-7.71,0,0,0,0,0,0,.02-.02.05-.04.07-.06,1.08-1.1,1.07-2.88-.04-3.97-.92-.9-2.4-.89-3.3.03-.76.77-.75,2.01.03,2.77.2.2.45.34.72.41,0,0-1.06-1.64-.09-2.55.55-.56,1.45-.57,2.01-.02.74.73.76,1.93.02,2.68-.46.47-1.08.74-1.75.74h-.02c-.65,0-1.27-.25-1.74-.71-.61-.6-.95-1.41-.96-2.26,0-.86.32-1.67.92-2.28,1.6-1.63,4.22-1.65,5.84-.05,1.03,1.01,1.59,2.35,1.58,3.79h0s0,.02,0,.02c.15,4.09-2.76,6.94-5.57,9.69-1.57,1.54-3.19,3.12-4.23,4.9-1.04-1.78-2.66-3.37-4.23-4.9-2.81-2.75-5.72-5.6-5.57-9.69m-.91-.02c-.16,4.49,2.89,7.48,5.84,10.37,1.36,1.34,2.67,2.62,3.63,4,.83,1.19,1.24,3.14,1.24,3.14,0,0,.41-1.95,1.24-3.14.96-1.38,2.26-2.66,3.63-4,2.95-2.89,6-5.88,5.84-10.37,0-1.68-.65-3.26-1.85-4.44-.98-.96-2.26-1.44-3.53-1.44s-2.61.5-3.6,1.51c-.77.79-1.19,1.83-1.18,2.93,0,1.1.45,2.13,1.23,2.91.65.64,1.5.97,2.41.97.43,0,.85-.09,1.24-.25-.87,3.13-3.58,5.22-4.96,6.28-.17.13-.31.24-.43.34-.12-.1-.27-.21-.43-.34-1.37-1.06-4.07-3.14-4.95-6.25,0,0,0,0,0,0,.37.14.76.21,1.16.22.91,0,1.76-.34,2.41-.97.79-.77,1.22-1.8,1.23-2.91.01-1.1-.41-2.14-1.18-2.93-.99-1-2.29-1.51-3.6-1.51s-2.55.48-3.53,1.44c-1.2,1.18-1.86,2.76-1.85,4.44m-1.07,14.33c-.58,1.05-.97,1.74-.97,2.9,0,.93.76,1.69,1.69,1.69s1.69-.76,1.69-1.69c0-1.16-.39-1.85-.97-2.9-.22-.4-.47-.84-.72-1.36-.25.52-.49.96-.72,1.36m-20.15-14.31h0v-.02c0-1.44.55-2.79,1.58-3.79,1.62-1.6,4.25-1.57,5.84.05.6.61.93,1.42.92,2.28,0,.86-.35,1.66-.96,2.26-.47.46-1.08.71-1.74.71h-.02c-.66,0-1.28-.27-1.75-.74-.73-.75-.72-1.95.02-2.68.56-.55,1.46-.54,2.01.02.97.9-.09,2.55-.09,2.55.27-.07.52-.22.72-.41.77-.76.78-2,.02-2.77-.9-.92-2.38-.93-3.3-.03-1.1,1.08-1.12,2.86-.04,3.97.05.05.1.1.16.14t0,0c.65,3.91,3.89,6.41,5.47,7.63.31.24.57.44.68.56l.3.31.3-.31c.11-.12.38-.32.68-.56,1.59-1.23,4.87-3.75,5.49-7.71h0s.04-.04.07-.06c1.08-1.1,1.07-2.88-.04-3.97-.92-.9-2.4-.89-3.3.03-.76.77-.75,2.01.02,2.77.2.2.45.34.72.41,0,0-1.06-1.64-.09-2.55.55-.56,1.45-.57,2.01-.02.75.73.76,1.93.02,2.68-.46.47-1.08.74-1.75.74h-.02c-.65,0-1.27-.25-1.74-.71-.61-.6-.95-1.41-.96-2.26,0-.86.32-1.67.92-2.28,1.6-1.63,4.22-1.65,5.84-.05,1.03,1.01,1.59,2.35,1.58,3.79h0v.02c.15,4.09-2.76,6.94-5.57,9.69-1.57,1.54-3.19,3.12-4.23,4.9-1.04-1.78-2.66-3.37-4.23-4.9-2.81-2.75-5.72-5.6-5.57-9.69m-.91-.02c-.16,4.49,2.89,7.48,5.84,10.37,1.36,1.34,2.67,2.62,3.63,4,.83,1.19,1.24,3.14,1.24,3.14,0,0,.41-1.95,1.24-3.14.96-1.38,2.26-2.66,3.63-4,2.95-2.89,6-5.88,5.84-10.37,0-1.68-.65-3.26-1.85-4.44-.98-.96-2.26-1.44-3.53-1.44s-2.61.5-3.6,1.51c-.77.79-1.19,1.83-1.18,2.93.01,1.1.45,2.13,1.24,2.91.65.64,1.5.97,2.41.97.43,0,.85-.09,1.24-.25-.87,3.13-3.58,5.22-4.96,6.28-.16.13-.31.24-.43.34-.12-.1-.27-.21-.43-.34-1.37-1.06-4.07-3.14-4.95-6.25,0,0,0,0,0,0,.37.14.76.21,1.16.22.91,0,1.76-.34,2.41-.97.79-.77,1.22-1.8,1.23-2.91.01-1.1-.41-2.14-1.18-2.93-.98-1-2.29-1.51-3.6-1.51s-2.55.48-3.53,1.44c-1.2,1.18-1.86,2.76-1.85,4.44m-1.07,14.33c-.58,1.05-.97,1.74-.97,2.9,0,.93.76,1.69,1.69,1.69s1.69-.76,1.69-1.69c0-1.16-.39-1.85-.97-2.9-.22-.4-.47-.84-.72-1.36-.25.52-.49.96-.72,1.36m-20.15-14.31h0v-.02c0-1.44.55-2.79,1.58-3.79,1.63-1.6,4.25-1.57,5.84.05.6.61.93,1.42.92,2.28,0,.86-.35,1.66-.96,2.26-.47.46-1.08.71-1.74.71h-.02c-.66,0-1.28-.27-1.75-.74-.73-.75-.72-1.95.02-2.68.56-.55,1.46-.54,2.01.02.97.9-.09,2.55-.09,2.55.27-.07.52-.22.72-.41.77-.76.78-2,.02-2.77-.9-.92-2.38-.93-3.3-.03-1.1,1.08-1.12,2.86-.04,3.97.05.05.1.1.16.14,0,0,0,0,0,0,.65,3.91,3.89,6.41,5.47,7.63.31.24.57.44.68.56l.3.31.3-.31c.11-.12.38-.32.68-.56,1.59-1.23,4.87-3.75,5.48-7.71h0s.04-.04.07-.06c1.08-1.1,1.07-2.88-.04-3.97-.92-.9-2.4-.89-3.3.03-.76.77-.75,2.01.02,2.77.2.2.45.34.72.41,0,0-1.06-1.64-.09-2.55.55-.56,1.45-.57,2.01-.02.75.73.76,1.93.02,2.68-.46.47-1.09.74-1.75.74h-.02c-.66,0-1.27-.25-1.74-.71-.61-.6-.95-1.41-.96-2.26,0-.86.32-1.67.92-2.28,1.6-1.63,4.22-1.65,5.84-.05,1.03,1.01,1.59,2.35,1.58,3.79h0s0,.02,0,.02c.15,4.09-2.76,6.94-5.57,9.69-1.57,1.54-3.19,3.12-4.23,4.9-1.04-1.78-2.66-3.37-4.23-4.9-2.81-2.75-5.72-5.6-5.57-9.69m-.91-.02c-.16,4.49,2.89,7.48,5.84,10.37,1.36,1.34,2.67,2.62,3.63,4,.83,1.19,1.24,3.14,1.24,3.14,0,0,.41-1.95,1.24-3.14.96-1.38,2.26-2.66,3.63-4,2.95-2.89,6-5.88,5.84-10.37,0-1.68-.65-3.26-1.85-4.44-.98-.96-2.26-1.44-3.53-1.44s-2.61.5-3.6,1.51c-.77.79-1.19,1.83-1.18,2.93s.45,2.13,1.23,2.91c.65.64,1.5.97,2.41.97.43,0,.85-.09,1.24-.25-.87,3.13-3.58,5.22-4.96,6.28-.16.13-.31.24-.43.34-.12-.1-.27-.21-.43-.34-1.37-1.06-4.07-3.14-4.95-6.25,0,0,0,0,0,0,.37.14.75.21,1.16.22.91,0,1.76-.34,2.41-.97.79-.77,1.22-1.8,1.23-2.91s-.41-2.14-1.18-2.93c-.99-1-2.29-1.51-3.6-1.51s-2.55.48-3.53,1.44c-1.2,1.18-1.86,2.76-1.85,4.44m-1.07,14.33c-.58,1.05-.97,1.74-.97,2.9,0,.93.76,1.69,1.69,1.69s1.69-.76,1.69-1.69c0-1.16-.38-1.85-.97-2.9-.22-.4-.47-.84-.72-1.36-.25.52-.49.96-.72,1.36m-20.15-14.31h0v-.02c0-1.44.55-2.79,1.58-3.79,1.63-1.6,4.25-1.57,5.84.05.6.61.93,1.42.92,2.28,0,.86-.35,1.66-.96,2.26-.47.46-1.08.71-1.74.71h-.02c-.66,0-1.28-.27-1.75-.74-.73-.75-.72-1.95.02-2.68.56-.55,1.46-.54,2.01.02.97.9-.09,2.55-.09,2.55.27-.07.52-.22.72-.41.77-.76.78-2,.02-2.77-.9-.92-2.38-.93-3.3-.03-1.1,1.08-1.12,2.86-.04,3.97.05.05.1.1.16.14,0,0,0,0,0,0,.65,3.91,3.89,6.41,5.47,7.63.31.24.57.44.68.56l.3.31.3-.31c.11-.12.38-.32.68-.56,1.59-1.23,4.87-3.75,5.48-7.71,0,0,0,0,0,0,.02-.02.05-.04.07-.06,1.08-1.1,1.07-2.88-.04-3.97-.92-.9-2.4-.89-3.3.03-.76.77-.75,2.01.03,2.77.2.2.45.34.72.41,0,0-1.06-1.64-.09-2.55.55-.56,1.45-.57,2.01-.02.74.73.76,1.93.02,2.68-.46.47-1.09.74-1.75.74h-.02c-.65,0-1.27-.25-1.74-.71-.61-.6-.95-1.41-.96-2.26,0-.86.32-1.67.92-2.28,1.6-1.63,4.22-1.65,5.84-.05,1.03,1.01,1.59,2.35,1.58,3.79h0s0,.02,0,.02c.15,4.09-2.76,6.94-5.57,9.69-1.57,1.54-3.19,3.12-4.23,4.9-1.04-1.78-2.66-3.37-4.23-4.9-2.81-2.75-5.72-5.6-5.57-9.69m-.91-.02c-.16,4.49,2.89,7.48,5.84,10.37,1.36,1.34,2.67,2.62,3.63,4,.83,1.19,1.24,3.14,1.24,3.14,0,0,.41-1.95,1.24-3.14.96-1.38,2.26-2.66,3.63-4,2.95-2.89,6-5.88,5.84-10.37,0-1.68-.65-3.26-1.85-4.44-.98-.96-2.26-1.44-3.53-1.44s-2.61.5-3.6,1.51c-.77.79-1.19,1.83-1.18,2.93,0,1.1.45,2.13,1.23,2.91.65.64,1.5.97,2.41.97.43,0,.85-.09,1.24-.25-.87,3.13-3.58,5.22-4.96,6.28-.16.13-.31.24-.43.34-.12-.1-.27-.21-.43-.34-1.37-1.06-4.07-3.14-4.95-6.25,0,0,0,0,0,0,.37.14.76.21,1.16.22.91,0,1.76-.34,2.41-.97.79-.77,1.22-1.8,1.23-2.91.01-1.1-.41-2.14-1.18-2.93-.99-1-2.29-1.51-3.6-1.51s-2.55.48-3.53,1.44c-1.2,1.18-1.86,2.76-1.85,4.44m-1.07,14.33c-.58,1.05-.97,1.74-.97,2.9,0,.93.76,1.69,1.69,1.69s1.69-.76,1.69-1.69c0-1.16-.39-1.85-.97-2.9-.22-.4-.47-.84-.72-1.36-.25.52-.49.96-.72,1.36m-20.15-14.31h0v-.02c0-1.44.55-2.79,1.58-3.79,1.62-1.6,4.25-1.57,5.84.05.6.61.93,1.42.92,2.28,0,.86-.35,1.66-.96,2.26-.47.46-1.08.71-1.74.71h-.02c-.66,0-1.28-.27-1.75-.74-.73-.75-.72-1.95.02-2.68.56-.55,1.46-.54,2.01.02.97.9-.09,2.55-.09,2.55.27-.07.52-.22.72-.41.77-.76.78-2,.02-2.77-.9-.92-2.38-.93-3.3-.03-1.1,1.08-1.12,2.86-.04,3.97.05.05.1.1.16.14h0c.65,3.91,3.89,6.41,5.47,7.63.31.24.57.44.68.56l.3.31.3-.31c.11-.12.38-.32.68-.56,1.59-1.23,4.87-3.75,5.48-7.71,0,0,0,0,0,0,.02-.02.05-.04.07-.06,1.08-1.1,1.07-2.88-.04-3.97-.92-.9-2.4-.89-3.3.03-.76.77-.75,2.01.02,2.77.2.2.45.34.72.41,0,0-1.06-1.64-.09-2.55.55-.56,1.45-.57,2.01-.02.74.73.76,1.93.02,2.68-.46.47-1.08.74-1.75.74h-.02c-.65,0-1.27-.25-1.74-.71-.61-.6-.95-1.41-.96-2.26,0-.86.32-1.67.92-2.28,1.6-1.63,4.22-1.65,5.84-.05,1.03,1.01,1.59,2.35,1.58,3.79h0v.02c.15,4.09-2.76,6.94-5.57,9.69-1.57,1.54-3.19,3.12-4.23,4.9-1.04-1.78-2.66-3.37-4.23-4.9-2.81-2.75-5.72-5.6-5.57-9.69m-.91-.02c-.16,4.49,2.89,7.48,5.84,10.37,1.36,1.34,2.67,2.62,3.63,4,.83,1.19,1.24,3.14,1.24,3.14,0,0,.41-1.95,1.24-3.14.96-1.38,2.26-2.66,3.63-4,2.95-2.89,6-5.88,5.84-10.37,0-1.68-.65-3.26-1.85-4.44-.98-.96-2.26-1.44-3.53-1.44s-2.61.5-3.6,1.51c-.77.79-1.19,1.83-1.18,2.93,0,1.1.45,2.13,1.23,2.91.65.64,1.5.97,2.41.97.43,0,.85-.09,1.24-.25-.87,3.13-3.58,5.22-4.96,6.28-.17.13-.31.24-.43.34-.12-.1-.27-.21-.43-.34-1.37-1.06-4.07-3.14-4.95-6.25,0,0,0,0,0,0,.37.14.75.21,1.16.22.91,0,1.76-.34,2.41-.97.79-.77,1.22-1.8,1.23-2.91.01-1.1-.41-2.14-1.18-2.93-.99-1-2.29-1.51-3.6-1.51s-2.55.48-3.53,1.44c-1.2,1.18-1.86,2.76-1.85,4.44m-1.07,14.33c-.58,1.05-.97,1.74-.97,2.9,0,.93.76,1.69,1.69,1.69s1.69-.76,1.69-1.69c0-1.16-.39-1.85-.97-2.9-.22-.4-.47-.84-.72-1.36-.25.52-.49.96-.72,1.36m-20.15-14.31h0v-.02c0-1.44.55-2.79,1.58-3.79,1.63-1.6,4.25-1.57,5.84.05.6.61.93,1.42.92,2.28,0,.86-.35,1.66-.96,2.26-.47.46-1.08.71-1.74.71h-.02c-.66,0-1.28-.27-1.75-.74-.73-.75-.72-1.95.02-2.68.56-.55,1.46-.54,2.01.02.97.9-.09,2.55-.09,2.55.27-.07.52-.22.72-.41.77-.76.78-2,.02-2.77-.9-.92-2.38-.93-3.3-.03-1.1,1.08-1.12,2.86-.04,3.97.05.05.1.1.16.14h0c.65,3.91,3.89,6.41,5.47,7.63.31.24.57.44.68.56l.3.31.3-.31c.11-.12.38-.32.68-.56,1.59-1.23,4.87-3.75,5.48-7.71h0s.04-.04.07-.06c1.08-1.1,1.07-2.88-.04-3.97-.92-.9-2.4-.89-3.3.03-.76.77-.75,2.01.02,2.77.2.2.45.34.72.41,0,0-1.06-1.64-.09-2.55.55-.56,1.45-.57,2.01-.02.75.73.76,1.93.02,2.68-.46.47-1.09.74-1.75.74h-.02c-.66,0-1.27-.25-1.74-.71-.61-.6-.95-1.41-.96-2.26,0-.86.32-1.67.92-2.28,1.6-1.63,4.22-1.65,5.84-.05,1.03,1.01,1.59,2.35,1.58,3.79h0v.02c.15,4.09-2.76,6.94-5.57,9.69-1.57,1.54-3.19,3.12-4.23,4.9-1.04-1.78-2.66-3.37-4.23-4.9-2.81-2.75-5.72-5.6-5.57-9.69m-.91-.02c-.16,4.49,2.89,7.48,5.84,10.37,1.36,1.34,2.67,2.62,3.63,4,.83,1.19,1.24,3.14,1.24,3.14,0,0,.41-1.95,1.24-3.14.96-1.38,2.26-2.66,3.63-4,2.95-2.89,6-5.88,5.84-10.37,0-1.68-.65-3.26-1.85-4.44-.98-.96-2.26-1.44-3.53-1.44s-2.61.5-3.6,1.51c-.77.79-1.19,1.83-1.18,2.93.01,1.1.45,2.13,1.24,2.91.65.64,1.5.97,2.41.97.43,0,.85-.09,1.24-.25-.87,3.13-3.58,5.22-4.96,6.28-.17.13-.31.24-.43.34-.12-.1-.27-.21-.43-.34-1.37-1.06-4.07-3.14-4.95-6.25,0,0,0,0,0,0,.37.14.75.21,1.16.22.91,0,1.76-.34,2.41-.97.79-.77,1.22-1.8,1.23-2.91,0-1.1-.41-2.14-1.18-2.93-.99-1-2.29-1.51-3.6-1.51s-2.55.48-3.53,1.44c-1.2,1.18-1.86,2.76-1.85,4.44m-1.07,14.33c-.58,1.05-.97,1.74-.97,2.9,0,.93.76,1.69,1.69,1.69s1.69-.76,1.69-1.69c0-1.16-.39-1.85-.97-2.9-.22-.4-.47-.84-.72-1.36-.25.52-.49.96-.72,1.36m-20.15-14.31h0v-.02c0-1.44.55-2.79,1.58-3.79,1.63-1.6,4.25-1.57,5.84.05.6.61.93,1.42.92,2.28,0,.86-.35,1.66-.96,2.26-.47.46-1.08.71-1.74.71h-.02c-.66,0-1.28-.27-1.75-.74-.73-.75-.72-1.95.02-2.68.56-.55,1.46-.54,2.01.02.97.9-.09,2.55-.09,2.55.27-.07.52-.22.72-.41.77-.76.78-2,.02-2.77-.9-.92-2.38-.93-3.3-.03-1.1,1.08-1.12,2.86-.04,3.97.05.05.1.1.16.14,0,0,0,0,0,0,.65,3.91,3.89,6.41,5.47,7.63.31.24.57.44.68.56l.3.31.3-.31c.11-.12.38-.32.68-.56,1.59-1.23,4.87-3.75,5.48-7.71t0,0s.05-.04.07-.06c1.08-1.1,1.07-2.88-.04-3.97-.92-.9-2.4-.89-3.3.03-.76.77-.75,2.01.02,2.77.2.2.45.34.72.41,0,0-1.06-1.64-.09-2.55.55-.56,1.45-.57,2.01-.02.75.73.76,1.93.02,2.68-.46.47-1.09.74-1.75.74h-.02c-.65,0-1.27-.25-1.74-.71-.61-.6-.95-1.41-.96-2.26,0-.86.32-1.67.92-2.28,1.6-1.63,4.22-1.65,5.84-.05,1.03,1.01,1.59,2.35,1.58,3.79h0s0,.02,0,.02c.15,4.09-2.76,6.94-5.57,9.69-1.57,1.54-3.19,3.12-4.23,4.9-1.04-1.78-2.66-3.37-4.23-4.9-2.81-2.75-5.72-5.6-5.57-9.69m-.91-.02c-.16,4.49,2.89,7.48,5.84,10.37,1.36,1.34,2.67,2.62,3.63,4,.83,1.19,1.24,3.14,1.24,3.14,0,0,.41-1.95,1.24-3.14.96-1.38,2.26-2.66,3.63-4,2.95-2.89,6-5.88,5.84-10.37,0-1.68-.65-3.26-1.85-4.44-.98-.96-2.26-1.44-3.53-1.44s-2.61.5-3.6,1.51c-.77.79-1.19,1.83-1.18,2.93.01,1.1.45,2.13,1.23,2.91.65.64,1.5.97,2.41.97.43,0,.85-.09,1.24-.25-.87,3.13-3.58,5.22-4.96,6.28-.17.13-.31.24-.43.34-.12-.1-.27-.21-.43-.34-1.37-1.06-4.07-3.14-4.95-6.25,0,0,0,0,0,0,.37.14.75.21,1.16.22.91,0,1.76-.34,2.41-.97.79-.77,1.22-1.8,1.23-2.91,0-1.1-.41-2.14-1.18-2.93-.99-1-2.29-1.51-3.6-1.51s-2.55.48-3.53,1.44c-1.2,1.18-1.86,2.76-1.85,4.44m-1.07,14.33c-.58,1.05-.97,1.74-.97,2.9,0,.93.76,1.69,1.69,1.69s1.69-.76,1.69-1.69c0-1.16-.39-1.85-.97-2.9-.22-.4-.47-.84-.72-1.36-.25.52-.49.96-.72,1.36m-20.15-14.31h0v-.02c0-1.44.55-2.79,1.58-3.79,1.63-1.6,4.25-1.57,5.84.05.6.61.93,1.42.92,2.28,0,.86-.35,1.66-.96,2.26-.47.46-1.08.71-1.74.71h-.02c-.66,0-1.28-.27-1.75-.74-.73-.75-.72-1.95.02-2.68.56-.55,1.46-.54,2.01.02.97.9-.09,2.55-.09,2.55.27-.07.52-.22.72-.41.77-.76.78-2,.02-2.77-.9-.92-2.38-.93-3.3-.03-1.1,1.08-1.12,2.86-.04,3.97.05.05.1.1.16.14,0,0,0,0,0,0,.65,3.91,3.89,6.41,5.47,7.63.31.24.57.44.68.56l.3.31.3-.31c.11-.12.38-.32.68-.56,1.59-1.23,4.87-3.75,5.48-7.71h0s.04-.04.07-.06c1.08-1.1,1.07-2.88-.04-3.97-.92-.9-2.4-.89-3.3.03-.76.77-.75,2.01.03,2.77.2.2.45.34.72.41,0,0-1.06-1.64-.09-2.55.55-.56,1.45-.57,2.01-.02.74.73.76,1.93.02,2.68-.46.47-1.08.74-1.75.74h-.02c-.65,0-1.27-.25-1.74-.71-.61-.6-.95-1.41-.96-2.26,0-.86.32-1.67.92-2.28,1.6-1.63,4.22-1.65,5.84-.05,1.03,1.01,1.59,2.35,1.58,3.79h0s0,.02,0,.02c.15,4.09-2.76,6.94-5.57,9.69-1.57,1.54-3.19,3.12-4.23,4.9-1.04-1.78-2.66-3.37-4.23-4.9-2.81-2.75-5.72-5.6-5.57-9.69m-.91-.02c-.16,4.49,2.89,7.48,5.84,10.37,1.36,1.34,2.67,2.62,3.63,4,.83,1.19,1.24,3.14,1.24,3.14,0,0,.41-1.95,1.24-3.14.96-1.38,2.26-2.66,3.63-4,2.95-2.89,6-5.88,5.84-10.37,0-1.68-.65-3.26-1.85-4.44-.98-.96-2.26-1.44-3.53-1.44s-2.61.5-3.6,1.51c-.77.79-1.19,1.83-1.18,2.93,0,1.1.45,2.13,1.23,2.91.65.64,1.5.97,2.41.97.43,0,.85-.09,1.24-.25-.87,3.13-3.58,5.22-4.96,6.28-.17.13-.31.24-.43.34-.12-.1-.27-.21-.43-.34-1.37-1.06-4.07-3.14-4.95-6.25,0,0,0,0,0,0,.37.14.76.21,1.16.22.91,0,1.76-.34,2.41-.97.79-.77,1.22-1.8,1.24-2.91,0-1.1-.41-2.14-1.18-2.93-.99-1-2.29-1.51-3.6-1.51s-2.55.48-3.53,1.44c-1.2,1.18-1.86,2.76-1.85,4.44m-1.07,14.33c-.58,1.05-.97,1.74-.97,2.9,0,.93.76,1.69,1.69,1.69s1.69-.76,1.69-1.69c0-1.16-.39-1.85-.97-2.9-.22-.4-.47-.84-.72-1.36-.25.52-.49.96-.72,1.36m-20.15-14.31h0s0-.02,0-.02c0-1.44.55-2.79,1.58-3.79,1.63-1.6,4.25-1.57,5.84.05.6.61.93,1.42.92,2.28,0,.86-.35,1.66-.96,2.26-.47.46-1.08.71-1.74.71h-.02c-.66,0-1.28-.27-1.75-.74-.73-.75-.72-1.95.02-2.68.56-.55,1.46-.54,2.01.02.97.9-.09,2.55-.09,2.55.27-.07.52-.22.72-.41.77-.76.78-2,.03-2.77-.9-.92-2.38-.93-3.3-.03-1.1,1.08-1.12,2.86-.04,3.97.05.05.1.1.16.14,0,0,0,0,0,0,.65,3.91,3.89,6.41,5.47,7.63.31.24.57.44.68.56l.3.31.3-.31c.11-.12.38-.32.68-.56,1.59-1.23,4.87-3.75,5.48-7.71,0,0,0,0,0,0,.02-.02.05-.04.07-.06,1.08-1.1,1.07-2.88-.04-3.97-.92-.9-2.4-.89-3.3.03-.76.77-.75,2.01.03,2.77.2.2.45.34.72.41,0,0-1.06-1.64-.09-2.55.55-.56,1.45-.57,2.01-.02.74.73.76,1.93.02,2.68-.46.47-1.08.74-1.75.74h-.02c-.65,0-1.27-.25-1.74-.71-.61-.6-.95-1.41-.96-2.26,0-.86.32-1.67.92-2.28,1.6-1.63,4.22-1.65,5.84-.05,1.03,1.01,1.59,2.35,1.58,3.79h0v.02c.15,4.09-2.76,6.94-5.57,9.69-1.57,1.54-3.19,3.12-4.23,4.9-1.04-1.78-2.66-3.37-4.23-4.9-2.81-2.75-5.72-5.6-5.57-9.69m-.91-.02c-.16,4.49,2.89,7.48,5.84,10.37,1.36,1.34,2.67,2.62,3.63,4,.83,1.19,1.24,3.14,1.24,3.14,0,0,.41-1.95,1.24-3.14.96-1.38,2.26-2.66,3.63-4,2.95-2.89,6-5.88,5.84-10.37,0-1.68-.65-3.26-1.85-4.44-.98-.96-2.26-1.44-3.53-1.44s-2.61.5-3.6,1.51c-.77.79-1.19,1.83-1.18,2.93,0,1.1.45,2.13,1.23,2.91.65.64,1.5.97,2.41.97.43,0,.85-.09,1.24-.25-.87,3.13-3.58,5.22-4.96,6.28-.17.13-.31.24-.43.34-.12-.1-.27-.21-.43-.34-1.37-1.06-4.07-3.14-4.95-6.25,0,0,0,0,0,0,.37.14.75.21,1.16.22.91,0,1.76-.34,2.41-.97.79-.77,1.22-1.8,1.23-2.91.01-1.1-.41-2.14-1.18-2.93-.99-1-2.29-1.51-3.6-1.51s-2.55.48-3.53,1.44c-1.2,1.18-1.86,2.76-1.85,4.44m-1.07,14.33c-.58,1.05-.97,1.74-.97,2.9,0,.93.76,1.69,1.69,1.69s1.69-.76,1.69-1.69c0-1.16-.39-1.85-.97-2.9-.22-.4-.47-.84-.72-1.36-.25.52-.49.96-.72,1.36m-20.15-14.31h0v-.02c0-1.44.55-2.79,1.58-3.79,1.63-1.6,4.25-1.57,5.84.05.6.61.93,1.42.92,2.28,0,.86-.35,1.66-.96,2.26-.47.46-1.08.71-1.74.71h-.02c-.66,0-1.28-.27-1.75-.74-.73-.75-.72-1.95.02-2.68.56-.55,1.46-.54,2.01.02.97.9-.09,2.55-.09,2.55.27-.07.52-.22.72-.41.77-.76.78-2,.02-2.77-.9-.92-2.38-.93-3.3-.03-1.1,1.08-1.12,2.86-.04,3.97.05.05.1.1.16.14,0,0,0,0,0,0,.65,3.91,3.89,6.41,5.47,7.63.31.24.57.44.68.56l.3.31.3-.31c.11-.12.38-.32.68-.56,1.59-1.23,4.87-3.75,5.48-7.71h0s.04-.04.07-.06c1.08-1.1,1.07-2.88-.04-3.97-.92-.9-2.4-.89-3.3.03-.76.77-.75,2.01.02,2.77.2.2.45.34.72.41,0,0-1.06-1.64-.09-2.55.55-.56,1.45-.57,2.01-.02.75.73.76,1.93.02,2.68-.46.47-1.09.74-1.75.74h-.02c-.65,0-1.27-.25-1.74-.71-.61-.6-.95-1.41-.96-2.26,0-.86.32-1.67.92-2.28,1.6-1.63,4.22-1.65,5.84-.05,1.03,1.01,1.59,2.35,1.58,3.79h0s0,.02,0,.02c.15,4.09-2.76,6.94-5.57,9.69-1.57,1.54-3.19,3.12-4.23,4.9-1.04-1.78-2.66-3.37-4.23-4.9-2.81-2.75-5.72-5.6-5.57-9.69m-.91-.02c-.16,4.49,2.89,7.48,5.84,10.37,1.36,1.34,2.67,2.62,3.63,4,.83,1.19,1.24,3.14,1.24,3.14,0,0,.41-1.95,1.24-3.14.96-1.38,2.26-2.66,3.63-4,2.95-2.89,6-5.88,5.84-10.37,0-1.68-.65-3.26-1.85-4.44-.98-.96-2.26-1.44-3.53-1.44s-2.61.5-3.6,1.51c-.77.79-1.19,1.83-1.18,2.93.01,1.1.45,2.13,1.23,2.91.65.64,1.5.97,2.41.97.43,0,.85-.09,1.24-.25-.87,3.13-3.58,5.22-4.96,6.28-.17.13-.31.24-.43.34-.12-.1-.27-.21-.43-.34-1.37-1.06-4.07-3.14-4.95-6.25,0,0,0,0,0,0,.37.14.76.21,1.16.22.91,0,1.76-.34,2.41-.97.79-.77,1.22-1.8,1.23-2.91,0-1.1-.41-2.14-1.18-2.93-.99-1-2.29-1.51-3.6-1.51s-2.55.48-3.53,1.44c-1.2,1.18-1.86,2.76-1.85,4.44m-1.07,14.33c-.58,1.05-.97,1.74-.97,2.9,0,.93.76,1.69,1.69,1.69s1.69-.76,1.69-1.69c0-1.16-.39-1.85-.97-2.9-.22-.4-.47-.84-.72-1.36-.25.52-.49.96-.72,1.36m-20.15-14.31h0v-.02c0-1.44.55-2.79,1.58-3.79,1.63-1.6,4.25-1.57,5.84.05.6.61.93,1.42.92,2.28,0,.86-.35,1.66-.96,2.26-.47.46-1.08.71-1.74.71h-.02c-.66,0-1.28-.27-1.75-.74-.73-.75-.72-1.95.02-2.68.56-.55,1.46-.54,2.01.02.97.9-.09,2.55-.09,2.55.27-.07.52-.22.72-.41.77-.76.78-2,.02-2.77-.9-.92-2.38-.93-3.3-.03-1.1,1.08-1.12,2.86-.04,3.97.05.05.1.1.16.14,0,0,0,0,0,0,.65,3.91,3.89,6.41,5.47,7.63.31.24.57.44.68.56l.3.31.3-.31c.11-.12.38-.32.68-.56,1.59-1.23,4.87-3.75,5.48-7.71h0s.04-.04.07-.06c1.08-1.1,1.07-2.88-.04-3.97-.92-.9-2.4-.89-3.3.03-.76.77-.75,2.01.02,2.77.2.2.45.34.72.41,0,0-1.06-1.64-.09-2.55.55-.56,1.45-.57,2.01-.02.74.73.76,1.93.02,2.68-.46.47-1.08.74-1.75.74h-.02c-.65,0-1.27-.25-1.74-.71-.61-.6-.95-1.41-.96-2.26,0-.86.32-1.67.92-2.28,1.6-1.63,4.22-1.65,5.84-.05,1.03,1.01,1.59,2.35,1.58,3.79h0s0,.02,0,.02c.15,4.09-2.76,6.94-5.57,9.69-1.57,1.54-3.19,3.12-4.23,4.9-1.04-1.78-2.66-3.37-4.23-4.9-2.81-2.75-5.72-5.6-5.57-9.69m-.91-.02c-.16,4.49,2.89,7.48,5.84,10.37,1.36,1.34,2.67,2.62,3.63,4,.83,1.19,1.24,3.14,1.24,3.14,0,0,.41-1.95,1.24-3.14.96-1.38,2.26-2.66,3.63-4,2.95-2.89,6-5.88,5.84-10.37,0-1.68-.65-3.26-1.85-4.44-.98-.96-2.26-1.44-3.53-1.44s-2.61.5-3.6,1.51c-.77.79-1.19,1.83-1.18,2.93.01,1.1.45,2.13,1.23,2.91.65.64,1.5.97,2.41.97.43,0,.85-.09,1.24-.25-.87,3.13-3.58,5.22-4.96,6.28-.17.13-.31.24-.43.34-.12-.1-.27-.21-.43-.34-1.37-1.06-4.07-3.14-4.95-6.25,0,0,0,0,0,0,.37.14.76.21,1.16.22.91,0,1.76-.34,2.41-.97.79-.77,1.22-1.8,1.24-2.91,0-1.1-.41-2.14-1.18-2.93-.99-1-2.29-1.51-3.6-1.51s-2.55.48-3.53,1.44c-1.2,1.18-1.86,2.76-1.85,4.44m-1.07,14.33c-.58,1.05-.97,1.74-.97,2.9,0,.93.76,1.69,1.69,1.69s1.69-.76,1.69-1.69c0-1.16-.39-1.85-.97-2.9-.22-.4-.47-.84-.72-1.36-.25.52-.49.96-.72,1.36m-20.15-14.31h0v-.02c0-1.44.55-2.79,1.58-3.79,1.63-1.6,4.25-1.57,5.84.05.6.61.93,1.42.92,2.28,0,.86-.35,1.66-.96,2.26-.47.46-1.08.71-1.74.71h-.02c-.66,0-1.28-.27-1.75-.74-.73-.75-.72-1.95.02-2.68.56-.55,1.46-.54,2.01.02.97.9-.09,2.55-.09,2.55.27-.07.52-.22.72-.41.77-.76.78-2,.02-2.77-.9-.92-2.38-.93-3.3-.03-1.1,1.08-1.12,2.86-.04,3.97.05.05.1.1.16.14,0,0,0,0,0,0,.65,3.91,3.89,6.41,5.47,7.63.31.24.57.44.68.56l.3.31.3-.31c.11-.12.38-.32.68-.56,1.59-1.23,4.87-3.75,5.48-7.71,0,0,0,0,0,0,.02-.02.05-.04.07-.06,1.08-1.1,1.07-2.88-.04-3.97-.92-.9-2.4-.89-3.3.03-.76.77-.75,2.01.03,2.77.2.2.45.34.72.41,0,0-1.06-1.64-.09-2.55.55-.56,1.45-.57,2.01-.02.74.73.76,1.93.02,2.68-.46.47-1.08.74-1.75.74h-.02c-.65,0-1.27-.25-1.74-.71-.61-.6-.95-1.41-.96-2.26,0-.86.32-1.67.92-2.28,1.6-1.63,4.22-1.65,5.84-.05,1.03,1.01,1.59,2.35,1.58,3.79h0v.02c.15,4.09-2.76,6.94-5.57,9.69-1.57,1.54-3.19,3.12-4.23,4.9-1.04-1.78-2.66-3.37-4.23-4.9-2.81-2.75-5.72-5.6-5.57-9.69m-.91-.02c-.16,4.49,2.89,7.48,5.84,10.37,1.36,1.34,2.67,2.62,3.63,4,.83,1.19,1.24,3.14,1.24,3.14,0,0,.41-1.95,1.24-3.14.96-1.38,2.26-2.66,3.63-4,2.95-2.89,6-5.88,5.84-10.37,0-1.68-.65-3.26-1.85-4.44-.98-.96-2.26-1.44-3.53-1.44s-2.61.5-3.6,1.51c-.77.79-1.19,1.83-1.18,2.93,0,1.1.45,2.13,1.23,2.91.65.64,1.5.97,2.41.97.43,0,.85-.09,1.24-.25-.87,3.13-3.58,5.22-4.96,6.28-.17.13-.31.24-.43.34-.12-.1-.27-.21-.43-.34-1.37-1.06-4.07-3.14-4.95-6.25,0,0,0,0,0,0,.37.14.76.21,1.16.22.91,0,1.76-.34,2.41-.97.79-.77,1.22-1.8,1.23-2.91.01-1.1-.41-2.14-1.18-2.93-.99-1-2.29-1.51-3.6-1.51s-2.55.48-3.53,1.44c-1.2,1.18-1.86,2.76-1.85,4.44m-1.07,14.33c-.58,1.05-.97,1.74-.97,2.9,0,.93.76,1.69,1.69,1.69s1.69-.76,1.69-1.69c0-1.16-.39-1.85-.97-2.9-.22-.4-.47-.84-.72-1.36-.25.52-.49.96-.72,1.36m-20.15-14.31h0v-.02c0-1.44.55-2.79,1.58-3.79,1.63-1.6,4.25-1.57,5.84.05.6.61.93,1.42.92,2.28,0,.86-.35,1.66-.96,2.26-.47.46-1.08.71-1.74.71h-.02c-.66,0-1.28-.27-1.75-.74-.73-.75-.72-1.95.02-2.68.56-.55,1.46-.54,2.01.02.97.9-.09,2.55-.09,2.55.27-.07.52-.22.72-.41.77-.76.78-2,.02-2.77-.9-.92-2.38-.93-3.3-.03-1.1,1.08-1.12,2.86-.04,3.97.05.05.1.1.16.14h0c.65,3.91,3.89,6.41,5.47,7.63.31.24.57.44.68.56l.3.31.3-.31c.11-.12.38-.32.68-.56,1.59-1.23,4.87-3.75,5.48-7.71h0s.04-.04.07-.06c1.08-1.1,1.07-2.88-.04-3.97-.92-.9-2.4-.89-3.3.03-.76.77-.75,2.01.02,2.77.2.2.45.34.72.41,0,0-1.06-1.64-.09-2.55.55-.56,1.45-.57,2.01-.02.74.73.76,1.93.02,2.68-.46.47-1.08.74-1.75.74h-.02c-.65,0-1.27-.25-1.74-.71-.61-.6-.95-1.41-.96-2.26,0-.86.32-1.67.92-2.28,1.6-1.63,4.22-1.65,5.84-.05,1.03,1.01,1.59,2.35,1.58,3.79h0v.02c.15,4.09-2.76,6.94-5.57,9.69-1.57,1.54-3.19,3.12-4.23,4.9-1.04-1.78-2.66-3.37-4.23-4.9-2.81-2.75-5.72-5.6-5.57-9.69m-.91-.02c-.16,4.49,2.89,7.48,5.84,10.37,1.36,1.34,2.67,2.62,3.63,4,.83,1.19,1.24,3.14,1.24,3.14,0,0,.41-1.95,1.24-3.14.96-1.38,2.26-2.66,3.63-4,2.95-2.89,6-5.88,5.84-10.37,0-1.68-.65-3.26-1.85-4.44-.98-.96-2.26-1.44-3.53-1.44s-2.61.5-3.6,1.51c-.77.79-1.19,1.83-1.18,2.93,0,1.1.45,2.13,1.23,2.91.65.64,1.5.97,2.41.97.43,0,.85-.09,1.24-.25-.87,3.13-3.58,5.22-4.96,6.28-.17.13-.31.24-.43.34-.12-.1-.27-.21-.43-.34-1.37-1.06-4.07-3.14-4.95-6.25,0,0,0,0,0,0,.37.14.75.21,1.16.22.91,0,1.76-.34,2.41-.97.79-.77,1.22-1.8,1.23-2.91,0-1.1-.41-2.14-1.18-2.93-.99-1-2.29-1.51-3.6-1.51s-2.55.48-3.53,1.44c-1.2,1.18-1.86,2.76-1.85,4.44m.36,14.33c-.22-.4-.47-.84-.72-1.36v5.95c.93,0,1.69-.76,1.69-1.69,0-1.16-.39-1.85-.97-2.9m-21.59-14.31h0v-.02c0-1.44.55-2.79,1.58-3.79,1.63-1.6,4.25-1.57,5.84.05.6.61.93,1.42.92,2.28,0,.86-.35,1.66-.96,2.26-.47.46-1.08.71-1.74.71h-.02c-.66,0-1.28-.27-1.75-.74-.73-.75-.72-1.95.02-2.68.56-.55,1.46-.54,2.01.02.97.9-.09,2.55-.09,2.55.27-.07.52-.22.72-.41.77-.76.78-2,.02-2.77-.9-.92-2.38-.93-3.3-.03-1.1,1.08-1.12,2.86-.04,3.97.05.05.1.1.16.14h0c.65,3.91,3.89,6.41,5.47,7.63.31.24.57.44.68.56l.3.31.3-.31c.11-.12.38-.32.68-.56,1.59-1.23,4.87-3.75,5.48-7.71.02-.02.04-.04.07-.06,1.08-1.1,1.07-2.88-.04-3.97-.92-.9-2.4-.89-3.3.03-.76.77-.75,2.01.02,2.77.2.2.45.34.72.41,0,0-1.06-1.64-.09-2.55.55-.56,1.45-.57,2.01-.02.75.73.76,1.93.02,2.68-.46.47-1.09.74-1.75.74h-.02c-.66,0-1.27-.25-1.74-.71-.61-.6-.95-1.41-.96-2.26,0-.86.32-1.67.92-2.28,1.6-1.63,4.22-1.65,5.84-.05,1.03,1.01,1.59,2.35,1.58,3.79h0v.02c.15,4.09-2.76,6.94-5.57,9.69-1.57,1.54-3.19,3.12-4.23,4.9-1.04-1.78-2.66-3.37-4.23-4.9-2.81-2.75-5.72-5.6-5.57-9.69m-.91-.02c-.16,4.49,2.89,7.48,5.84,10.37,1.36,1.34,2.67,2.62,3.63,4,.83,1.19,1.24,3.14,1.24,3.14,0,0,.41-1.95,1.24-3.14.96-1.38,2.26-2.66,3.63-4,2.95-2.89,6-5.88,5.84-10.37,0-1.68-.65-3.26-1.85-4.44-.98-.96-2.26-1.44-3.53-1.44s-2.61.5-3.6,1.51c-.77.79-1.19,1.83-1.18,2.93.01,1.1.45,2.13,1.23,2.91.65.64,1.5.97,2.41.97.43,0,.85-.09,1.24-.25-.87,3.13-3.58,5.22-4.96,6.28-.17.13-.31.24-.43.34-.12-.1-.27-.21-.43-.34-1.37-1.06-4.07-3.14-4.95-6.25,0,0,0,0,0,0,.37.14.76.21,1.16.22.91,0,1.76-.34,2.41-.97.79-.77,1.22-1.8,1.23-2.91,0-1.1-.41-2.14-1.18-2.93-.99-1-2.29-1.51-3.6-1.51s-2.55.48-3.53,1.44c-1.2,1.18-1.86,2.76-1.85,4.44m-1.07,14.33c-.58,1.05-.97,1.74-.97,2.9,0,.93.76,1.69,1.69,1.69s1.69-.76,1.69-1.69c0-1.16-.39-1.85-.97-2.9-.22-.4-.47-.84-.72-1.36-.25.52-.49.96-.72,1.36m-20.15-14.31h0v-.02c0-1.44.55-2.79,1.58-3.79,1.63-1.6,4.25-1.57,5.84.05.6.61.93,1.42.92,2.28,0,.86-.35,1.66-.96,2.26-.47.46-1.08.71-1.74.71h-.02c-.66,0-1.28-.27-1.75-.74-.73-.75-.72-1.95.02-2.68.56-.55,1.46-.54,2.01.02.97.9-.09,2.55-.09,2.55.27-.07.52-.22.72-.41.77-.76.78-2,.02-2.77-.9-.92-2.38-.93-3.3-.03-1.1,1.08-1.12,2.86-.04,3.97.05.05.1.1.16.14,0,0,0,0,0,0,.65,3.91,3.89,6.41,5.47,7.63.31.24.57.44.68.56l.3.31.3-.31c.11-.12.38-.32.68-.56,1.59-1.23,4.87-3.75,5.48-7.71t0,0s.05-.04.07-.06c1.08-1.1,1.07-2.88-.04-3.97-.92-.9-2.4-.89-3.3.03-.76.77-.75,2.01.02,2.77.2.2.45.34.72.41,0,0-1.06-1.64-.09-2.55.55-.56,1.45-.57,2.01-.02.74.73.76,1.93.02,2.68-.46.47-1.09.74-1.75.74h-.02c-.65,0-1.27-.25-1.74-.71-.61-.6-.95-1.41-.96-2.26,0-.86.32-1.67.92-2.28,1.6-1.63,4.22-1.65,5.84-.05,1.03,1.01,1.59,2.35,1.58,3.79h0s0,.02,0,.02c.15,4.09-2.76,6.94-5.57,9.69-1.57,1.54-3.19,3.12-4.23,4.9-1.04-1.78-2.66-3.37-4.23-4.9-2.81-2.75-5.72-5.6-5.57-9.69m-.91-.02c-.16,4.49,2.89,7.48,5.84,10.37,1.36,1.34,2.67,2.62,3.63,4,.83,1.19,1.24,3.14,1.24,3.14,0,0,.41-1.95,1.24-3.14.96-1.38,2.26-2.66,3.63-4,2.95-2.89,6-5.88,5.84-10.37,0-1.68-.65-3.26-1.85-4.44-.98-.96-2.26-1.44-3.53-1.44s-2.61.5-3.6,1.51c-.77.79-1.19,1.83-1.18,2.93.01,1.1.45,2.13,1.23,2.91.65.64,1.5.97,2.41.97.43,0,.85-.09,1.24-.25-.87,3.13-3.58,5.22-4.96,6.28-.17.13-.31.24-.43.34-.12-.1-.27-.21-.43-.34-1.37-1.06-4.07-3.14-4.95-6.25,0,0,0,0,0,0,.37.14.76.21,1.16.22.91,0,1.76-.34,2.41-.97.79-.77,1.22-1.8,1.24-2.91,0-1.1-.41-2.14-1.18-2.93-.99-1-2.29-1.51-3.6-1.51s-2.55.48-3.53,1.44c-1.2,1.18-1.86,2.76-1.85,4.44m-1.07,14.33c-.58,1.05-.97,1.74-.97,2.9,0,.93.76,1.69,1.69,1.69s1.69-.76,1.69-1.69c0-1.16-.39-1.85-.97-2.9-.22-.4-.47-.84-.72-1.36-.25.52-.49.96-.72,1.36m-20.15-14.31h0v-.02c0-1.44.55-2.79,1.58-3.79,1.62-1.6,4.25-1.57,5.84.05.6.61.93,1.42.92,2.28,0,.86-.35,1.66-.96,2.26-.47.46-1.08.71-1.74.71h-.02c-.66,0-1.28-.27-1.75-.74-.73-.75-.72-1.95.02-2.68.56-.55,1.46-.54,2.01.02.97.9-.09,2.55-.09,2.55.27-.07.52-.22.72-.41.77-.76.78-2,.03-2.77-.9-.92-2.38-.93-3.3-.03-1.1,1.08-1.12,2.86-.04,3.97.05.05.1.1.16.14,0,0,0,0,0,0,.65,3.91,3.89,6.41,5.47,7.63.31.24.57.44.68.56l.3.31.3-.31c.11-.12.38-.32.68-.56,1.59-1.23,4.87-3.75,5.48-7.71,0,0,0,0,0,0,.02-.02.05-.04.07-.06,1.08-1.1,1.07-2.88-.04-3.97-.92-.9-2.4-.89-3.3.03-.76.77-.75,2.01.03,2.77.2.2.45.34.72.41,0,0-1.06-1.64-.09-2.55.55-.56,1.45-.57,2.01-.02.74.73.76,1.93.02,2.68-.46.47-1.08.74-1.75.74h-.02c-.65,0-1.27-.25-1.74-.71-.61-.6-.95-1.41-.96-2.26,0-.86.32-1.67.92-2.28,1.6-1.63,4.22-1.65,5.84-.05,1.03,1.01,1.59,2.35,1.58,3.79h0v.02c.15,4.09-2.76,6.94-5.57,9.69-1.57,1.54-3.19,3.12-4.23,4.9-1.04-1.78-2.66-3.37-4.23-4.9-2.81-2.75-5.72-5.6-5.57-9.69m-.91-.02c-.16,4.49,2.89,7.48,5.84,10.37,1.36,1.34,2.67,2.62,3.63,4,.83,1.19,1.24,3.14,1.24,3.14,0,0,.41-1.95,1.24-3.14.96-1.38,2.26-2.66,3.63-4,2.95-2.89,6-5.88,5.84-10.37,0-1.68-.65-3.26-1.85-4.44-.98-.96-2.26-1.44-3.53-1.44s-2.61.5-3.6,1.51c-.77.79-1.19,1.83-1.18,2.93,0,1.1.45,2.13,1.23,2.91.65.64,1.5.97,2.41.97.43,0,.85-.09,1.24-.25-.87,3.13-3.58,5.22-4.96,6.28-.17.13-.31.24-.43.34-.12-.1-.27-.21-.43-.34-1.37-1.06-4.07-3.14-4.95-6.25t0,0c.37.14.75.21,1.16.22.91,0,1.76-.34,2.41-.97.79-.77,1.22-1.8,1.23-2.91.01-1.1-.41-2.14-1.18-2.93-.99-1-2.29-1.51-3.6-1.51s-2.55.48-3.53,1.44c-1.2,1.18-1.86,2.76-1.85,4.44m-1.07,14.33c-.58,1.05-.97,1.74-.97,2.9,0,.93.76,1.69,1.69,1.69s1.69-.76,1.69-1.69c0-1.16-.39-1.85-.97-2.9-.22-.4-.47-.84-.72-1.36-.25.52-.49.96-.72,1.36m-20.15-14.31h0v-.02c0-1.44.55-2.79,1.58-3.79,1.62-1.6,4.25-1.57,5.84.05.6.61.93,1.42.92,2.28,0,.86-.35,1.66-.96,2.26-.47.46-1.08.71-1.74.71h-.02c-.66,0-1.28-.27-1.75-.74-.73-.75-.72-1.95.02-2.68.56-.55,1.46-.54,2.01.02.97.9-.09,2.55-.09,2.55.27-.07.52-.22.72-.41.77-.76.78-2,.02-2.77-.9-.92-2.38-.93-3.3-.03-1.1,1.08-1.12,2.86-.04,3.97.05.05.1.1.16.14t0,0c.65,3.91,3.89,6.41,5.47,7.63.31.24.57.44.68.56l.3.31.3-.31c.11-.12.38-.32.68-.56,1.59-1.23,4.87-3.75,5.48-7.71,0,0,0,0,0,0,.02-.02.05-.04.07-.06,1.08-1.1,1.07-2.88-.04-3.97-.92-.9-2.4-.89-3.3.03-.76.77-.75,2.01.02,2.77.2.2.45.34.72.41,0,0-1.06-1.64-.09-2.55.55-.56,1.45-.57,2.01-.02.74.73.75,1.93.02,2.68-.46.47-1.08.74-1.75.74h-.02c-.65,0-1.27-.25-1.74-.71-.61-.6-.95-1.41-.96-2.26,0-.86.32-1.67.92-2.28,1.6-1.63,4.22-1.65,5.84-.05,1.03,1.01,1.59,2.35,1.58,3.79h0v.02c.15,4.09-2.76,6.94-5.57,9.69-1.57,1.54-3.19,3.12-4.23,4.9-1.04-1.78-2.66-3.37-4.23-4.9-2.81-2.75-5.72-5.6-5.57-9.69m-.91-.02c-.16,4.49,2.89,7.48,5.84,10.37,1.36,1.34,2.67,2.62,3.63,4,.83,1.19,1.24,3.14,1.24,3.14,0,0,.41-1.95,1.24-3.14.96-1.38,2.26-2.66,3.63-4,2.95-2.89,6-5.88,5.84-10.37,0-1.68-.65-3.26-1.85-4.44-.98-.96-2.26-1.44-3.53-1.44s-2.61.5-3.6,1.51c-.77.79-1.19,1.83-1.18,2.93.01,1.1.45,2.13,1.24,2.91.65.64,1.5.97,2.41.97.43,0,.85-.09,1.24-.25-.87,3.13-3.58,5.22-4.96,6.28-.17.13-.31.24-.43.34-.12-.1-.27-.21-.43-.34-1.37-1.06-4.07-3.14-4.95-6.25,0,0,0,0,0,0,.37.14.76.21,1.16.22.91,0,1.76-.34,2.41-.97.79-.77,1.22-1.8,1.23-2.91.01-1.1-.41-2.14-1.18-2.93-.99-1-2.29-1.51-3.6-1.51s-2.55.48-3.53,1.44c-1.2,1.18-1.86,2.76-1.85,4.44m-1.07,14.33c-.58,1.05-.97,1.74-.97,2.9,0,.93.76,1.69,1.69,1.69s1.69-.76,1.69-1.69c0-1.16-.39-1.85-.97-2.9-.22-.4-.47-.84-.72-1.36-.25.52-.49.96-.72,1.36m-20.15-14.31h0v-.02c0-1.44.55-2.79,1.58-3.79,1.63-1.6,4.25-1.57,5.84.05.6.61.93,1.42.92,2.28,0,.86-.35,1.66-.96,2.26-.47.46-1.08.71-1.74.71h-.02c-.66,0-1.28-.27-1.75-.74-.73-.75-.72-1.95.02-2.68.56-.55,1.46-.54,2.01.02.97.9-.09,2.55-.09,2.55.27-.07.52-.22.72-.41.77-.76.78-2,.02-2.77-.9-.92-2.38-.93-3.3-.03-1.1,1.08-1.12,2.86-.04,3.97.05.05.1.1.16.14,0,0,0,0,0,0,.65,3.91,3.89,6.41,5.47,7.63.31.24.57.44.68.56l.3.31.3-.31c.11-.12.38-.32.68-.56,1.59-1.23,4.87-3.75,5.48-7.71t0,0s.05-.04.07-.06c1.08-1.1,1.07-2.88-.04-3.97-.92-.9-2.4-.89-3.3.03-.76.77-.75,2.01.02,2.77.2.2.45.34.72.41,0,0-1.06-1.64-.09-2.55.55-.56,1.45-.57,2.01-.02.75.73.76,1.93.02,2.68-.46.47-1.09.74-1.75.74h-.02c-.65,0-1.27-.25-1.74-.71-.61-.6-.95-1.41-.96-2.26,0-.86.32-1.67.92-2.28,1.6-1.63,4.22-1.65,5.84-.05,1.03,1.01,1.59,2.35,1.58,3.79h0v.02c.15,4.09-2.76,6.94-5.57,9.69-1.57,1.54-3.19,3.12-4.23,4.9-1.04-1.78-2.66-3.37-4.23-4.9-2.81-2.75-5.72-5.6-5.57-9.69m-.91-.02c-.16,4.49,2.89,7.48,5.84,10.37,1.36,1.34,2.67,2.62,3.63,4,.83,1.19,1.24,3.14,1.24,3.14,0,0,.41-1.95,1.24-3.14.96-1.38,2.26-2.66,3.63-4,2.95-2.89,6-5.88,5.84-10.37,0-1.68-.65-3.26-1.85-4.44-.98-.96-2.26-1.44-3.53-1.44s-2.61.5-3.6,1.51c-.77.79-1.19,1.83-1.18,2.93s.45,2.13,1.23,2.91c.65.64,1.5.97,2.41.97.43,0,.85-.09,1.24-.25-.87,3.13-3.58,5.22-4.96,6.28-.17.13-.31.24-.43.34-.12-.1-.27-.21-.43-.34-1.37-1.06-4.07-3.14-4.95-6.25,0,0,0,0,0,0,.37.14.76.21,1.16.22.91,0,1.76-.34,2.41-.97.79-.77,1.22-1.8,1.23-2.91,0-1.1-.41-2.14-1.18-2.93-.99-1-2.29-1.51-3.6-1.51s-2.55.48-3.53,1.44c-1.2,1.18-1.86,2.76-1.85,4.44m-1.07,14.33c-.58,1.05-.97,1.74-.97,2.9,0,.93.76,1.69,1.69,1.69s1.69-.76,1.69-1.69c0-1.16-.39-1.85-.97-2.9-.22-.4-.47-.84-.72-1.36-.25.52-.49.96-.72,1.36m-20.15-14.31h0v-.02c0-1.44.55-2.79,1.58-3.79,1.63-1.6,4.25-1.57,5.84.05.6.61.93,1.42.92,2.28,0,.86-.35,1.66-.96,2.26-.47.46-1.08.71-1.74.71h-.02c-.66,0-1.28-.27-1.75-.74-.73-.75-.72-1.95.02-2.68.56-.55,1.46-.54,2.01.02.97.9-.09,2.55-.09,2.55.27-.07.52-.22.72-.41.77-.76.78-2,.03-2.77-.9-.92-2.38-.93-3.3-.03-1.1,1.08-1.12,2.86-.04,3.97.05.05.1.1.16.14,0,0,0,0,0,0,.65,3.91,3.89,6.41,5.47,7.63.31.24.57.44.68.56l.3.31.3-.31c.11-.12.38-.32.68-.56,1.59-1.23,4.87-3.75,5.48-7.71t0,0s.05-.04.07-.06c1.08-1.1,1.07-2.88-.04-3.97-.92-.9-2.4-.89-3.3.03-.76.77-.75,2.01.02,2.77.2.2.45.34.72.41,0,0-1.06-1.64-.09-2.55.55-.56,1.45-.57,2.01-.02.75.73.76,1.93.02,2.68-.46.47-1.09.74-1.75.74h-.02c-.65,0-1.27-.25-1.74-.71-.61-.6-.95-1.41-.96-2.26,0-.86.32-1.67.92-2.28,1.6-1.63,4.22-1.65,5.84-.05,1.03,1.01,1.59,2.35,1.58,3.79h0s0,.02,0,.02c.15,4.09-2.76,6.94-5.57,9.69-1.57,1.54-3.19,3.12-4.23,4.9-1.04-1.78-2.66-3.37-4.23-4.9-2.81-2.75-5.72-5.6-5.57-9.69m-.91-.02c-.16,4.49,2.89,7.48,5.84,10.37,1.36,1.34,2.67,2.62,3.63,4,.83,1.19,1.24,3.14,1.24,3.14,0,0,.41-1.95,1.24-3.14.96-1.38,2.26-2.66,3.63-4,2.95-2.89,6-5.88,5.84-10.37,0-1.68-.65-3.26-1.85-4.44-.98-.96-2.26-1.44-3.53-1.44s-2.61.5-3.6,1.51c-.77.79-1.19,1.83-1.18,2.93.01,1.1.45,2.13,1.23,2.91.65.64,1.5.97,2.41.97.43,0,.85-.09,1.24-.25-.87,3.13-3.58,5.22-4.96,6.28-.17.13-.31.24-.43.34-.12-.1-.27-.21-.43-.34-1.37-1.06-4.07-3.14-4.95-6.25,0,0,0,0,0,0,.37.14.75.21,1.16.22.91,0,1.76-.34,2.41-.97.79-.77,1.22-1.8,1.24-2.91,0-1.1-.41-2.14-1.18-2.93-.99-1-2.29-1.51-3.6-1.51s-2.55.48-3.53,1.44c-1.2,1.18-1.86,2.76-1.85,4.44m-1.07,14.33c-.58,1.05-.97,1.74-.97,2.9,0,.93.76,1.69,1.69,1.69s1.69-.76,1.69-1.69c0-1.16-.39-1.85-.97-2.9-.22-.4-.47-.84-.72-1.36-.25.52-.49.96-.72,1.36m-20.15-14.31h0v-.02c0-1.44.55-2.79,1.58-3.79,1.62-1.6,4.25-1.57,5.84.05.6.61.93,1.42.92,2.28,0,.86-.35,1.66-.96,2.26-.47.46-1.08.71-1.74.71h-.02c-.66,0-1.28-.27-1.75-.74-.73-.75-.72-1.95.02-2.68.56-.55,1.46-.54,2.01.02.97.9-.09,2.55-.09,2.55.27-.07.52-.22.72-.41.77-.76.78-2,.03-2.77-.9-.92-2.38-.93-3.3-.03-1.1,1.08-1.12,2.86-.04,3.97.05.05.1.1.16.14t0,0c.65,3.91,3.89,6.41,5.47,7.63.31.24.57.44.68.56l.3.31.3-.31c.11-.12.38-.32.68-.56,1.59-1.23,4.87-3.75,5.49-7.71,0,0,0,0,0,0,.02-.02.05-.04.07-.06,1.08-1.1,1.07-2.88-.04-3.97-.92-.9-2.4-.89-3.3.03-.76.77-.75,2.01.03,2.77.2.2.45.34.72.41,0,0-1.06-1.64-.09-2.55.55-.56,1.45-.57,2.01-.02.74.73.76,1.93.02,2.68-.46.47-1.08.74-1.75.74h-.02c-.65,0-1.27-.25-1.74-.71-.61-.6-.95-1.41-.96-2.26,0-.86.32-1.67.92-2.28,1.6-1.63,4.22-1.65,5.84-.05,1.03,1.01,1.59,2.35,1.58,3.79h0v.02c.15,4.09-2.76,6.94-5.57,9.69-1.57,1.54-3.19,3.12-4.23,4.9-1.04-1.78-2.66-3.37-4.23-4.9-2.81-2.75-5.72-5.6-5.57-9.69m-.91-.02c-.16,4.49,2.89,7.48,5.84,10.37,1.36,1.34,2.67,2.62,3.63,4,.83,1.19,1.24,3.14,1.24,3.14,0,0,.41-1.95,1.24-3.14.96-1.38,2.26-2.66,3.63-4,2.95-2.89,6-5.88,5.84-10.37,0-1.68-.65-3.26-1.85-4.44-.98-.96-2.26-1.44-3.53-1.44s-2.61.5-3.6,1.51c-.77.79-1.19,1.83-1.18,2.93,0,1.1.45,2.13,1.23,2.91.65.64,1.5.97,2.41.97.43,0,.85-.09,1.24-.25-.87,3.13-3.58,5.22-4.96,6.28-.17.13-.31.24-.43.34-.12-.1-.27-.21-.43-.34-1.37-1.06-4.07-3.14-4.95-6.25,0,0,0,0,0,0,.37.14.75.21,1.16.22.91,0,1.76-.34,2.41-.97.79-.77,1.22-1.8,1.23-2.91s-.41-2.14-1.18-2.93c-.99-1-2.29-1.51-3.6-1.51s-2.55.48-3.53,1.44c-1.2,1.18-1.86,2.76-1.85,4.44m-1.07,14.33c-.58,1.05-.97,1.74-.97,2.9,0,.93.76,1.69,1.69,1.69s1.69-.76,1.69-1.69c0-1.16-.39-1.85-.97-2.9-.22-.4-.47-.84-.72-1.36-.25.52-.49.96-.72,1.36m-20.15-14.31h0v-.02c0-1.44.55-2.79,1.58-3.79,1.62-1.6,4.25-1.57,5.84.05.6.61.93,1.42.92,2.28,0,.86-.35,1.66-.96,2.26-.47.46-1.08.71-1.74.71h-.02c-.66,0-1.28-.27-1.75-.74-.73-.75-.72-1.95.02-2.68.56-.55,1.46-.54,2.01.02.97.9-.09,2.55-.09,2.55.27-.07.52-.22.72-.41.77-.76.78-2,.02-2.77-.9-.92-2.38-.93-3.3-.03-1.1,1.08-1.12,2.86-.04,3.97.05.05.1.1.16.14t0,0c.65,3.91,3.89,6.41,5.47,7.63.31.24.57.44.68.56l.3.31.3-.31c.11-.12.38-.32.68-.56,1.59-1.23,4.87-3.75,5.48-7.71h0s.04-.04.07-.06c1.08-1.1,1.07-2.88-.04-3.97-.92-.9-2.4-.89-3.3.03-.76.77-.75,2.01.02,2.77.2.2.45.34.72.41,0,0-1.06-1.64-.09-2.55.55-.56,1.45-.57,2.01-.02.75.73.76,1.93.02,2.68-.46.47-1.09.74-1.75.74h-.02c-.66,0-1.27-.25-1.74-.71-.61-.6-.95-1.41-.96-2.26,0-.86.32-1.67.92-2.28,1.6-1.63,4.22-1.65,5.84-.05,1.03,1.01,1.59,2.35,1.58,3.79h0v.02c.15,4.09-2.76,6.94-5.57,9.69-1.57,1.54-3.19,3.12-4.23,4.9-1.04-1.78-2.66-3.37-4.23-4.9-2.81-2.75-5.72-5.6-5.57-9.69m-.91-.02c-.16,4.49,2.89,7.48,5.84,10.37,1.36,1.34,2.67,2.62,3.63,4,.83,1.19,1.24,3.14,1.24,3.14,0,0,.41-1.95,1.24-3.14.96-1.38,2.26-2.66,3.63-4,2.95-2.89,6-5.88,5.84-10.37,0-1.68-.65-3.26-1.85-4.44-.98-.96-2.26-1.44-3.53-1.44s-2.61.5-3.6,1.51c-.77.79-1.19,1.83-1.18,2.93s.45,2.13,1.24,2.91c.65.64,1.5.97,2.41.97.43,0,.85-.09,1.24-.25-.87,3.13-3.58,5.22-4.96,6.28-.17.13-.31.24-.43.34-.12-.1-.27-.21-.43-.34-1.37-1.06-4.07-3.14-4.95-6.25,0,0,0,0,0,0,.37.14.75.21,1.16.22.91,0,1.76-.34,2.41-.97.79-.77,1.22-1.8,1.23-2.91s-.41-2.14-1.18-2.93c-.99-1-2.29-1.51-3.6-1.51s-2.55.48-3.53,1.44c-1.2,1.18-1.86,2.76-1.85,4.44m-1.07,14.33c-.58,1.05-.97,1.74-.97,2.9,0,.93.76,1.69,1.69,1.69s1.69-.76,1.69-1.69c0-1.16-.39-1.85-.97-2.9-.22-.4-.47-.84-.72-1.36-.25.52-.49.96-.72,1.36m-20.15-14.31h0v-.02c0-1.44.55-2.79,1.58-3.79,1.63-1.6,4.25-1.57,5.84.05.6.61.93,1.42.92,2.28,0,.86-.35,1.66-.96,2.26-.47.46-1.08.71-1.74.71h-.02c-.66,0-1.28-.27-1.75-.74-.73-.75-.72-1.95.02-2.68.56-.55,1.46-.54,2.01.02.97.9-.09,2.55-.09,2.55.27-.07.52-.22.72-.41.77-.76.78-2,.02-2.77-.9-.92-2.38-.93-3.3-.03-1.1,1.08-1.12,2.86-.04,3.97.05.05.1.1.16.14,0,0,0,0,0,0,.65,3.91,3.89,6.41,5.47,7.63.31.24.57.44.68.56l.3.31.3-.31c.11-.12.38-.32.68-.56,1.59-1.23,4.87-3.75,5.48-7.71h0s.04-.04.07-.06c1.08-1.1,1.07-2.88-.04-3.97-.92-.9-2.4-.89-3.3.03-.76.77-.75,2.01.02,2.77.2.2.45.34.72.41,0,0-1.06-1.64-.09-2.55.55-.56,1.45-.57,2.01-.02.75.73.76,1.93.02,2.68-.46.47-1.09.74-1.75.74h-.02c-.65,0-1.27-.25-1.74-.71-.61-.6-.95-1.41-.96-2.26,0-.86.32-1.67.92-2.28,1.6-1.63,4.22-1.65,5.84-.05,1.03,1.01,1.59,2.35,1.58,3.79h0s0,.02,0,.02c.15,4.09-2.76,6.94-5.57,9.69-1.57,1.54-3.19,3.12-4.23,4.9-1.04-1.78-2.66-3.37-4.23-4.9-2.81-2.75-5.72-5.6-5.57-9.69m-.91-.02c-.16,4.49,2.89,7.48,5.84,10.37,1.36,1.34,2.67,2.62,3.63,4,.83,1.19,1.24,3.14,1.24,3.14,0,0,.41-1.95,1.24-3.14.96-1.38,2.26-2.66,3.63-4,2.95-2.89,6-5.88,5.84-10.37,0-1.68-.65-3.26-1.85-4.44-.98-.96-2.26-1.44-3.53-1.44s-2.61.5-3.6,1.51c-.77.79-1.19,1.83-1.18,2.93s.45,2.13,1.23,2.91c.65.64,1.5.97,2.41.97.43,0,.85-.09,1.24-.25-.87,3.13-3.58,5.22-4.96,6.28-.17.13-.31.24-.43.34-.12-.1-.27-.21-.43-.34-1.37-1.06-4.07-3.14-4.95-6.25,0,0,0,0,0,0,.37.14.75.21,1.16.22.91,0,1.76-.34,2.41-.97.79-.77,1.22-1.8,1.23-2.91,0-1.1-.41-2.14-1.18-2.93-.99-1-2.29-1.51-3.6-1.51s-2.55.48-3.53,1.44c-1.2,1.18-1.86,2.76-1.85,4.44m-1.07,14.33c-.58,1.05-.97,1.74-.97,2.9,0,.93.76,1.69,1.69,1.69s1.69-.76,1.69-1.69c0-1.16-.39-1.85-.97-2.9-.22-.4-.47-.84-.72-1.36-.25.52-.49.96-.72,1.36m-20.15-14.31h0v-.02c0-1.44.55-2.79,1.58-3.79,1.63-1.6,4.25-1.57,5.84.05.6.61.93,1.42.92,2.28,0,.86-.35,1.66-.96,2.26-.47.46-1.08.71-1.74.71h-.02c-.66,0-1.28-.27-1.75-.74-.73-.75-.72-1.95.02-2.68.56-.55,1.46-.54,2.01.02.97.9-.09,2.55-.09,2.55.27-.07.52-.22.72-.41.77-.76.78-2,.02-2.77-.9-.92-2.38-.93-3.3-.03-1.1,1.08-1.12,2.86-.04,3.97.05.05.1.1.16.14,0,0,0,0,0,0,.65,3.91,3.89,6.41,5.47,7.63.31.24.57.44.68.56l.3.31.3-.31c.11-.12.38-.32.68-.56,1.59-1.23,4.87-3.75,5.48-7.71h0s.04-.04.07-.06c1.08-1.1,1.07-2.88-.04-3.97-.92-.9-2.4-.89-3.3.03-.76.77-.75,2.01.02,2.77.2.2.45.34.72.41,0,0-1.06-1.64-.09-2.55.55-.56,1.45-.57,2.01-.02.74.73.76,1.93.02,2.68-.46.47-1.09.74-1.75.74h-.02c-.65,0-1.27-.25-1.74-.71-.61-.6-.95-1.41-.96-2.26,0-.86.32-1.67.92-2.28,1.6-1.63,4.22-1.65,5.84-.05,1.03,1.01,1.59,2.35,1.58,3.79h0s0,.02,0,.02c.15,4.09-2.76,6.94-5.57,9.69-1.57,1.54-3.19,3.12-4.23,4.9-1.04-1.78-2.66-3.37-4.23-4.9-2.81-2.75-5.72-5.6-5.57-9.69m-.91-.02c-.16,4.49,2.89,7.48,5.84,10.37,1.36,1.34,2.67,2.62,3.63,4,.83,1.19,1.24,3.14,1.24,3.14,0,0,.41-1.95,1.24-3.14.96-1.38,2.26-2.66,3.63-4,2.95-2.89,6-5.88,5.84-10.37,0-1.68-.65-3.26-1.85-4.44-.98-.96-2.26-1.44-3.53-1.44s-2.61.5-3.6,1.51c-.77.79-1.19,1.83-1.18,2.93,0,1.1.45,2.13,1.23,2.91.65.64,1.5.97,2.41.97.43,0,.85-.09,1.24-.25-.87,3.13-3.58,5.22-4.96,6.28-.16.13-.31.24-.43.34-.12-.1-.27-.21-.43-.34-1.37-1.06-4.07-3.14-4.95-6.25,0,0,0,0,0,0,.37.14.76.21,1.16.22.91,0,1.76-.34,2.41-.97.79-.77,1.22-1.8,1.24-2.91,0-1.1-.41-2.14-1.18-2.93-.99-1-2.29-1.51-3.6-1.51s-2.55.48-3.53,1.44c-1.2,1.18-1.86,2.76-1.85,4.44m-1.07,14.33c-.58,1.05-.97,1.74-.97,2.9,0,.93.76,1.69,1.69,1.69s1.69-.76,1.69-1.69c0-1.16-.39-1.85-.97-2.9-.22-.4-.47-.84-.72-1.36-.25.52-.49.96-.72,1.36m-20.15-14.31h0s0-.02,0-.02c0-1.44.55-2.79,1.58-3.79,1.62-1.6,4.25-1.57,5.84.05.6.61.93,1.42.92,2.28,0,.86-.35,1.66-.96,2.26-.47.46-1.08.71-1.74.71h-.02c-.66,0-1.28-.27-1.75-.74-.73-.75-.72-1.95.02-2.68.56-.55,1.46-.54,2.01.02.97.9-.09,2.55-.09,2.55.27-.07.52-.22.72-.41.77-.76.78-2,.02-2.77-.9-.92-2.38-.93-3.3-.03-1.1,1.08-1.12,2.86-.04,3.97.05.05.1.1.16.14h0c.65,3.91,3.89,6.41,5.47,7.63.31.24.57.44.68.56l.3.31.3-.31c.11-.12.38-.32.68-.56,1.59-1.23,4.87-3.75,5.49-7.71,0,0,0,0,0,0,.02-.02.04-.04.07-.06,1.08-1.1,1.07-2.88-.04-3.97-.92-.9-2.4-.89-3.3.03-.76.77-.75,2.01.02,2.77.2.2.45.34.72.41,0,0-1.06-1.64-.09-2.55.55-.56,1.45-.57,2.01-.02.75.73.76,1.93.02,2.68-.46.47-1.09.74-1.75.74h-.02c-.65,0-1.27-.25-1.74-.71-.61-.6-.95-1.41-.96-2.26,0-.86.32-1.67.92-2.28,1.6-1.63,4.22-1.65,5.84-.05,1.03,1.01,1.59,2.35,1.58,3.79h0v.02c.15,4.09-2.76,6.94-5.57,9.69-1.57,1.54-3.19,3.12-4.23,4.9-1.04-1.78-2.66-3.37-4.23-4.9-2.81-2.75-5.72-5.6-5.57-9.69m-.91-.02c-.16,4.49,2.89,7.48,5.84,10.37,1.36,1.34,2.67,2.62,3.63,4,.83,1.19,1.24,3.14,1.24,3.14,0,0,.41-1.95,1.24-3.14.96-1.38,2.26-2.66,3.63-4,2.95-2.89,6-5.88,5.84-10.37,0-1.68-.65-3.26-1.85-4.44-.98-.96-2.26-1.44-3.53-1.44s-2.61.5-3.6,1.51c-.77.79-1.19,1.83-1.18,2.93.01,1.1.45,2.13,1.24,2.91.65.64,1.5.97,2.41.97.43,0,.85-.09,1.24-.25-.87,3.13-3.58,5.22-4.96,6.28-.16.13-.31.24-.43.34-.12-.1-.27-.21-.43-.34-1.37-1.06-4.07-3.14-4.95-6.25,0,0,0,0,0,0,.37.14.75.21,1.16.22.91,0,1.76-.34,2.41-.97.79-.77,1.22-1.8,1.23-2.91.01-1.1-.41-2.14-1.18-2.93-.99-1-2.29-1.51-3.6-1.51s-2.55.48-3.53,1.44c-1.2,1.18-1.86,2.76-1.85,4.44m-1.07,14.33c-.58,1.05-.97,1.74-.97,2.9,0,.93.76,1.69,1.69,1.69s1.69-.76,1.69-1.69c0-1.16-.39-1.85-.97-2.9-.22-.4-.47-.84-.72-1.36-.25.52-.49.96-.72,1.36m-20.15-14.31h0v-.02c0-1.44.55-2.79,1.58-3.79,1.63-1.6,4.25-1.57,5.84.05.6.61.93,1.42.92,2.28,0,.86-.35,1.66-.96,2.26-.47.46-1.08.71-1.74.71h-.02c-.66,0-1.28-.27-1.75-.74-.73-.75-.72-1.95.02-2.68.56-.55,1.46-.54,2.01.02.97.9-.09,2.55-.09,2.55.27-.07.52-.22.72-.41.77-.76.78-2,.02-2.77-.9-.92-2.38-.93-3.3-.03-1.1,1.08-1.12,2.86-.04,3.97.05.05.1.1.16.14t0,0c.65,3.91,3.89,6.41,5.47,7.63.31.24.57.44.68.56l.3.31.3-.31c.11-.12.38-.32.68-.56,1.59-1.23,4.87-3.75,5.48-7.71h0s.04-.04.07-.06c1.08-1.1,1.07-2.88-.04-3.97-.92-.9-2.4-.89-3.3.03-.76.77-.75,2.01.02,2.77.2.2.45.34.72.41,0,0-1.06-1.64-.09-2.55.55-.56,1.45-.57,2.01-.02.75.73.76,1.93.02,2.68-.46.47-1.09.74-1.75.74h-.02c-.65,0-1.27-.25-1.74-.71-.61-.6-.95-1.41-.96-2.26,0-.86.32-1.67.92-2.28,1.6-1.63,4.22-1.65,5.84-.05,1.03,1.01,1.59,2.35,1.58,3.79h0v.02c.15,4.09-2.76,6.94-5.57,9.69-1.57,1.54-3.19,3.12-4.23,4.9-1.04-1.78-2.66-3.37-4.23-4.9-2.81-2.75-5.72-5.6-5.57-9.69m-.91-.02c-.16,4.49,2.89,7.48,5.84,10.37,1.36,1.34,2.67,2.62,3.63,4,.83,1.19,1.24,3.14,1.24,3.14,0,0,.41-1.95,1.24-3.14.96-1.38,2.26-2.66,3.63-4,2.95-2.89,6-5.88,5.84-10.37,0-1.68-.65-3.26-1.85-4.44-.98-.96-2.26-1.44-3.53-1.44s-2.61.5-3.6,1.51c-.77.79-1.19,1.83-1.18,2.93s.45,2.13,1.23,2.91c.65.64,1.5.97,2.41.97.43,0,.85-.09,1.24-.25-.87,3.13-3.58,5.22-4.96,6.28-.16.13-.31.24-.43.34-.12-.1-.27-.21-.43-.34-1.37-1.06-4.07-3.14-4.95-6.25,0,0,0,0,0,0,.37.14.75.21,1.16.22.91,0,1.76-.34,2.41-.97.79-.77,1.22-1.8,1.23-2.91,0-1.1-.41-2.14-1.18-2.93-.99-1-2.29-1.51-3.6-1.51s-2.55.48-3.53,1.44c-1.2,1.18-1.86,2.76-1.85,4.44m-1.07,14.33c-.58,1.05-.97,1.74-.97,2.9,0,.93.76,1.69,1.69,1.69s1.69-.76,1.69-1.69c0-1.16-.39-1.85-.97-2.9-.22-.4-.47-.84-.72-1.36-.25.52-.49.96-.72,1.36m-20.15-14.31h0v-.02c0-1.44.55-2.79,1.58-3.79,1.63-1.6,4.25-1.57,5.84.05.6.61.93,1.42.92,2.28,0,.86-.35,1.66-.96,2.26-.47.46-1.08.71-1.74.71h-.02c-.66,0-1.28-.27-1.75-.74-.73-.75-.72-1.95.02-2.68.56-.55,1.46-.54,2.01.02.97.9-.09,2.55-.09,2.55.27-.07.52-.22.72-.41.77-.76.78-2,.02-2.77-.9-.92-2.38-.93-3.3-.03-1.1,1.08-1.12,2.86-.04,3.97.05.05.1.1.16.14,0,0,0,0,0,0,.65,3.91,3.89,6.41,5.47,7.63.31.24.57.44.68.56l.3.31.3-.31c.11-.12.38-.32.68-.56,1.59-1.23,4.87-3.75,5.48-7.71h0s.04-.04.07-.06c1.08-1.1,1.07-2.88-.04-3.97-.92-.9-2.4-.89-3.3.03-.76.77-.75,2.01.02,2.77.2.2.45.34.72.41,0,0-1.06-1.64-.09-2.55.55-.56,1.45-.57,2.01-.02.74.73.76,1.93.02,2.68-.46.47-1.09.74-1.75.74h-.02c-.65,0-1.27-.25-1.74-.71-.61-.6-.95-1.41-.96-2.26,0-.86.32-1.67.92-2.28,1.6-1.63,4.22-1.65,5.84-.05,1.03,1.01,1.59,2.35,1.58,3.79h0s0,.02,0,.02c.15,4.09-2.76,6.94-5.57,9.69-1.57,1.54-3.19,3.12-4.23,4.9-1.04-1.78-2.66-3.37-4.23-4.9-2.81-2.75-5.72-5.6-5.57-9.69m-.91-.02c-.16,4.49,2.89,7.48,5.84,10.37,1.36,1.34,2.67,2.62,3.63,4,.83,1.19,1.24,3.14,1.24,3.14,0,0,.41-1.95,1.24-3.14.96-1.38,2.26-2.66,3.63-4,2.95-2.89,6-5.88,5.84-10.37,0-1.68-.65-3.26-1.85-4.44-.98-.96-2.26-1.44-3.53-1.44s-2.61.5-3.6,1.51c-.77.79-1.19,1.83-1.18,2.93s.45,2.13,1.23,2.91c.65.64,1.5.97,2.41.97.43,0,.85-.09,1.24-.25-.87,3.13-3.58,5.22-4.96,6.28-.17.13-.31.24-.43.34-.12-.1-.27-.21-.43-.34-1.37-1.06-4.07-3.14-4.95-6.25,0,0,0,0,0,0,.37.14.75.21,1.16.22.91,0,1.76-.34,2.41-.97.79-.77,1.22-1.8,1.24-2.91,0-1.1-.41-2.14-1.18-2.93-.99-1-2.29-1.51-3.6-1.51s-2.55.48-3.53,1.44c-1.2,1.18-1.86,2.76-1.85,4.44m-1.07,14.33c-.58,1.05-.97,1.74-.97,2.9,0,.93.76,1.69,1.69,1.69s1.69-.76,1.69-1.69c0-1.16-.39-1.85-.97-2.9-.22-.4-.47-.84-.72-1.36-.25.52-.49.96-.72,1.36M1.46,17.03h0v-.02c0-1.44.55-2.79,1.58-3.79,1.62-1.6,4.25-1.57,5.84.05.6.61.93,1.42.92,2.28,0,.86-.35,1.66-.96,2.26-.47.46-1.08.71-1.74.71h-.02c-.66,0-1.28-.27-1.75-.74-.73-.75-.72-1.95.02-2.68.56-.55,1.46-.54,2.01.02.97.9-.09,2.55-.09,2.55.27-.07.52-.22.72-.41.77-.76.78-2,.03-2.77-.9-.92-2.38-.93-3.3-.03-1.1,1.08-1.12,2.86-.04,3.97.05.05.1.1.16.14,0,0,0,0,0,0,.65,3.91,3.89,6.41,5.47,7.63.31.24.57.44.68.56l.3.31.3-.31c.11-.12.38-.32.68-.56,1.59-1.23,4.87-3.75,5.48-7.71,0,0,0,0,0,0,.02-.02.05-.04.07-.06,1.08-1.1,1.07-2.88-.04-3.97-.92-.9-2.4-.89-3.3.03-.76.77-.75,2.01.03,2.77.2.2.45.34.72.41,0,0-1.06-1.64-.09-2.55.55-.56,1.45-.57,2.01-.02.74.73.76,1.93.02,2.68-.46.47-1.08.74-1.75.74h-.02c-.65,0-1.27-.25-1.74-.71-.61-.6-.95-1.41-.96-2.26,0-.86.32-1.67.92-2.28,1.6-1.63,4.22-1.65,5.84-.05,1.03,1.01,1.59,2.35,1.58,3.79h0s0,.02,0,.02c.15,4.09-2.76,6.94-5.57,9.69-1.57,1.54-3.19,3.12-4.23,4.9-1.04-1.78-2.66-3.37-4.23-4.9-2.81-2.75-5.72-5.6-5.57-9.69m-.91-.02c-.16,4.49,2.89,7.48,5.84,10.37,1.36,1.34,2.67,2.62,3.63,4,.83,1.19,1.24,3.14,1.24,3.14,0,0,.41-1.95,1.24-3.14.96-1.38,2.26-2.66,3.63-4,2.95-2.89,6-5.88,5.84-10.37,0-1.68-.65-3.26-1.85-4.44-.98-.96-2.26-1.44-3.53-1.44s-2.61.5-3.6,1.51c-.77.79-1.19,1.83-1.18,2.93,0,1.1.45,2.13,1.23,2.91.65.64,1.5.97,2.41.97.43,0,.85-.09,1.24-.25-.87,3.13-3.58,5.22-4.96,6.28-.17.13-.31.24-.43.34-.12-.1-.27-.21-.43-.34-1.37-1.06-4.07-3.14-4.95-6.25,0,0,0,0,0,0,.37.14.75.21,1.16.22.91,0,1.76-.34,2.41-.97.79-.77,1.22-1.8,1.23-2.91s-.41-2.14-1.18-2.93c-.99-1-2.29-1.51-3.6-1.51s-2.55.48-3.53,1.44c-1.2,1.18-1.86,2.76-1.85,4.44m.36,14.33c-.22-.4-.47-.84-.72-1.36v5.95c.93,0,1.69-.76,1.69-1.69,0-1.16-.39-1.85-.97-2.9M.2,6.04h309.93v-2.73H.2v2.73Zm0,3.3h309.93v-.91H.2v.91Zm309.93,26.59v-5.95c-.25.52-.49.96-.72,1.36-.58,1.05-.97,1.74-.97,2.9,0,.93.76,1.69,1.69,1.69m0-29.89h309.93v-2.73h-309.93v2.73Zm0,3.3h309.93v-.91h-309.93v.91Zm309.93,26.59v-5.95c-.25.52-.49.96-.72,1.36-.58,1.05-.97,1.74-.97,2.9,0,.93.76,1.69,1.69,1.69"></path>
  <path class="cls-1" d="m1218.93,17.13h0v-.02c0-1.44.55-2.79,1.58-3.79,1.63-1.6,4.25-1.57,5.84.05.6.61.93,1.42.92,2.28,0,.86-.35,1.66-.96,2.26-.47.46-1.08.71-1.74.71h-.02c-.66,0-1.28-.27-1.75-.74-.73-.75-.72-1.95.02-2.68.56-.55,1.46-.54,2.01.02.97.9-.09,2.55-.09,2.55.27-.07.52-.22.72-.41.77-.76.78-2,.02-2.77-.9-.92-2.38-.93-3.3-.03-1.1,1.08-1.12,2.86-.04,3.97.05.05.1.1.16.14,0,0,0,0,0,0,.65,3.91,3.89,6.41,5.47,7.63.31.24.57.44.68.56l.3.31.3-.31c.11-.12.38-.32.68-.56,1.59-1.23,4.87-3.75,5.48-7.71.02-.02.04-.04.07-.06,1.08-1.1,1.07-2.88-.04-3.97-.92-.9-2.4-.89-3.3.03-.76.77-.75,2.01.03,2.77.2.2.45.34.72.41,0,0-1.06-1.64-.09-2.55.55-.56,1.45-.57,2.01-.02.75.73.76,1.93.02,2.68-.46.47-1.09.74-1.75.74h-.02c-.65,0-1.27-.25-1.74-.71-.61-.6-.95-1.41-.96-2.26,0-.86.32-1.67.92-2.28,1.6-1.63,4.22-1.65,5.84-.05,1.03,1.01,1.59,2.35,1.58,3.79h0s0,.02,0,.02c.15,4.09-2.76,6.94-5.57,9.69-1.57,1.54-3.19,3.12-4.23,4.9-1.04-1.78-2.66-3.37-4.23-4.9-2.81-2.75-5.72-5.6-5.57-9.69m-.91-.02c-.16,4.49,2.89,7.48,5.84,10.37,1.36,1.34,2.67,2.62,3.63,4,.83,1.19,1.24,3.14,1.24,3.14,0,0,.41-1.95,1.24-3.14.96-1.38,2.26-2.66,3.63-4,2.95-2.89,6-5.88,5.84-10.37,0-1.68-.65-3.26-1.85-4.44-.98-.96-2.26-1.44-3.53-1.44s-2.61.5-3.6,1.51c-.77.79-1.19,1.83-1.18,2.93s.45,2.13,1.23,2.91c.65.64,1.5.97,2.41.97.43,0,.85-.09,1.24-.25-.87,3.13-3.58,5.22-4.96,6.28-.16.13-.31.24-.43.34-.12-.1-.27-.21-.43-.34-1.37-1.06-4.07-3.14-4.95-6.25,0,0,0,0,0,0,.37.14.76.21,1.16.22.91,0,1.76-.34,2.41-.97.79-.77,1.22-1.8,1.24-2.91,0-1.1-.41-2.14-1.18-2.93-.99-1-2.29-1.51-3.6-1.51s-2.55.48-3.53,1.44c-1.2,1.18-1.86,2.76-1.85,4.44m-1.07,14.33c-.58,1.05-.97,1.74-.97,2.9,0,.93.76,1.69,1.69,1.69s1.69-.76,1.69-1.69c0-1.16-.39-1.85-.97-2.9-.22-.4-.47-.84-.72-1.36-.25.52-.49.96-.72,1.36m-20.15-14.31h0v-.02c0-1.44.55-2.79,1.58-3.79,1.62-1.6,4.25-1.57,5.84.05.6.61.93,1.42.92,2.28,0,.86-.35,1.66-.96,2.26-.47.46-1.08.71-1.74.71h-.02c-.66,0-1.28-.27-1.75-.74-.73-.75-.72-1.95.02-2.68.56-.55,1.46-.54,2.01.02.97.9-.09,2.55-.09,2.55.27-.07.52-.22.72-.41.77-.76.78-2,.02-2.77-.9-.92-2.38-.93-3.3-.03-1.1,1.08-1.12,2.86-.04,3.97.05.05.1.1.16.14,0,0,0,0,0,0,.65,3.91,3.89,6.41,5.47,7.63.31.24.57.44.68.56l.3.31.3-.31c.11-.12.38-.32.68-.56,1.59-1.23,4.87-3.75,5.48-7.71,0,0,0,0,0,0,.02-.02.05-.04.07-.06,1.08-1.1,1.07-2.88-.04-3.97-.92-.9-2.4-.89-3.3.03-.76.77-.75,2.01.03,2.77.2.2.45.34.72.41,0,0-1.06-1.64-.09-2.55.55-.56,1.45-.57,2.01-.02.74.73.76,1.93.02,2.68-.46.47-1.08.74-1.75.74h-.02c-.65,0-1.27-.25-1.74-.71-.61-.6-.95-1.41-.96-2.26,0-.86.32-1.67.92-2.28,1.6-1.63,4.22-1.65,5.84-.05,1.03,1.01,1.59,2.35,1.58,3.79h0s0,.02,0,.02c.15,4.09-2.76,6.94-5.57,9.69-1.57,1.54-3.19,3.12-4.23,4.9-1.04-1.78-2.66-3.37-4.23-4.9-2.81-2.75-5.72-5.6-5.57-9.69m-.91-.02c-.16,4.49,2.89,7.48,5.84,10.37,1.36,1.34,2.67,2.62,3.63,4,.83,1.19,1.24,3.14,1.24,3.14,0,0,.41-1.95,1.24-3.14.96-1.38,2.26-2.66,3.63-4,2.95-2.89,6-5.88,5.84-10.37,0-1.68-.65-3.26-1.85-4.44-.98-.96-2.26-1.44-3.53-1.44s-2.61.5-3.6,1.51c-.77.79-1.19,1.83-1.18,2.93,0,1.1.45,2.13,1.23,2.91.65.64,1.5.97,2.41.97.43,0,.85-.09,1.24-.25-.87,3.13-3.58,5.22-4.96,6.28-.17.13-.31.24-.43.34-.12-.1-.27-.21-.43-.34-1.37-1.06-4.07-3.14-4.95-6.25,0,0,0,0,0,0,.37.14.76.21,1.16.22.91,0,1.76-.34,2.41-.97.79-.77,1.22-1.8,1.23-2.91.01-1.1-.41-2.14-1.18-2.93-.99-1-2.29-1.51-3.6-1.51s-2.55.48-3.53,1.44c-1.2,1.18-1.86,2.76-1.85,4.44m-1.07,14.33c-.58,1.05-.97,1.74-.97,2.9,0,.93.76,1.69,1.69,1.69s1.69-.76,1.69-1.69c0-1.16-.39-1.85-.97-2.9-.22-.4-.47-.84-.72-1.36-.25.52-.49.96-.72,1.36m-20.15-14.31h0v-.02c0-1.44.55-2.79,1.58-3.79,1.62-1.6,4.25-1.57,5.84.05.6.61.93,1.42.92,2.28,0,.86-.35,1.66-.96,2.26-.47.46-1.08.71-1.74.71h-.02c-.66,0-1.28-.27-1.75-.74-.73-.75-.72-1.95.02-2.68.56-.55,1.46-.54,2.01.02.97.9-.09,2.55-.09,2.55.27-.07.52-.22.72-.41.77-.76.78-2,.02-2.77-.9-.92-2.38-.93-3.3-.03-1.1,1.08-1.12,2.86-.04,3.97.05.05.1.1.16.14t0,0c.65,3.91,3.89,6.41,5.47,7.63.31.24.57.44.68.56l.3.31.3-.31c.11-.12.38-.32.68-.56,1.59-1.23,4.87-3.75,5.49-7.71h0s.04-.04.07-.06c1.08-1.1,1.07-2.88-.04-3.97-.92-.9-2.4-.89-3.3.03-.76.77-.75,2.01.02,2.77.2.2.45.34.72.41,0,0-1.06-1.64-.09-2.55.55-.56,1.45-.57,2.01-.02.75.73.76,1.93.02,2.68-.46.47-1.08.74-1.75.74h-.02c-.65,0-1.27-.25-1.74-.71-.61-.6-.95-1.41-.96-2.26,0-.86.32-1.67.92-2.28,1.6-1.63,4.22-1.65,5.84-.05,1.03,1.01,1.59,2.35,1.58,3.79h0v.02c.15,4.09-2.76,6.94-5.57,9.69-1.57,1.54-3.19,3.12-4.23,4.9-1.04-1.78-2.66-3.37-4.23-4.9-2.81-2.75-5.72-5.6-5.57-9.69m-.91-.02c-.16,4.49,2.89,7.48,5.84,10.37,1.36,1.34,2.67,2.62,3.63,4,.83,1.19,1.24,3.14,1.24,3.14,0,0,.41-1.95,1.24-3.14.96-1.38,2.26-2.66,3.63-4,2.95-2.89,6-5.88,5.84-10.37,0-1.68-.65-3.26-1.85-4.44-.98-.96-2.26-1.44-3.53-1.44s-2.61.5-3.6,1.51c-.77.79-1.19,1.83-1.18,2.93.01,1.1.45,2.13,1.24,2.91.65.64,1.5.97,2.41.97.43,0,.85-.09,1.24-.25-.87,3.13-3.58,5.22-4.96,6.28-.16.13-.31.24-.43.34-.12-.1-.27-.21-.43-.34-1.37-1.06-4.07-3.14-4.95-6.25,0,0,0,0,0,0,.37.14.76.21,1.16.22.91,0,1.76-.34,2.41-.97.79-.77,1.22-1.8,1.23-2.91.01-1.1-.41-2.14-1.18-2.93-.98-1-2.29-1.51-3.6-1.51s-2.55.48-3.53,1.44c-1.2,1.18-1.86,2.76-1.85,4.44m-1.07,14.33c-.58,1.05-.97,1.74-.97,2.9,0,.93.76,1.69,1.69,1.69s1.69-.76,1.69-1.69c0-1.16-.39-1.85-.97-2.9-.22-.4-.47-.84-.72-1.36-.25.52-.49.96-.72,1.36m-20.15-14.31h0v-.02c0-1.44.55-2.79,1.58-3.79,1.63-1.6,4.25-1.57,5.84.05.6.61.93,1.42.92,2.28,0,.86-.35,1.66-.96,2.26-.47.46-1.08.71-1.74.71h-.02c-.66,0-1.28-.27-1.75-.74-.73-.75-.72-1.95.02-2.68.56-.55,1.46-.54,2.01.02.97.9-.09,2.55-.09,2.55.27-.07.52-.22.72-.41.77-.76.78-2,.02-2.77-.9-.92-2.38-.93-3.3-.03-1.1,1.08-1.12,2.86-.04,3.97.05.05.1.1.16.14,0,0,0,0,0,0,.65,3.91,3.89,6.41,5.47,7.63.31.24.57.44.68.56l.3.31.3-.31c.11-.12.38-.32.68-.56,1.59-1.23,4.87-3.75,5.48-7.71h0s.04-.04.07-.06c1.08-1.1,1.07-2.88-.04-3.97-.92-.9-2.4-.89-3.3.03-.76.77-.75,2.01.02,2.77.2.2.45.34.72.41,0,0-1.06-1.64-.09-2.55.55-.56,1.45-.57,2.01-.02.75.73.76,1.93.02,2.68-.46.47-1.09.74-1.75.74h-.02c-.66,0-1.27-.25-1.74-.71-.61-.6-.95-1.41-.96-2.26,0-.86.32-1.67.92-2.28,1.6-1.63,4.22-1.65,5.84-.05,1.03,1.01,1.59,2.35,1.58,3.79h0s0,.02,0,.02c.15,4.09-2.76,6.94-5.57,9.69-1.57,1.54-3.19,3.12-4.23,4.9-1.04-1.78-2.66-3.37-4.23-4.9-2.81-2.75-5.72-5.6-5.57-9.69m-.91-.02c-.16,4.49,2.89,7.48,5.84,10.37,1.36,1.34,2.67,2.62,3.63,4,.83,1.19,1.24,3.14,1.24,3.14,0,0,.41-1.95,1.24-3.14.96-1.38,2.26-2.66,3.63-4,2.95-2.89,6-5.88,5.84-10.37,0-1.68-.65-3.26-1.85-4.44-.98-.96-2.26-1.44-3.53-1.44s-2.61.5-3.6,1.51c-.77.79-1.19,1.83-1.18,2.93s.45,2.13,1.23,2.91c.65.64,1.5.97,2.41.97.43,0,.85-.09,1.24-.25-.87,3.13-3.58,5.22-4.96,6.28-.16.13-.31.24-.43.34-.12-.1-.27-.21-.43-.34-1.37-1.06-4.07-3.14-4.95-6.25,0,0,0,0,0,0,.37.14.75.21,1.16.22.91,0,1.76-.34,2.41-.97.79-.77,1.22-1.8,1.23-2.91s-.41-2.14-1.18-2.93c-.99-1-2.29-1.51-3.6-1.51s-2.55.48-3.53,1.44c-1.2,1.18-1.86,2.76-1.85,4.44m-1.07,14.33c-.58,1.05-.97,1.74-.97,2.9,0,.93.76,1.69,1.69,1.69s1.69-.76,1.69-1.69c0-1.16-.38-1.85-.97-2.9-.22-.4-.47-.84-.72-1.36-.25.52-.49.96-.72,1.36m-20.15-14.31h0v-.02c0-1.44.55-2.79,1.58-3.79,1.63-1.6,4.25-1.57,5.84.05.6.61.93,1.42.92,2.28,0,.86-.35,1.66-.96,2.26-.47.46-1.08.71-1.74.71h-.02c-.66,0-1.28-.27-1.75-.74-.73-.75-.72-1.95.02-2.68.56-.55,1.46-.54,2.01.02.97.9-.09,2.55-.09,2.55.27-.07.52-.22.72-.41.77-.76.78-2,.02-2.77-.9-.92-2.38-.93-3.3-.03-1.1,1.08-1.12,2.86-.04,3.97.05.05.1.1.16.14,0,0,0,0,0,0,.65,3.91,3.89,6.41,5.47,7.63.31.24.57.44.68.56l.3.31.3-.31c.11-.12.38-.32.68-.56,1.59-1.23,4.87-3.75,5.48-7.71,0,0,0,0,0,0,.02-.02.05-.04.07-.06,1.08-1.1,1.07-2.88-.04-3.97-.92-.9-2.4-.89-3.3.03-.76.77-.75,2.01.03,2.77.2.2.45.34.72.41,0,0-1.06-1.64-.09-2.55.55-.56,1.45-.57,2.01-.02.74.73.76,1.93.02,2.68-.46.47-1.09.74-1.75.74h-.02c-.65,0-1.27-.25-1.74-.71-.61-.6-.95-1.41-.96-2.26,0-.86.32-1.67.92-2.28,1.6-1.63,4.22-1.65,5.84-.05,1.03,1.01,1.59,2.35,1.58,3.79h0s0,.02,0,.02c.15,4.09-2.76,6.94-5.57,9.69-1.57,1.54-3.19,3.12-4.23,4.9-1.04-1.78-2.66-3.37-4.23-4.9-2.81-2.75-5.72-5.6-5.57-9.69m-.91-.02c-.16,4.49,2.89,7.48,5.84,10.37,1.36,1.34,2.67,2.62,3.63,4,.83,1.19,1.24,3.14,1.24,3.14,0,0,.41-1.95,1.24-3.14.96-1.38,2.26-2.66,3.63-4,2.95-2.89,6-5.88,5.84-10.37,0-1.68-.65-3.26-1.85-4.44-.98-.96-2.26-1.44-3.53-1.44s-2.61.5-3.6,1.51c-.77.79-1.19,1.83-1.18,2.93,0,1.1.45,2.13,1.23,2.91.65.64,1.5.97,2.41.97.43,0,.85-.09,1.24-.25-.87,3.13-3.58,5.22-4.96,6.28-.16.13-.31.24-.43.34-.12-.1-.27-.21-.43-.34-1.37-1.06-4.07-3.14-4.95-6.25,0,0,0,0,0,0,.37.14.76.21,1.16.22.91,0,1.76-.34,2.41-.97.79-.77,1.22-1.8,1.23-2.91.01-1.1-.41-2.14-1.18-2.93-.99-1-2.29-1.51-3.6-1.51s-2.55.48-3.53,1.44c-1.2,1.18-1.86,2.76-1.85,4.44m-1.07,14.33c-.58,1.05-.97,1.74-.97,2.9,0,.93.76,1.69,1.69,1.69s1.69-.76,1.69-1.69c0-1.16-.39-1.85-.97-2.9-.22-.4-.47-.84-.72-1.36-.25.52-.49.96-.72,1.36m-20.15-14.31h0v-.02c0-1.44.55-2.79,1.58-3.79,1.62-1.6,4.25-1.57,5.84.05.6.61.93,1.42.92,2.28,0,.86-.35,1.66-.96,2.26-.47.46-1.08.71-1.74.71h-.02c-.66,0-1.28-.27-1.75-.74-.73-.75-.72-1.95.02-2.68.56-.55,1.46-.54,2.01.02.97.9-.09,2.55-.09,2.55.27-.07.52-.22.72-.41.77-.76.78-2,.02-2.77-.9-.92-2.38-.93-3.3-.03-1.1,1.08-1.12,2.86-.04,3.97.05.05.1.1.16.14h0c.65,3.91,3.89,6.41,5.47,7.63.31.24.57.44.68.56l.3.31.3-.31c.11-.12.38-.32.68-.56,1.59-1.23,4.87-3.75,5.48-7.71,0,0,0,0,0,0,.02-.02.05-.04.07-.06,1.08-1.1,1.07-2.88-.04-3.97-.92-.9-2.4-.89-3.3.03-.76.77-.75,2.01.02,2.77.2.2.45.34.72.41,0,0-1.06-1.64-.09-2.55.55-.56,1.45-.57,2.01-.02.74.73.76,1.93.02,2.68-.46.47-1.08.74-1.75.74h-.02c-.65,0-1.27-.25-1.74-.71-.61-.6-.95-1.41-.96-2.26,0-.86.32-1.67.92-2.28,1.6-1.63,4.22-1.65,5.84-.05,1.03,1.01,1.59,2.35,1.58,3.79h0v.02c.15,4.09-2.76,6.94-5.57,9.69-1.57,1.54-3.19,3.12-4.23,4.9-1.04-1.78-2.66-3.37-4.23-4.9-2.81-2.75-5.72-5.6-5.57-9.69m-.91-.02c-.16,4.49,2.89,7.48,5.84,10.37,1.36,1.34,2.67,2.62,3.63,4,.83,1.19,1.24,3.14,1.24,3.14,0,0,.41-1.95,1.24-3.14.96-1.38,2.26-2.66,3.63-4,2.95-2.89,6-5.88,5.84-10.37,0-1.68-.65-3.26-1.85-4.44-.98-.96-2.26-1.44-3.53-1.44s-2.61.5-3.6,1.51c-.77.79-1.19,1.83-1.18,2.93,0,1.1.45,2.13,1.23,2.91.65.64,1.5.97,2.41.97.43,0,.85-.09,1.24-.25-.87,3.13-3.58,5.22-4.96,6.28-.17.13-.31.24-.43.34-.12-.1-.27-.21-.43-.34-1.37-1.06-4.07-3.14-4.95-6.25,0,0,0,0,0,0,.37.14.75.21,1.16.22.91,0,1.76-.34,2.41-.97.79-.77,1.22-1.8,1.23-2.91.01-1.1-.41-2.14-1.18-2.93-.99-1-2.29-1.51-3.6-1.51s-2.55.48-3.53,1.44c-1.2,1.18-1.86,2.76-1.85,4.44m-1.07,14.33c-.58,1.05-.97,1.74-.97,2.9,0,.93.76,1.69,1.69,1.69s1.69-.76,1.69-1.69c0-1.16-.39-1.85-.97-2.9-.22-.4-.47-.84-.72-1.36-.25.52-.49.96-.72,1.36m-20.15-14.31h0v-.02c0-1.44.55-2.79,1.58-3.79,1.63-1.6,4.25-1.57,5.84.05.6.61.93,1.42.92,2.28,0,.86-.35,1.66-.96,2.26-.47.46-1.08.71-1.74.71h-.02c-.66,0-1.28-.27-1.75-.74-.73-.75-.72-1.95.02-2.68.56-.55,1.46-.54,2.01.02.97.9-.09,2.55-.09,2.55.27-.07.52-.22.72-.41.77-.76.78-2,.02-2.77-.9-.92-2.38-.93-3.3-.03-1.1,1.08-1.12,2.86-.04,3.97.05.05.1.1.16.14h0c.65,3.91,3.89,6.41,5.47,7.63.31.24.57.44.68.56l.3.31.3-.31c.11-.12.38-.32.68-.56,1.59-1.23,4.87-3.75,5.48-7.71h0s.04-.04.07-.06c1.08-1.1,1.07-2.88-.04-3.97-.92-.9-2.4-.89-3.3.03-.76.77-.75,2.01.02,2.77.2.2.45.34.72.41,0,0-1.06-1.64-.09-2.55.55-.56,1.45-.57,2.01-.02.75.73.76,1.93.02,2.68-.46.47-1.09.74-1.75.74h-.02c-.66,0-1.27-.25-1.74-.71-.61-.6-.95-1.41-.96-2.26,0-.86.32-1.67.92-2.28,1.6-1.63,4.22-1.65,5.84-.05,1.03,1.01,1.59,2.35,1.58,3.79h0v.02c.15,4.09-2.76,6.94-5.57,9.69-1.57,1.54-3.19,3.12-4.23,4.9-1.04-1.78-2.66-3.37-4.23-4.9-2.81-2.75-5.72-5.6-5.57-9.69m-.91-.02c-.16,4.49,2.89,7.48,5.84,10.37,1.36,1.34,2.67,2.62,3.63,4,.83,1.19,1.24,3.14,1.24,3.14,0,0,.41-1.95,1.24-3.14.96-1.38,2.26-2.66,3.63-4,2.95-2.89,6-5.88,5.84-10.37,0-1.68-.65-3.26-1.85-4.44-.98-.96-2.26-1.44-3.53-1.44s-2.61.5-3.6,1.51c-.77.79-1.19,1.83-1.18,2.93.01,1.1.45,2.13,1.24,2.91.65.64,1.5.97,2.41.97.43,0,.85-.09,1.24-.25-.87,3.13-3.58,5.22-4.96,6.28-.17.13-.31.24-.43.34-.12-.1-.27-.21-.43-.34-1.37-1.06-4.07-3.14-4.95-6.25,0,0,0,0,0,0,.37.14.75.21,1.16.22.91,0,1.76-.34,2.41-.97.79-.77,1.22-1.8,1.23-2.91,0-1.1-.41-2.14-1.18-2.93-.99-1-2.29-1.51-3.6-1.51s-2.55.48-3.53,1.44c-1.2,1.18-1.86,2.76-1.85,4.44m-1.07,14.33c-.58,1.05-.97,1.74-.97,2.9,0,.93.76,1.69,1.69,1.69s1.69-.76,1.69-1.69c0-1.16-.39-1.85-.97-2.9-.22-.4-.47-.84-.72-1.36-.25.52-.49.96-.72,1.36m-20.15-14.31h0v-.02c0-1.44.55-2.79,1.58-3.79,1.63-1.6,4.25-1.57,5.84.05.6.61.93,1.42.92,2.28,0,.86-.35,1.66-.96,2.26-.47.46-1.08.71-1.74.71h-.02c-.66,0-1.28-.27-1.75-.74-.73-.75-.72-1.95.02-2.68.56-.55,1.46-.54,2.01.02.97.9-.09,2.55-.09,2.55.27-.07.52-.22.72-.41.77-.76.78-2,.02-2.77-.9-.92-2.38-.93-3.3-.03-1.1,1.08-1.12,2.86-.04,3.97.05.05.1.1.16.14,0,0,0,0,0,0,.65,3.91,3.89,6.41,5.47,7.63.31.24.57.44.68.56l.3.31.3-.31c.11-.12.38-.32.68-.56,1.59-1.23,4.87-3.75,5.48-7.71t0,0s.05-.04.07-.06c1.08-1.1,1.07-2.88-.04-3.97-.92-.9-2.4-.89-3.3.03-.76.77-.75,2.01.02,2.77.2.2.45.34.72.41,0,0-1.06-1.64-.09-2.55.55-.56,1.45-.57,2.01-.02.75.73.76,1.93.02,2.68-.46.47-1.09.74-1.75.74h-.02c-.65,0-1.27-.25-1.74-.71-.61-.6-.95-1.41-.96-2.26,0-.86.32-1.67.92-2.28,1.6-1.63,4.22-1.65,5.84-.05,1.03,1.01,1.59,2.35,1.58,3.79h0s0,.02,0,.02c.15,4.09-2.76,6.94-5.57,9.69-1.57,1.54-3.19,3.12-4.23,4.9-1.04-1.78-2.66-3.37-4.23-4.9-2.81-2.75-5.72-5.6-5.57-9.69m-.91-.02c-.16,4.49,2.89,7.48,5.84,10.37,1.36,1.34,2.67,2.62,3.63,4,.83,1.19,1.24,3.14,1.24,3.14,0,0,.41-1.95,1.24-3.14.96-1.38,2.26-2.66,3.63-4,2.95-2.89,6-5.88,5.84-10.37,0-1.68-.65-3.26-1.85-4.44-.98-.96-2.26-1.44-3.53-1.44s-2.61.5-3.6,1.51c-.77.79-1.19,1.83-1.18,2.93.01,1.1.45,2.13,1.23,2.91.65.64,1.5.97,2.41.97.43,0,.85-.09,1.24-.25-.87,3.13-3.58,5.22-4.96,6.28-.17.13-.31.24-.43.34-.12-.1-.27-.21-.43-.34-1.37-1.06-4.07-3.14-4.95-6.25,0,0,0,0,0,0,.37.14.75.21,1.16.22.91,0,1.76-.34,2.41-.97.79-.77,1.22-1.8,1.23-2.91,0-1.1-.41-2.14-1.18-2.93-.99-1-2.29-1.51-3.6-1.51s-2.55.48-3.53,1.44c-1.2,1.18-1.86,2.76-1.85,4.44m-1.07,14.33c-.58,1.05-.97,1.74-.97,2.9,0,.93.76,1.69,1.69,1.69s1.69-.76,1.69-1.69c0-1.16-.39-1.85-.97-2.9-.22-.4-.47-.84-.72-1.36-.25.52-.49.96-.72,1.36m-20.15-14.31h0v-.02c0-1.44.55-2.79,1.58-3.79,1.63-1.6,4.25-1.57,5.84.05.6.61.93,1.42.92,2.28,0,.86-.35,1.66-.96,2.26-.47.46-1.08.71-1.74.71h-.02c-.66,0-1.28-.27-1.75-.74-.73-.75-.72-1.95.02-2.68.56-.55,1.46-.54,2.01.02.97.9-.09,2.55-.09,2.55.27-.07.52-.22.72-.41.77-.76.78-2,.02-2.77-.9-.92-2.38-.93-3.3-.03-1.1,1.08-1.12,2.86-.04,3.97.05.05.1.1.16.14,0,0,0,0,0,0,.65,3.91,3.89,6.41,5.47,7.63.31.24.57.44.68.56l.3.31.3-.31c.11-.12.38-.32.68-.56,1.59-1.23,4.87-3.75,5.48-7.71h0s.04-.04.07-.06c1.08-1.1,1.07-2.88-.04-3.97-.92-.9-2.4-.89-3.3.03-.76.77-.75,2.01.03,2.77.2.2.45.34.72.41,0,0-1.06-1.64-.09-2.55.55-.56,1.45-.57,2.01-.02.74.73.76,1.93.02,2.68-.46.47-1.08.74-1.75.74h-.02c-.65,0-1.27-.25-1.74-.71-.61-.6-.95-1.41-.96-2.26,0-.86.32-1.67.92-2.28,1.6-1.63,4.22-1.65,5.84-.05,1.03,1.01,1.59,2.35,1.58,3.79h0s0,.02,0,.02c.15,4.09-2.76,6.94-5.57,9.69-1.57,1.54-3.19,3.12-4.23,4.9-1.04-1.78-2.66-3.37-4.23-4.9-2.81-2.75-5.72-5.6-5.57-9.69m-.91-.02c-.16,4.49,2.89,7.48,5.84,10.37,1.36,1.34,2.67,2.62,3.63,4,.83,1.19,1.24,3.14,1.24,3.14,0,0,.41-1.95,1.24-3.14.96-1.38,2.26-2.66,3.63-4,2.95-2.89,6-5.88,5.84-10.37,0-1.68-.65-3.26-1.85-4.44-.98-.96-2.26-1.44-3.53-1.44s-2.61.5-3.6,1.51c-.77.79-1.19,1.83-1.18,2.93,0,1.1.45,2.13,1.23,2.91.65.64,1.5.97,2.41.97.43,0,.85-.09,1.24-.25-.87,3.13-3.58,5.22-4.96,6.28-.17.13-.31.24-.43.34-.12-.1-.27-.21-.43-.34-1.37-1.06-4.07-3.14-4.95-6.25,0,0,0,0,0,0,.37.14.76.21,1.16.22.91,0,1.76-.34,2.41-.97.79-.77,1.22-1.8,1.24-2.91,0-1.1-.41-2.14-1.18-2.93-.99-1-2.29-1.51-3.6-1.51s-2.55.48-3.53,1.44c-1.2,1.18-1.86,2.76-1.85,4.44m-1.07,14.33c-.58,1.05-.97,1.74-.97,2.9,0,.93.76,1.69,1.69,1.69s1.69-.76,1.69-1.69c0-1.16-.39-1.85-.97-2.9-.22-.4-.47-.84-.72-1.36-.25.52-.49.96-.72,1.36m-20.15-14.31h0s0-.02,0-.02c0-1.44.55-2.79,1.58-3.79,1.63-1.6,4.25-1.57,5.84.05.6.61.93,1.42.92,2.28,0,.86-.35,1.66-.96,2.26-.47.46-1.08.71-1.74.71h-.02c-.66,0-1.28-.27-1.75-.74-.73-.75-.72-1.95.02-2.68.56-.55,1.46-.54,2.01.02.97.9-.09,2.55-.09,2.55.27-.07.52-.22.72-.41.77-.76.78-2,.03-2.77-.9-.92-2.38-.93-3.3-.03-1.1,1.08-1.12,2.86-.04,3.97.05.05.1.1.16.14,0,0,0,0,0,0,.65,3.91,3.89,6.41,5.47,7.63.31.24.57.44.68.56l.3.31.3-.31c.11-.12.38-.32.68-.56,1.59-1.23,4.87-3.75,5.48-7.71,0,0,0,0,0,0,.02-.02.05-.04.07-.06,1.08-1.1,1.07-2.88-.04-3.97-.92-.9-2.4-.89-3.3.03-.76.77-.75,2.01.03,2.77.2.2.45.34.72.41,0,0-1.06-1.64-.09-2.55.55-.56,1.45-.57,2.01-.02.74.73.76,1.93.02,2.68-.46.47-1.08.74-1.75.74h-.02c-.65,0-1.27-.25-1.74-.71-.61-.6-.95-1.41-.96-2.26,0-.86.32-1.67.92-2.28,1.6-1.63,4.22-1.65,5.84-.05,1.03,1.01,1.59,2.35,1.58,3.79h0v.02c.15,4.09-2.76,6.94-5.57,9.69-1.57,1.54-3.19,3.12-4.23,4.9-1.04-1.78-2.66-3.37-4.23-4.9-2.81-2.75-5.72-5.6-5.57-9.69m-.91-.02c-.16,4.49,2.89,7.48,5.84,10.37,1.36,1.34,2.67,2.62,3.63,4,.83,1.19,1.24,3.14,1.24,3.14,0,0,.41-1.95,1.24-3.14.96-1.38,2.26-2.66,3.63-4,2.95-2.89,6-5.88,5.84-10.37,0-1.68-.65-3.26-1.85-4.44-.98-.96-2.26-1.44-3.53-1.44s-2.61.5-3.6,1.51c-.77.79-1.19,1.83-1.18,2.93,0,1.1.45,2.13,1.23,2.91.65.64,1.5.97,2.41.97.43,0,.85-.09,1.24-.25-.87,3.13-3.58,5.22-4.96,6.28-.17.13-.31.24-.43.34-.12-.1-.27-.21-.43-.34-1.37-1.06-4.07-3.14-4.95-6.25,0,0,0,0,0,0,.37.14.75.21,1.16.22.91,0,1.76-.34,2.41-.97.79-.77,1.22-1.8,1.23-2.91.01-1.1-.41-2.14-1.18-2.93-.99-1-2.29-1.51-3.6-1.51s-2.55.48-3.53,1.44c-1.2,1.18-1.86,2.76-1.85,4.44m-1.07,14.33c-.58,1.05-.97,1.74-.97,2.9,0,.93.76,1.69,1.69,1.69s1.69-.76,1.69-1.69c0-1.16-.39-1.85-.97-2.9-.22-.4-.47-.84-.72-1.36-.25.52-.49.96-.72,1.36m-20.15-14.31h0v-.02c0-1.44.55-2.79,1.58-3.79,1.63-1.6,4.25-1.57,5.84.05.6.61.93,1.42.92,2.28,0,.86-.35,1.66-.96,2.26-.47.46-1.08.71-1.74.71h-.02c-.66,0-1.28-.27-1.75-.74-.73-.75-.72-1.95.02-2.68.56-.55,1.46-.54,2.01.02.97.9-.09,2.55-.09,2.55.27-.07.52-.22.72-.41.77-.76.78-2,.02-2.77-.9-.92-2.38-.93-3.3-.03-1.1,1.08-1.12,2.86-.04,3.97.05.05.1.1.16.14,0,0,0,0,0,0,.65,3.91,3.89,6.41,5.47,7.63.31.24.57.44.68.56l.3.31.3-.31c.11-.12.38-.32.68-.56,1.59-1.23,4.87-3.75,5.48-7.71h0s.04-.04.07-.06c1.08-1.1,1.07-2.88-.04-3.97-.92-.9-2.4-.89-3.3.03-.76.77-.75,2.01.02,2.77.2.2.45.34.72.41,0,0-1.06-1.64-.09-2.55.55-.56,1.45-.57,2.01-.02.75.73.76,1.93.02,2.68-.46.47-1.09.74-1.75.74h-.02c-.65,0-1.27-.25-1.74-.71-.61-.6-.95-1.41-.96-2.26,0-.86.32-1.67.92-2.28,1.6-1.63,4.22-1.65,5.84-.05,1.03,1.01,1.59,2.35,1.58,3.79h0s0,.02,0,.02c.15,4.09-2.76,6.94-5.57,9.69-1.57,1.54-3.19,3.12-4.23,4.9-1.04-1.78-2.66-3.37-4.23-4.9-2.81-2.75-5.72-5.6-5.57-9.69m-.91-.02c-.16,4.49,2.89,7.48,5.84,10.37,1.36,1.34,2.67,2.62,3.63,4,.83,1.19,1.24,3.14,1.24,3.14,0,0,.41-1.95,1.24-3.14.96-1.38,2.26-2.66,3.63-4,2.95-2.89,6-5.88,5.84-10.37,0-1.68-.65-3.26-1.85-4.44-.98-.96-2.26-1.44-3.53-1.44s-2.61.5-3.6,1.51c-.77.79-1.19,1.83-1.18,2.93.01,1.1.45,2.13,1.23,2.91.65.64,1.5.97,2.41.97.43,0,.85-.09,1.24-.25-.87,3.13-3.58,5.22-4.96,6.28-.17.13-.31.24-.43.34-.12-.1-.27-.21-.43-.34-1.37-1.06-4.07-3.14-4.95-6.25,0,0,0,0,0,0,.37.14.76.21,1.16.22.91,0,1.76-.34,2.41-.97.79-.77,1.22-1.8,1.23-2.91,0-1.1-.41-2.14-1.18-2.93-.99-1-2.29-1.51-3.6-1.51s-2.55.48-3.53,1.44c-1.2,1.18-1.86,2.76-1.85,4.44m-1.07,14.33c-.58,1.05-.97,1.74-.97,2.9,0,.93.76,1.69,1.69,1.69s1.69-.76,1.69-1.69c0-1.16-.39-1.85-.97-2.9-.22-.4-.47-.84-.72-1.36-.25.52-.49.96-.72,1.36m-20.15-14.31h0v-.02c0-1.44.55-2.79,1.58-3.79,1.63-1.6,4.25-1.57,5.84.05.6.61.93,1.42.92,2.28,0,.86-.35,1.66-.96,2.26-.47.46-1.08.71-1.74.71h-.02c-.66,0-1.28-.27-1.75-.74-.73-.75-.72-1.95.02-2.68.56-.55,1.46-.54,2.01.02.97.9-.09,2.55-.09,2.55.27-.07.52-.22.72-.41.77-.76.78-2,.02-2.77-.9-.92-2.38-.93-3.3-.03-1.1,1.08-1.12,2.86-.04,3.97.05.05.1.1.16.14,0,0,0,0,0,0,.65,3.91,3.89,6.41,5.47,7.63.31.24.57.44.68.56l.3.31.3-.31c.11-.12.38-.32.68-.56,1.59-1.23,4.87-3.75,5.48-7.71h0s.04-.04.07-.06c1.08-1.1,1.07-2.88-.04-3.97-.92-.9-2.4-.89-3.3.03-.76.77-.75,2.01.02,2.77.2.2.45.34.72.41,0,0-1.06-1.64-.09-2.55.55-.56,1.45-.57,2.01-.02.74.73.76,1.93.02,2.68-.46.47-1.08.74-1.75.74h-.02c-.65,0-1.27-.25-1.74-.71-.61-.6-.95-1.41-.96-2.26,0-.86.32-1.67.92-2.28,1.6-1.63,4.22-1.65,5.84-.05,1.03,1.01,1.59,2.35,1.58,3.79h0s0,.02,0,.02c.15,4.09-2.76,6.94-5.57,9.69-1.57,1.54-3.19,3.12-4.23,4.9-1.04-1.78-2.66-3.37-4.23-4.9-2.81-2.75-5.72-5.6-5.57-9.69m-.91-.02c-.16,4.49,2.89,7.48,5.84,10.37,1.36,1.34,2.67,2.62,3.63,4,.83,1.19,1.24,3.14,1.24,3.14,0,0,.41-1.95,1.24-3.14.96-1.38,2.26-2.66,3.63-4,2.95-2.89,6-5.88,5.84-10.37,0-1.68-.65-3.26-1.85-4.44-.98-.96-2.26-1.44-3.53-1.44s-2.61.5-3.6,1.51c-.77.79-1.19,1.83-1.18,2.93.01,1.1.45,2.13,1.23,2.91.65.64,1.5.97,2.41.97.43,0,.85-.09,1.24-.25-.87,3.13-3.58,5.22-4.96,6.28-.17.13-.31.24-.43.34-.12-.1-.27-.21-.43-.34-1.37-1.06-4.07-3.14-4.95-6.25,0,0,0,0,0,0,.37.14.76.21,1.16.22.91,0,1.76-.34,2.41-.97.79-.77,1.22-1.8,1.24-2.91,0-1.1-.41-2.14-1.18-2.93-.99-1-2.29-1.51-3.6-1.51s-2.55.48-3.53,1.44c-1.2,1.18-1.86,2.76-1.85,4.44m-1.07,14.33c-.58,1.05-.97,1.74-.97,2.9,0,.93.76,1.69,1.69,1.69s1.69-.76,1.69-1.69c0-1.16-.39-1.85-.97-2.9-.22-.4-.47-.84-.72-1.36-.25.52-.49.96-.72,1.36m-20.15-14.31h0v-.02c0-1.44.55-2.79,1.58-3.79,1.63-1.6,4.25-1.57,5.84.05.6.61.93,1.42.92,2.28,0,.86-.35,1.66-.96,2.26-.47.46-1.08.71-1.74.71h-.02c-.66,0-1.28-.27-1.75-.74-.73-.75-.72-1.95.02-2.68.56-.55,1.46-.54,2.01.02.97.9-.09,2.55-.09,2.55.27-.07.52-.22.72-.41.77-.76.78-2,.02-2.77-.9-.92-2.38-.93-3.3-.03-1.1,1.08-1.12,2.86-.04,3.97.05.05.1.1.16.14,0,0,0,0,0,0,.65,3.91,3.89,6.41,5.47,7.63.31.24.57.44.68.56l.3.31.3-.31c.11-.12.38-.32.68-.56,1.59-1.23,4.87-3.75,5.48-7.71,0,0,0,0,0,0,.02-.02.05-.04.07-.06,1.08-1.1,1.07-2.88-.04-3.97-.92-.9-2.4-.89-3.3.03-.76.77-.75,2.01.03,2.77.2.2.45.34.72.41,0,0-1.06-1.64-.09-2.55.55-.56,1.45-.57,2.01-.02.74.73.76,1.93.02,2.68-.46.47-1.08.74-1.75.74h-.02c-.65,0-1.27-.25-1.74-.71-.61-.6-.95-1.41-.96-2.26,0-.86.32-1.67.92-2.28,1.6-1.63,4.22-1.65,5.84-.05,1.03,1.01,1.59,2.35,1.58,3.79h0v.02c.15,4.09-2.76,6.94-5.57,9.69-1.57,1.54-3.19,3.12-4.23,4.9-1.04-1.78-2.66-3.37-4.23-4.9-2.81-2.75-5.72-5.6-5.57-9.69m-.91-.02c-.16,4.49,2.89,7.48,5.84,10.37,1.36,1.34,2.67,2.62,3.63,4,.83,1.19,1.24,3.14,1.24,3.14,0,0,.41-1.95,1.24-3.14.96-1.38,2.26-2.66,3.63-4,2.95-2.89,6-5.88,5.84-10.37,0-1.68-.65-3.26-1.85-4.44-.98-.96-2.26-1.44-3.53-1.44s-2.61.5-3.6,1.51c-.77.79-1.19,1.83-1.18,2.93,0,1.1.45,2.13,1.23,2.91.65.64,1.5.97,2.41.97.43,0,.85-.09,1.24-.25-.87,3.13-3.58,5.22-4.96,6.28-.17.13-.31.24-.43.34-.12-.1-.27-.21-.43-.34-1.37-1.06-4.07-3.14-4.95-6.25,0,0,0,0,0,0,.37.14.76.21,1.16.22.91,0,1.76-.34,2.41-.97.79-.77,1.22-1.8,1.23-2.91.01-1.1-.41-2.14-1.18-2.93-.99-1-2.29-1.51-3.6-1.51s-2.55.48-3.53,1.44c-1.2,1.18-1.86,2.76-1.85,4.44m-1.07,14.33c-.58,1.05-.97,1.74-.97,2.9,0,.93.76,1.69,1.69,1.69s1.69-.76,1.69-1.69c0-1.16-.39-1.85-.97-2.9-.22-.4-.47-.84-.72-1.36-.25.52-.49.96-.72,1.36m-20.15-14.31h0v-.02c0-1.44.55-2.79,1.58-3.79,1.63-1.6,4.25-1.57,5.84.05.6.61.93,1.42.92,2.28,0,.86-.35,1.66-.96,2.26-.47.46-1.08.71-1.74.71h-.02c-.66,0-1.28-.27-1.75-.74-.73-.75-.72-1.95.02-2.68.56-.55,1.46-.54,2.01.02.97.9-.09,2.55-.09,2.55.27-.07.52-.22.72-.41.77-.76.78-2,.02-2.77-.9-.92-2.38-.93-3.3-.03-1.1,1.08-1.12,2.86-.04,3.97.05.05.1.1.16.14h0c.65,3.91,3.89,6.41,5.47,7.63.31.24.57.44.68.56l.3.31.3-.31c.11-.12.38-.32.68-.56,1.59-1.23,4.87-3.75,5.48-7.71h0s.04-.04.07-.06c1.08-1.1,1.07-2.88-.04-3.97-.92-.9-2.4-.89-3.3.03-.76.77-.75,2.01.02,2.77.2.2.45.34.72.41,0,0-1.06-1.64-.09-2.55.55-.56,1.45-.57,2.01-.02.74.73.76,1.93.02,2.68-.46.47-1.08.74-1.75.74h-.02c-.65,0-1.27-.25-1.74-.71-.61-.6-.95-1.41-.96-2.26,0-.86.32-1.67.92-2.28,1.6-1.63,4.22-1.65,5.84-.05,1.03,1.01,1.59,2.35,1.58,3.79h0v.02c.15,4.09-2.76,6.94-5.57,9.69-1.57,1.54-3.19,3.12-4.23,4.9-1.04-1.78-2.66-3.37-4.23-4.9-2.81-2.75-5.72-5.6-5.57-9.69m-.91-.02c-.16,4.49,2.89,7.48,5.84,10.37,1.36,1.34,2.67,2.62,3.63,4,.83,1.19,1.24,3.14,1.24,3.14,0,0,.41-1.95,1.24-3.14.96-1.38,2.26-2.66,3.63-4,2.95-2.89,6-5.88,5.84-10.37,0-1.68-.65-3.26-1.85-4.44-.98-.96-2.26-1.44-3.53-1.44s-2.61.5-3.6,1.51c-.77.79-1.19,1.83-1.18,2.93,0,1.1.45,2.13,1.23,2.91.65.64,1.5.97,2.41.97.43,0,.85-.09,1.24-.25-.87,3.13-3.58,5.22-4.96,6.28-.17.13-.31.24-.43.34-.12-.1-.27-.21-.43-.34-1.37-1.06-4.07-3.14-4.95-6.25,0,0,0,0,0,0,.37.14.75.21,1.16.22.91,0,1.76-.34,2.41-.97.79-.77,1.22-1.8,1.23-2.91,0-1.1-.41-2.14-1.18-2.93-.99-1-2.29-1.51-3.6-1.51s-2.55.48-3.53,1.44c-1.2,1.18-1.86,2.76-1.85,4.44m.36,14.33c-.22-.4-.47-.84-.72-1.36v5.95c.93,0,1.69-.76,1.69-1.69,0-1.16-.39-1.85-.97-2.9m-21.59-14.31h0v-.02c0-1.44.55-2.79,1.58-3.79,1.63-1.6,4.25-1.57,5.84.05.6.61.93,1.42.92,2.28,0,.86-.35,1.66-.96,2.26-.47.46-1.08.71-1.74.71h-.02c-.66,0-1.28-.27-1.75-.74-.73-.75-.72-1.95.02-2.68.56-.55,1.46-.54,2.01.02.97.9-.09,2.55-.09,2.55.27-.07.52-.22.72-.41.77-.76.78-2,.02-2.77-.9-.92-2.38-.93-3.3-.03-1.1,1.08-1.12,2.86-.04,3.97.05.05.1.1.16.14h0c.65,3.91,3.89,6.41,5.47,7.63.31.24.57.44.68.56l.3.31.3-.31c.11-.12.38-.32.68-.56,1.59-1.23,4.87-3.75,5.48-7.71.02-.02.04-.04.07-.06,1.08-1.1,1.07-2.88-.04-3.97-.92-.9-2.4-.89-3.3.03-.76.77-.75,2.01.02,2.77.2.2.45.34.72.41,0,0-1.06-1.64-.09-2.55.55-.56,1.45-.57,2.01-.02.75.73.76,1.93.02,2.68-.46.47-1.09.74-1.75.74h-.02c-.66,0-1.27-.25-1.74-.71-.61-.6-.95-1.41-.96-2.26,0-.86.32-1.67.92-2.28,1.6-1.63,4.22-1.65,5.84-.05,1.03,1.01,1.59,2.35,1.58,3.79h0v.02c.15,4.09-2.76,6.94-5.57,9.69-1.57,1.54-3.19,3.12-4.23,4.9-1.04-1.78-2.66-3.37-4.23-4.9-2.81-2.75-5.72-5.6-5.57-9.69m-.91-.02c-.16,4.49,2.89,7.48,5.84,10.37,1.36,1.34,2.67,2.62,3.63,4,.83,1.19,1.24,3.14,1.24,3.14,0,0,.41-1.95,1.24-3.14.96-1.38,2.26-2.66,3.63-4,2.95-2.89,6-5.88,5.84-10.37,0-1.68-.65-3.26-1.85-4.44-.98-.96-2.26-1.44-3.53-1.44s-2.61.5-3.6,1.51c-.77.79-1.19,1.83-1.18,2.93.01,1.1.45,2.13,1.23,2.91.65.64,1.5.97,2.41.97.43,0,.85-.09,1.24-.25-.87,3.13-3.58,5.22-4.96,6.28-.17.13-.31.24-.43.34-.12-.1-.27-.21-.43-.34-1.37-1.06-4.07-3.14-4.95-6.25,0,0,0,0,0,0,.37.14.76.21,1.16.22.91,0,1.76-.34,2.41-.97.79-.77,1.22-1.8,1.23-2.91,0-1.1-.41-2.14-1.18-2.93-.99-1-2.29-1.51-3.6-1.51s-2.55.48-3.53,1.44c-1.2,1.18-1.86,2.76-1.85,4.44m-1.07,14.33c-.58,1.05-.97,1.74-.97,2.9,0,.93.76,1.69,1.69,1.69s1.69-.76,1.69-1.69c0-1.16-.39-1.85-.97-2.9-.22-.4-.47-.84-.72-1.36-.25.52-.49.96-.72,1.36m-20.15-14.31h0v-.02c0-1.44.55-2.79,1.58-3.79,1.63-1.6,4.25-1.57,5.84.05.6.61.93,1.42.92,2.28,0,.86-.35,1.66-.96,2.26-.47.46-1.08.71-1.74.71h-.02c-.66,0-1.28-.27-1.75-.74-.73-.75-.72-1.95.02-2.68.56-.55,1.46-.54,2.01.02.97.9-.09,2.55-.09,2.55.27-.07.52-.22.72-.41.77-.76.78-2,.02-2.77-.9-.92-2.38-.93-3.3-.03-1.1,1.08-1.12,2.86-.04,3.97.05.05.1.1.16.14,0,0,0,0,0,0,.65,3.91,3.89,6.41,5.47,7.63.31.24.57.44.68.56l.3.31.3-.31c.11-.12.38-.32.68-.56,1.59-1.23,4.87-3.75,5.48-7.71t0,0s.05-.04.07-.06c1.08-1.1,1.07-2.88-.04-3.97-.92-.9-2.4-.89-3.3.03-.76.77-.75,2.01.02,2.77.2.2.45.34.72.41,0,0-1.06-1.64-.09-2.55.55-.56,1.45-.57,2.01-.02.74.73.76,1.93.02,2.68-.46.47-1.09.74-1.75.74h-.02c-.65,0-1.27-.25-1.74-.71-.61-.6-.95-1.41-.96-2.26,0-.86.32-1.67.92-2.28,1.6-1.63,4.22-1.65,5.84-.05,1.03,1.01,1.59,2.35,1.58,3.79h0s0,.02,0,.02c.15,4.09-2.76,6.94-5.57,9.69-1.57,1.54-3.19,3.12-4.23,4.9-1.04-1.78-2.66-3.37-4.23-4.9-2.81-2.75-5.72-5.6-5.57-9.69m-.91-.02c-.16,4.49,2.89,7.48,5.84,10.37,1.36,1.34,2.67,2.62,3.63,4,.83,1.19,1.24,3.14,1.24,3.14,0,0,.41-1.95,1.24-3.14.96-1.38,2.26-2.66,3.63-4,2.95-2.89,6-5.88,5.84-10.37,0-1.68-.65-3.26-1.85-4.44-.98-.96-2.26-1.44-3.53-1.44s-2.61.5-3.6,1.51c-.77.79-1.19,1.83-1.18,2.93.01,1.1.45,2.13,1.23,2.91.65.64,1.5.97,2.41.97.43,0,.85-.09,1.24-.25-.87,3.13-3.58,5.22-4.96,6.28-.17.13-.31.24-.43.34-.12-.1-.27-.21-.43-.34-1.37-1.06-4.07-3.14-4.95-6.25,0,0,0,0,0,0,.37.14.76.21,1.16.22.91,0,1.76-.34,2.41-.97.79-.77,1.22-1.8,1.24-2.91,0-1.1-.41-2.14-1.18-2.93-.99-1-2.29-1.51-3.6-1.51s-2.55.48-3.53,1.44c-1.2,1.18-1.86,2.76-1.85,4.44m-1.07,14.33c-.58,1.05-.97,1.74-.97,2.9,0,.93.76,1.69,1.69,1.69s1.69-.76,1.69-1.69c0-1.16-.39-1.85-.97-2.9-.22-.4-.47-.84-.72-1.36-.25.52-.49.96-.72,1.36m-20.15-14.31h0v-.02c0-1.44.55-2.79,1.58-3.79,1.62-1.6,4.25-1.57,5.84.05.6.61.93,1.42.92,2.28,0,.86-.35,1.66-.96,2.26-.47.46-1.08.71-1.74.71h-.02c-.66,0-1.28-.27-1.75-.74-.73-.75-.72-1.95.02-2.68.56-.55,1.46-.54,2.01.02.97.9-.09,2.55-.09,2.55.27-.07.52-.22.72-.41.77-.76.78-2,.03-2.77-.9-.92-2.38-.93-3.3-.03-1.1,1.08-1.12,2.86-.04,3.97.05.05.1.1.16.14,0,0,0,0,0,0,.65,3.91,3.89,6.41,5.47,7.63.31.24.57.44.68.56l.3.31.3-.31c.11-.12.38-.32.68-.56,1.59-1.23,4.87-3.75,5.48-7.71,0,0,0,0,0,0,.02-.02.05-.04.07-.06,1.08-1.1,1.07-2.88-.04-3.97-.92-.9-2.4-.89-3.3.03-.76.77-.75,2.01.03,2.77.2.2.45.34.72.41,0,0-1.06-1.64-.09-2.55.55-.56,1.45-.57,2.01-.02.74.73.76,1.93.02,2.68-.46.47-1.08.74-1.75.74h-.02c-.65,0-1.27-.25-1.74-.71-.61-.6-.95-1.41-.96-2.26,0-.86.32-1.67.92-2.28,1.6-1.63,4.22-1.65,5.84-.05,1.03,1.01,1.59,2.35,1.58,3.79h0v.02c.15,4.09-2.76,6.94-5.57,9.69-1.57,1.54-3.19,3.12-4.23,4.9-1.04-1.78-2.66-3.37-4.23-4.9-2.81-2.75-5.72-5.6-5.57-9.69m-.91-.02c-.16,4.49,2.89,7.48,5.84,10.37,1.36,1.34,2.67,2.62,3.63,4,.83,1.19,1.24,3.14,1.24,3.14,0,0,.41-1.95,1.24-3.14.96-1.38,2.26-2.66,3.63-4,2.95-2.89,6-5.88,5.84-10.37,0-1.68-.65-3.26-1.85-4.44-.98-.96-2.26-1.44-3.53-1.44s-2.61.5-3.6,1.51c-.77.79-1.19,1.83-1.18,2.93,0,1.1.45,2.13,1.23,2.91.65.64,1.5.97,2.41.97.43,0,.85-.09,1.24-.25-.87,3.13-3.58,5.22-4.96,6.28-.17.13-.31.24-.43.34-.12-.1-.27-.21-.43-.34-1.37-1.06-4.07-3.14-4.95-6.25t0,0c.37.14.75.21,1.16.22.91,0,1.76-.34,2.41-.97.79-.77,1.22-1.8,1.23-2.91.01-1.1-.41-2.14-1.18-2.93-.99-1-2.29-1.51-3.6-1.51s-2.55.48-3.53,1.44c-1.2,1.18-1.86,2.76-1.85,4.44m-1.07,14.33c-.58,1.05-.97,1.74-.97,2.9,0,.93.76,1.69,1.69,1.69s1.69-.76,1.69-1.69c0-1.16-.39-1.85-.97-2.9-.22-.4-.47-.84-.72-1.36-.25.52-.49.96-.72,1.36m-20.15-14.31h0v-.02c0-1.44.55-2.79,1.58-3.79,1.62-1.6,4.25-1.57,5.84.05.6.61.93,1.42.92,2.28,0,.86-.35,1.66-.96,2.26-.47.46-1.08.71-1.74.71h-.02c-.66,0-1.28-.27-1.75-.74-.73-.75-.72-1.95.02-2.68.56-.55,1.46-.54,2.01.02.97.9-.09,2.55-.09,2.55.27-.07.52-.22.72-.41.77-.76.78-2,.02-2.77-.9-.92-2.38-.93-3.3-.03-1.1,1.08-1.12,2.86-.04,3.97.05.05.1.1.16.14t0,0c.65,3.91,3.89,6.41,5.47,7.63.31.24.57.44.68.56l.3.31.3-.31c.11-.12.38-.32.68-.56,1.59-1.23,4.87-3.75,5.48-7.71,0,0,0,0,0,0,.02-.02.05-.04.07-.06,1.08-1.1,1.07-2.88-.04-3.97-.92-.9-2.4-.89-3.3.03-.76.77-.75,2.01.02,2.77.2.2.45.34.72.41,0,0-1.06-1.64-.09-2.55.55-.56,1.45-.57,2.01-.02.74.73.75,1.93.02,2.68-.46.47-1.08.74-1.75.74h-.02c-.65,0-1.27-.25-1.74-.71-.61-.6-.95-1.41-.96-2.26,0-.86.32-1.67.92-2.28,1.6-1.63,4.22-1.65,5.84-.05,1.03,1.01,1.59,2.35,1.58,3.79h0v.02c.15,4.09-2.76,6.94-5.57,9.69-1.57,1.54-3.19,3.12-4.23,4.9-1.04-1.78-2.66-3.37-4.23-4.9-2.81-2.75-5.72-5.6-5.57-9.69m-.91-.02c-.16,4.49,2.89,7.48,5.84,10.37,1.36,1.34,2.67,2.62,3.63,4,.83,1.19,1.24,3.14,1.24,3.14,0,0,.41-1.95,1.24-3.14.96-1.38,2.26-2.66,3.63-4,2.95-2.89,6-5.88,5.84-10.37,0-1.68-.65-3.26-1.85-4.44-.98-.96-2.26-1.44-3.53-1.44s-2.61.5-3.6,1.51c-.77.79-1.19,1.83-1.18,2.93.01,1.1.45,2.13,1.24,2.91.65.64,1.5.97,2.41.97.43,0,.85-.09,1.24-.25-.87,3.13-3.58,5.22-4.96,6.28-.17.13-.31.24-.43.34-.12-.1-.27-.21-.43-.34-1.37-1.06-4.07-3.14-4.95-6.25,0,0,0,0,0,0,.37.14.76.21,1.16.22.91,0,1.76-.34,2.41-.97.79-.77,1.22-1.8,1.23-2.91.01-1.1-.41-2.14-1.18-2.93-.99-1-2.29-1.51-3.6-1.51s-2.55.48-3.53,1.44c-1.2,1.18-1.86,2.76-1.85,4.44m-1.07,14.33c-.58,1.05-.97,1.74-.97,2.9,0,.93.76,1.69,1.69,1.69s1.69-.76,1.69-1.69c0-1.16-.39-1.85-.97-2.9-.22-.4-.47-.84-.72-1.36-.25.52-.49.96-.72,1.36m-20.15-14.31h0v-.02c0-1.44.55-2.79,1.58-3.79,1.63-1.6,4.25-1.57,5.84.05.6.61.93,1.42.92,2.28,0,.86-.35,1.66-.96,2.26-.47.46-1.08.71-1.74.71h-.02c-.66,0-1.28-.27-1.75-.74-.73-.75-.72-1.95.02-2.68.56-.55,1.46-.54,2.01.02.97.9-.09,2.55-.09,2.55.27-.07.52-.22.72-.41.77-.76.78-2,.02-2.77-.9-.92-2.38-.93-3.3-.03-1.1,1.08-1.12,2.86-.04,3.97.05.05.1.1.16.14,0,0,0,0,0,0,.65,3.91,3.89,6.41,5.47,7.63.31.24.57.44.68.56l.3.31.3-.31c.11-.12.38-.32.68-.56,1.59-1.23,4.87-3.75,5.48-7.71t0,0s.05-.04.07-.06c1.08-1.1,1.07-2.88-.04-3.97-.92-.9-2.4-.89-3.3.03-.76.77-.75,2.01.02,2.77.2.2.45.34.72.41,0,0-1.06-1.64-.09-2.55.55-.56,1.45-.57,2.01-.02.75.73.76,1.93.02,2.68-.46.47-1.09.74-1.75.74h-.02c-.65,0-1.27-.25-1.74-.71-.61-.6-.95-1.41-.96-2.26,0-.86.32-1.67.92-2.28,1.6-1.63,4.22-1.65,5.84-.05,1.03,1.01,1.59,2.35,1.58,3.79h0v.02c.15,4.09-2.76,6.94-5.57,9.69-1.57,1.54-3.19,3.12-4.23,4.9-1.04-1.78-2.66-3.37-4.23-4.9-2.81-2.75-5.72-5.6-5.57-9.69m-.91-.02c-.16,4.49,2.89,7.48,5.84,10.37,1.36,1.34,2.67,2.62,3.63,4,.83,1.19,1.24,3.14,1.24,3.14,0,0,.41-1.95,1.24-3.14.96-1.38,2.26-2.66,3.63-4,2.95-2.89,6-5.88,5.84-10.37,0-1.68-.65-3.26-1.85-4.44-.98-.96-2.26-1.44-3.53-1.44s-2.61.5-3.6,1.51c-.77.79-1.19,1.83-1.18,2.93s.45,2.13,1.23,2.91c.65.64,1.5.97,2.41.97.43,0,.85-.09,1.24-.25-.87,3.13-3.58,5.22-4.96,6.28-.17.13-.31.24-.43.34-.12-.1-.27-.21-.43-.34-1.37-1.06-4.07-3.14-4.95-6.25,0,0,0,0,0,0,.37.14.76.21,1.16.22.91,0,1.76-.34,2.41-.97.79-.77,1.22-1.8,1.23-2.91,0-1.1-.41-2.14-1.18-2.93-.99-1-2.29-1.51-3.6-1.51s-2.55.48-3.53,1.44c-1.2,1.18-1.86,2.76-1.85,4.44m-1.07,14.33c-.58,1.05-.97,1.74-.97,2.9,0,.93.76,1.69,1.69,1.69s1.69-.76,1.69-1.69c0-1.16-.39-1.85-.97-2.9-.22-.4-.47-.84-.72-1.36-.25.52-.49.96-.72,1.36m-20.15-14.31h0v-.02c0-1.44.55-2.79,1.58-3.79,1.63-1.6,4.25-1.57,5.84.05.6.61.93,1.42.92,2.28,0,.86-.35,1.66-.96,2.26-.47.46-1.08.71-1.74.71h-.02c-.66,0-1.28-.27-1.75-.74-.73-.75-.72-1.95.02-2.68.56-.55,1.46-.54,2.01.02.97.9-.09,2.55-.09,2.55.27-.07.52-.22.72-.41.77-.76.78-2,.03-2.77-.9-.92-2.38-.93-3.3-.03-1.1,1.08-1.12,2.86-.04,3.97.05.05.1.1.16.14,0,0,0,0,0,0,.65,3.91,3.89,6.41,5.47,7.63.31.24.57.44.68.56l.3.31.3-.31c.11-.12.38-.32.68-.56,1.59-1.23,4.87-3.75,5.48-7.71t0,0s.05-.04.07-.06c1.08-1.1,1.07-2.88-.04-3.97-.92-.9-2.4-.89-3.3.03-.76.77-.75,2.01.02,2.77.2.2.45.34.72.41,0,0-1.06-1.64-.09-2.55.55-.56,1.45-.57,2.01-.02.75.73.76,1.93.02,2.68-.46.47-1.09.74-1.75.74h-.02c-.65,0-1.27-.25-1.74-.71-.61-.6-.95-1.41-.96-2.26,0-.86.32-1.67.92-2.28,1.6-1.63,4.22-1.65,5.84-.05,1.03,1.01,1.59,2.35,1.58,3.79h0s0,.02,0,.02c.15,4.09-2.76,6.94-5.57,9.69-1.57,1.54-3.19,3.12-4.23,4.9-1.04-1.78-2.66-3.37-4.23-4.9-2.81-2.75-5.72-5.6-5.57-9.69m-.91-.02c-.16,4.49,2.89,7.48,5.84,10.37,1.36,1.34,2.67,2.62,3.63,4,.83,1.19,1.24,3.14,1.24,3.14,0,0,.41-1.95,1.24-3.14.96-1.38,2.26-2.66,3.63-4,2.95-2.89,6-5.88,5.84-10.37,0-1.68-.65-3.26-1.85-4.44-.98-.96-2.26-1.44-3.53-1.44s-2.61.5-3.6,1.51c-.77.79-1.19,1.83-1.18,2.93.01,1.1.45,2.13,1.23,2.91.65.64,1.5.97,2.41.97.43,0,.85-.09,1.24-.25-.87,3.13-3.58,5.22-4.96,6.28-.17.13-.31.24-.43.34-.12-.1-.27-.21-.43-.34-1.37-1.06-4.07-3.14-4.95-6.25,0,0,0,0,0,0,.37.14.75.21,1.16.22.91,0,1.76-.34,2.41-.97.79-.77,1.22-1.8,1.24-2.91,0-1.1-.41-2.14-1.18-2.93-.99-1-2.29-1.51-3.6-1.51s-2.55.48-3.53,1.44c-1.2,1.18-1.86,2.76-1.85,4.44m-1.07,14.33c-.58,1.05-.97,1.74-.97,2.9,0,.93.76,1.69,1.69,1.69s1.69-.76,1.69-1.69c0-1.16-.39-1.85-.97-2.9-.22-.4-.47-.84-.72-1.36-.25.52-.49.96-.72,1.36m-20.15-14.31h0v-.02c0-1.44.55-2.79,1.58-3.79,1.62-1.6,4.25-1.57,5.84.05.6.61.93,1.42.92,2.28,0,.86-.35,1.66-.96,2.26-.47.46-1.08.71-1.74.71h-.02c-.66,0-1.28-.27-1.75-.74-.73-.75-.72-1.95.02-2.68.56-.55,1.46-.54,2.01.02.97.9-.09,2.55-.09,2.55.27-.07.52-.22.72-.41.77-.76.78-2,.03-2.77-.9-.92-2.38-.93-3.3-.03-1.1,1.08-1.12,2.86-.04,3.97.05.05.1.1.16.14t0,0c.65,3.91,3.89,6.41,5.47,7.63.31.24.57.44.68.56l.3.31.3-.31c.11-.12.38-.32.68-.56,1.59-1.23,4.87-3.75,5.49-7.71,0,0,0,0,0,0,.02-.02.05-.04.07-.06,1.08-1.1,1.07-2.88-.04-3.97-.92-.9-2.4-.89-3.3.03-.76.77-.75,2.01.03,2.77.2.2.45.34.72.41,0,0-1.06-1.64-.09-2.55.55-.56,1.45-.57,2.01-.02.74.73.76,1.93.02,2.68-.46.47-1.08.74-1.75.74h-.02c-.65,0-1.27-.25-1.74-.71-.61-.6-.95-1.41-.96-2.26,0-.86.32-1.67.92-2.28,1.6-1.63,4.22-1.65,5.84-.05,1.03,1.01,1.59,2.35,1.58,3.79h0v.02c.15,4.09-2.76,6.94-5.57,9.69-1.57,1.54-3.19,3.12-4.23,4.9-1.04-1.78-2.66-3.37-4.23-4.9-2.81-2.75-5.72-5.6-5.57-9.69m-.91-.02c-.16,4.49,2.89,7.48,5.84,10.37,1.36,1.34,2.67,2.62,3.63,4,.83,1.19,1.24,3.14,1.24,3.14,0,0,.41-1.95,1.24-3.14.96-1.38,2.26-2.66,3.63-4,2.95-2.89,6-5.88,5.84-10.37,0-1.68-.65-3.26-1.85-4.44-.98-.96-2.26-1.44-3.53-1.44s-2.61.5-3.6,1.51c-.77.79-1.19,1.83-1.18,2.93,0,1.1.45,2.13,1.23,2.91.65.64,1.5.97,2.41.97.43,0,.85-.09,1.24-.25-.87,3.13-3.58,5.22-4.96,6.28-.17.13-.31.24-.43.34-.12-.1-.27-.21-.43-.34-1.37-1.06-4.07-3.14-4.95-6.25,0,0,0,0,0,0,.37.14.75.21,1.16.22.91,0,1.76-.34,2.41-.97.79-.77,1.22-1.8,1.23-2.91s-.41-2.14-1.18-2.93c-.99-1-2.29-1.51-3.6-1.51s-2.55.48-3.53,1.44c-1.2,1.18-1.86,2.76-1.85,4.44m-1.07,14.33c-.58,1.05-.97,1.74-.97,2.9,0,.93.76,1.69,1.69,1.69s1.69-.76,1.69-1.69c0-1.16-.39-1.85-.97-2.9-.22-.4-.47-.84-.72-1.36-.25.52-.49.96-.72,1.36m-20.15-14.31h0v-.02c0-1.44.55-2.79,1.58-3.79,1.62-1.6,4.25-1.57,5.84.05.6.61.93,1.42.92,2.28,0,.86-.35,1.66-.96,2.26-.47.46-1.08.71-1.74.71h-.02c-.66,0-1.28-.27-1.75-.74-.73-.75-.72-1.95.02-2.68.56-.55,1.46-.54,2.01.02.97.9-.09,2.55-.09,2.55.27-.07.52-.22.72-.41.77-.76.78-2,.02-2.77-.9-.92-2.38-.93-3.3-.03-1.1,1.08-1.12,2.86-.04,3.97.05.05.1.1.16.14t0,0c.65,3.91,3.89,6.41,5.47,7.63.31.24.57.44.68.56l.3.31.3-.31c.11-.12.38-.32.68-.56,1.59-1.23,4.87-3.75,5.48-7.71h0s.04-.04.07-.06c1.08-1.1,1.07-2.88-.04-3.97-.92-.9-2.4-.89-3.3.03-.76.77-.75,2.01.02,2.77.2.2.45.34.72.41,0,0-1.06-1.64-.09-2.55.55-.56,1.45-.57,2.01-.02.75.73.76,1.93.02,2.68-.46.47-1.09.74-1.75.74h-.02c-.66,0-1.27-.25-1.74-.71-.61-.6-.95-1.41-.96-2.26,0-.86.32-1.67.92-2.28,1.6-1.63,4.22-1.65,5.84-.05,1.03,1.01,1.59,2.35,1.58,3.79h0v.02c.15,4.09-2.76,6.94-5.57,9.69-1.57,1.54-3.19,3.12-4.23,4.9-1.04-1.78-2.66-3.37-4.23-4.9-2.81-2.75-5.72-5.6-5.57-9.69m-.91-.02c-.16,4.49,2.89,7.48,5.84,10.37,1.36,1.34,2.67,2.62,3.63,4,.83,1.19,1.24,3.14,1.24,3.14,0,0,.41-1.95,1.24-3.14.96-1.38,2.26-2.66,3.63-4,2.95-2.89,6-5.88,5.84-10.37,0-1.68-.65-3.26-1.85-4.44-.98-.96-2.26-1.44-3.53-1.44s-2.61.5-3.6,1.51c-.77.79-1.19,1.83-1.18,2.93s.45,2.13,1.24,2.91c.65.64,1.5.97,2.41.97.43,0,.85-.09,1.24-.25-.87,3.13-3.58,5.22-4.96,6.28-.17.13-.31.24-.43.34-.12-.1-.27-.21-.43-.34-1.37-1.06-4.07-3.14-4.95-6.25,0,0,0,0,0,0,.37.14.75.21,1.16.22.91,0,1.76-.34,2.41-.97.79-.77,1.22-1.8,1.23-2.91s-.41-2.14-1.18-2.93c-.99-1-2.29-1.51-3.6-1.51s-2.55.48-3.53,1.44c-1.2,1.18-1.86,2.76-1.85,4.44m-1.07,14.33c-.58,1.05-.97,1.74-.97,2.9,0,.93.76,1.69,1.69,1.69s1.69-.76,1.69-1.69c0-1.16-.39-1.85-.97-2.9-.22-.4-.47-.84-.72-1.36-.25.52-.49.96-.72,1.36m-20.15-14.31h0v-.02c0-1.44.55-2.79,1.58-3.79,1.63-1.6,4.25-1.57,5.84.05.6.61.93,1.42.92,2.28,0,.86-.35,1.66-.96,2.26-.47.46-1.08.71-1.74.71h-.02c-.66,0-1.28-.27-1.75-.74-.73-.75-.72-1.95.02-2.68.56-.55,1.46-.54,2.01.02.97.9-.09,2.55-.09,2.55.27-.07.52-.22.72-.41.77-.76.78-2,.02-2.77-.9-.92-2.38-.93-3.3-.03-1.1,1.08-1.12,2.86-.04,3.97.05.05.1.1.16.14,0,0,0,0,0,0,.65,3.91,3.89,6.41,5.47,7.63.31.24.57.44.68.56l.3.31.3-.31c.11-.12.38-.32.68-.56,1.59-1.23,4.87-3.75,5.48-7.71h0s.04-.04.07-.06c1.08-1.1,1.07-2.88-.04-3.97-.92-.9-2.4-.89-3.3.03-.76.77-.75,2.01.02,2.77.2.2.45.34.72.41,0,0-1.06-1.64-.09-2.55.55-.56,1.45-.57,2.01-.02.75.73.76,1.93.02,2.68-.46.47-1.09.74-1.75.74h-.02c-.65,0-1.27-.25-1.74-.71-.61-.6-.95-1.41-.96-2.26,0-.86.32-1.67.92-2.28,1.6-1.63,4.22-1.65,5.84-.05,1.03,1.01,1.59,2.35,1.58,3.79h0s0,.02,0,.02c.15,4.09-2.76,6.94-5.57,9.69-1.57,1.54-3.19,3.12-4.23,4.9-1.04-1.78-2.66-3.37-4.23-4.9-2.81-2.75-5.72-5.6-5.57-9.69m-.91-.02c-.16,4.49,2.89,7.48,5.84,10.37,1.36,1.34,2.67,2.62,3.63,4,.83,1.19,1.24,3.14,1.24,3.14,0,0,.41-1.95,1.24-3.14.96-1.38,2.26-2.66,3.63-4,2.95-2.89,6-5.88,5.84-10.37,0-1.68-.65-3.26-1.85-4.44-.98-.96-2.26-1.44-3.53-1.44s-2.61.5-3.6,1.51c-.77.79-1.19,1.83-1.18,2.93s.45,2.13,1.23,2.91c.65.64,1.5.97,2.41.97.43,0,.85-.09,1.24-.25-.87,3.13-3.58,5.22-4.96,6.28-.17.13-.31.24-.43.34-.12-.1-.27-.21-.43-.34-1.37-1.06-4.07-3.14-4.95-6.25,0,0,0,0,0,0,.37.14.75.21,1.16.22.91,0,1.76-.34,2.41-.97.79-.77,1.22-1.8,1.23-2.91,0-1.1-.41-2.14-1.18-2.93-.99-1-2.29-1.51-3.6-1.51s-2.55.48-3.53,1.44c-1.2,1.18-1.86,2.76-1.85,4.44m-1.07,14.33c-.58,1.05-.97,1.74-.97,2.9,0,.93.76,1.69,1.69,1.69s1.69-.76,1.69-1.69c0-1.16-.39-1.85-.97-2.9-.22-.4-.47-.84-.72-1.36-.25.52-.49.96-.72,1.36m-20.15-14.31h0v-.02c0-1.44.55-2.79,1.58-3.79,1.63-1.6,4.25-1.57,5.84.05.6.61.93,1.42.92,2.28,0,.86-.35,1.66-.96,2.26-.47.46-1.08.71-1.74.71h-.02c-.66,0-1.28-.27-1.75-.74-.73-.75-.72-1.95.02-2.68.56-.55,1.46-.54,2.01.02.97.9-.09,2.55-.09,2.55.27-.07.52-.22.72-.41.77-.76.78-2,.02-2.77-.9-.92-2.38-.93-3.3-.03-1.1,1.08-1.12,2.86-.04,3.97.05.05.1.1.16.14,0,0,0,0,0,0,.65,3.91,3.89,6.41,5.47,7.63.31.24.57.44.68.56l.3.31.3-.31c.11-.12.38-.32.68-.56,1.59-1.23,4.87-3.75,5.48-7.71h0s.04-.04.07-.06c1.08-1.1,1.07-2.88-.04-3.97-.92-.9-2.4-.89-3.3.03-.76.77-.75,2.01.02,2.77.2.2.45.34.72.41,0,0-1.06-1.64-.09-2.55.55-.56,1.45-.57,2.01-.02.74.73.76,1.93.02,2.68-.46.47-1.09.74-1.75.74h-.02c-.65,0-1.27-.25-1.74-.71-.61-.6-.95-1.41-.96-2.26,0-.86.32-1.67.92-2.28,1.6-1.63,4.22-1.65,5.84-.05,1.03,1.01,1.59,2.35,1.58,3.79h0s0,.02,0,.02c.15,4.09-2.76,6.94-5.57,9.69-1.57,1.54-3.19,3.12-4.23,4.9-1.04-1.78-2.66-3.37-4.23-4.9-2.81-2.75-5.72-5.6-5.57-9.69m-.91-.02c-.16,4.49,2.89,7.48,5.84,10.37,1.36,1.34,2.67,2.62,3.63,4,.83,1.19,1.24,3.14,1.24,3.14,0,0,.41-1.95,1.24-3.14.96-1.38,2.26-2.66,3.63-4,2.95-2.89,6-5.88,5.84-10.37,0-1.68-.65-3.26-1.85-4.44-.98-.96-2.26-1.44-3.53-1.44s-2.61.5-3.6,1.51c-.77.79-1.19,1.83-1.18,2.93,0,1.1.45,2.13,1.23,2.91.65.64,1.5.97,2.41.97.43,0,.85-.09,1.24-.25-.87,3.13-3.58,5.22-4.96,6.28-.16.13-.31.24-.43.34-.12-.1-.27-.21-.43-.34-1.37-1.06-4.07-3.14-4.95-6.25,0,0,0,0,0,0,.37.14.76.21,1.16.22.91,0,1.76-.34,2.41-.97.79-.77,1.22-1.8,1.24-2.91,0-1.1-.41-2.14-1.18-2.93-.99-1-2.29-1.51-3.6-1.51s-2.55.48-3.53,1.44c-1.2,1.18-1.86,2.76-1.85,4.44m-1.07,14.33c-.58,1.05-.97,1.74-.97,2.9,0,.93.76,1.69,1.69,1.69s1.69-.76,1.69-1.69c0-1.16-.39-1.85-.97-2.9-.22-.4-.47-.84-.72-1.36-.25.52-.49.96-.72,1.36m-20.15-14.31h0s0-.02,0-.02c0-1.44.55-2.79,1.58-3.79,1.62-1.6,4.25-1.57,5.84.05.6.61.93,1.42.92,2.28,0,.86-.35,1.66-.96,2.26-.47.46-1.08.71-1.74.71h-.02c-.66,0-1.28-.27-1.75-.74-.73-.75-.72-1.95.02-2.68.56-.55,1.46-.54,2.01.02.97.9-.09,2.55-.09,2.55.27-.07.52-.22.72-.41.77-.76.78-2,.02-2.77-.9-.92-2.38-.93-3.3-.03-1.1,1.08-1.12,2.86-.04,3.97.05.05.1.1.16.14h0c.65,3.91,3.89,6.41,5.47,7.63.31.24.57.44.68.56l.3.31.3-.31c.11-.12.38-.32.68-.56,1.59-1.23,4.87-3.75,5.49-7.71,0,0,0,0,0,0,.02-.02.04-.04.07-.06,1.08-1.1,1.07-2.88-.04-3.97-.92-.9-2.4-.89-3.3.03-.76.77-.75,2.01.02,2.77.2.2.45.34.72.41,0,0-1.06-1.64-.09-2.55.55-.56,1.45-.57,2.01-.02.75.73.76,1.93.02,2.68-.46.47-1.09.74-1.75.74h-.02c-.65,0-1.27-.25-1.74-.71-.61-.6-.95-1.41-.96-2.26,0-.86.32-1.67.92-2.28,1.6-1.63,4.22-1.65,5.84-.05,1.03,1.01,1.59,2.35,1.58,3.79h0v.02c.15,4.09-2.76,6.94-5.57,9.69-1.57,1.54-3.19,3.12-4.23,4.9-1.04-1.78-2.66-3.37-4.23-4.9-2.81-2.75-5.72-5.6-5.57-9.69m-.91-.02c-.16,4.49,2.89,7.48,5.84,10.37,1.36,1.34,2.67,2.62,3.63,4,.83,1.19,1.24,3.14,1.24,3.14,0,0,.41-1.95,1.24-3.14.96-1.38,2.26-2.66,3.63-4,2.95-2.89,6-5.88,5.84-10.37,0-1.68-.65-3.26-1.85-4.44-.98-.96-2.26-1.44-3.53-1.44s-2.61.5-3.6,1.51c-.77.79-1.19,1.83-1.18,2.93.01,1.1.45,2.13,1.24,2.91.65.64,1.5.97,2.41.97.43,0,.85-.09,1.24-.25-.87,3.13-3.58,5.22-4.96,6.28-.16.13-.31.24-.43.34-.12-.1-.27-.21-.43-.34-1.37-1.06-4.07-3.14-4.95-6.25,0,0,0,0,0,0,.37.14.75.21,1.16.22.91,0,1.76-.34,2.41-.97.79-.77,1.22-1.8,1.23-2.91.01-1.1-.41-2.14-1.18-2.93-.99-1-2.29-1.51-3.6-1.51s-2.55.48-3.53,1.44c-1.2,1.18-1.86,2.76-1.85,4.44m-1.07,14.33c-.58,1.05-.97,1.74-.97,2.9,0,.93.76,1.69,1.69,1.69s1.69-.76,1.69-1.69c0-1.16-.39-1.85-.97-2.9-.22-.4-.47-.84-.72-1.36-.25.52-.49.96-.72,1.36m-20.15-14.31h0v-.02c0-1.44.55-2.79,1.58-3.79,1.63-1.6,4.25-1.57,5.84.05.6.61.93,1.42.92,2.28,0,.86-.35,1.66-.96,2.26-.47.46-1.08.71-1.74.71h-.02c-.66,0-1.28-.27-1.75-.74-.73-.75-.72-1.95.02-2.68.56-.55,1.46-.54,2.01.02.97.9-.09,2.55-.09,2.55.27-.07.52-.22.72-.41.77-.76.78-2,.02-2.77-.9-.92-2.38-.93-3.3-.03-1.1,1.08-1.12,2.86-.04,3.97.05.05.1.1.16.14t0,0c.65,3.91,3.89,6.41,5.47,7.63.31.24.57.44.68.56l.3.31.3-.31c.11-.12.38-.32.68-.56,1.59-1.23,4.87-3.75,5.48-7.71h0s.04-.04.07-.06c1.08-1.1,1.07-2.88-.04-3.97-.92-.9-2.4-.89-3.3.03-.76.77-.75,2.01.02,2.77.2.2.45.34.72.41,0,0-1.06-1.64-.09-2.55.55-.56,1.45-.57,2.01-.02.75.73.76,1.93.02,2.68-.46.47-1.09.74-1.75.74h-.02c-.65,0-1.27-.25-1.74-.71-.61-.6-.95-1.41-.96-2.26,0-.86.32-1.67.92-2.28,1.6-1.63,4.22-1.65,5.84-.05,1.03,1.01,1.59,2.35,1.58,3.79h0v.02c.15,4.09-2.76,6.94-5.57,9.69-1.57,1.54-3.19,3.12-4.23,4.9-1.04-1.78-2.66-3.37-4.23-4.9-2.81-2.75-5.72-5.6-5.57-9.69m-.91-.02c-.16,4.49,2.89,7.48,5.84,10.37,1.36,1.34,2.67,2.62,3.63,4,.83,1.19,1.24,3.14,1.24,3.14,0,0,.41-1.95,1.24-3.14.96-1.38,2.26-2.66,3.63-4,2.95-2.89,6-5.88,5.84-10.37,0-1.68-.65-3.26-1.85-4.44-.98-.96-2.26-1.44-3.53-1.44s-2.61.5-3.6,1.51c-.77.79-1.19,1.83-1.18,2.93s.45,2.13,1.23,2.91c.65.64,1.5.97,2.41.97.43,0,.85-.09,1.24-.25-.87,3.13-3.58,5.22-4.96,6.28-.16.13-.31.24-.43.34-.12-.1-.27-.21-.43-.34-1.37-1.06-4.07-3.14-4.95-6.25,0,0,0,0,0,0,.37.14.75.21,1.16.22.91,0,1.76-.34,2.41-.97.79-.77,1.22-1.8,1.23-2.91,0-1.1-.41-2.14-1.18-2.93-.99-1-2.29-1.51-3.6-1.51s-2.55.48-3.53,1.44c-1.2,1.18-1.86,2.76-1.85,4.44m-1.07,14.33c-.58,1.05-.97,1.74-.97,2.9,0,.93.76,1.69,1.69,1.69s1.69-.76,1.69-1.69c0-1.16-.39-1.85-.97-2.9-.22-.4-.47-.84-.72-1.36-.25.52-.49.96-.72,1.36m-20.15-14.31h0v-.02c0-1.44.55-2.79,1.58-3.79,1.63-1.6,4.25-1.57,5.84.05.6.61.93,1.42.92,2.28,0,.86-.35,1.66-.96,2.26-.47.46-1.08.71-1.74.71h-.02c-.66,0-1.28-.27-1.75-.74-.73-.75-.72-1.95.02-2.68.56-.55,1.46-.54,2.01.02.97.9-.09,2.55-.09,2.55.27-.07.52-.22.72-.41.77-.76.78-2,.02-2.77-.9-.92-2.38-.93-3.3-.03-1.1,1.08-1.12,2.86-.04,3.97.05.05.1.1.16.14,0,0,0,0,0,0,.65,3.91,3.89,6.41,5.47,7.63.31.24.57.44.68.56l.3.31.3-.31c.11-.12.38-.32.68-.56,1.59-1.23,4.87-3.75,5.48-7.71h0s.04-.04.07-.06c1.08-1.1,1.07-2.88-.04-3.97-.92-.9-2.4-.89-3.3.03-.76.77-.75,2.01.02,2.77.2.2.45.34.72.41,0,0-1.06-1.64-.09-2.55.55-.56,1.45-.57,2.01-.02.74.73.76,1.93.02,2.68-.46.47-1.09.74-1.75.74h-.02c-.65,0-1.27-.25-1.74-.71-.61-.6-.95-1.41-.96-2.26,0-.86.32-1.67.92-2.28,1.6-1.63,4.22-1.65,5.84-.05,1.03,1.01,1.59,2.35,1.58,3.79h0s0,.02,0,.02c.15,4.09-2.76,6.94-5.57,9.69-1.57,1.54-3.19,3.12-4.23,4.9-1.04-1.78-2.66-3.37-4.23-4.9-2.81-2.75-5.72-5.6-5.57-9.69m-.91-.02c-.16,4.49,2.89,7.48,5.84,10.37,1.36,1.34,2.67,2.62,3.63,4,.83,1.19,1.24,3.14,1.24,3.14,0,0,.41-1.95,1.24-3.14.96-1.38,2.26-2.66,3.63-4,2.95-2.89,6-5.88,5.84-10.37,0-1.68-.65-3.26-1.85-4.44-.98-.96-2.26-1.44-3.53-1.44s-2.61.5-3.6,1.51c-.77.79-1.19,1.83-1.18,2.93s.45,2.13,1.23,2.91c.65.64,1.5.97,2.41.97.43,0,.85-.09,1.24-.25-.87,3.13-3.58,5.22-4.96,6.28-.17.13-.31.24-.43.34-.12-.1-.27-.21-.43-.34-1.37-1.06-4.07-3.14-4.95-6.25,0,0,0,0,0,0,.37.14.75.21,1.16.22.91,0,1.76-.34,2.41-.97.79-.77,1.22-1.8,1.24-2.91,0-1.1-.41-2.14-1.18-2.93-.99-1-2.29-1.51-3.6-1.51s-2.55.48-3.53,1.44c-1.2,1.18-1.86,2.76-1.85,4.44m-1.07,14.33c-.58,1.05-.97,1.74-.97,2.9,0,.93.76,1.69,1.69,1.69s1.69-.76,1.69-1.69c0-1.16-.39-1.85-.97-2.9-.22-.4-.47-.84-.72-1.36-.25.52-.49.96-.72,1.36m-20.15-14.31h0v-.02c0-1.44.55-2.79,1.58-3.79,1.62-1.6,4.25-1.57,5.84.05.6.61.93,1.42.92,2.28,0,.86-.35,1.66-.96,2.26-.47.46-1.08.71-1.74.71h-.02c-.66,0-1.28-.27-1.75-.74-.73-.75-.72-1.95.02-2.68.56-.55,1.46-.54,2.01.02.97.9-.09,2.55-.09,2.55.27-.07.52-.22.72-.41.77-.76.78-2,.03-2.77-.9-.92-2.38-.93-3.3-.03-1.1,1.08-1.12,2.86-.04,3.97.05.05.1.1.16.14,0,0,0,0,0,0,.65,3.91,3.89,6.41,5.47,7.63.31.24.57.44.68.56l.3.31.3-.31c.11-.12.38-.32.68-.56,1.59-1.23,4.87-3.75,5.48-7.71,0,0,0,0,0,0,.02-.02.05-.04.07-.06,1.08-1.1,1.07-2.88-.04-3.97-.92-.9-2.4-.89-3.3.03-.76.77-.75,2.01.03,2.77.2.2.45.34.72.41,0,0-1.06-1.64-.09-2.55.55-.56,1.45-.57,2.01-.02.74.73.76,1.93.02,2.68-.46.47-1.08.74-1.75.74h-.02c-.65,0-1.27-.25-1.74-.71-.61-.6-.95-1.41-.96-2.26,0-.86.32-1.67.92-2.28,1.6-1.63,4.22-1.65,5.84-.05,1.03,1.01,1.59,2.35,1.58,3.79h0s0,.02,0,.02c.15,4.09-2.76,6.94-5.57,9.69-1.57,1.54-3.19,3.12-4.23,4.9-1.04-1.78-2.66-3.37-4.23-4.9-2.81-2.75-5.72-5.6-5.57-9.69m-.91-.02c-.16,4.49,2.89,7.48,5.84,10.37,1.36,1.34,2.67,2.62,3.63,4,.83,1.19,1.24,3.14,1.24,3.14,0,0,.41-1.95,1.24-3.14.96-1.38,2.26-2.66,3.63-4,2.95-2.89,6-5.88,5.84-10.37,0-1.68-.65-3.26-1.85-4.44-.98-.96-2.26-1.44-3.53-1.44s-2.61.5-3.6,1.51c-.77.79-1.19,1.83-1.18,2.93,0,1.1.45,2.13,1.23,2.91.65.64,1.5.97,2.41.97.43,0,.85-.09,1.24-.25-.87,3.13-3.58,5.22-4.96,6.28-.17.13-.31.24-.43.34-.12-.1-.27-.21-.43-.34-1.37-1.06-4.07-3.14-4.95-6.25,0,0,0,0,0,0,.37.14.75.21,1.16.22.91,0,1.76-.34,2.41-.97.79-.77,1.22-1.8,1.23-2.91s-.41-2.14-1.18-2.93c-.99-1-2.29-1.51-3.6-1.51s-2.55.48-3.53,1.44c-1.2,1.18-1.86,2.76-1.85,4.44m.36,14.33c-.22-.4-.47-.84-.72-1.36v5.95c.93,0,1.69-.76,1.69-1.69,0-1.16-.39-1.85-.97-2.9m-.72-25.3h309.93v-2.73h-309.93v2.73Zm0,3.3h309.93v-.91h-309.93v.91Zm309.93,26.59v-5.95c-.25.52-.49.96-.72,1.36-.58,1.05-.97,1.74-.97,2.9,0,.93.76,1.69,1.69,1.69m0-29.89h309.93v-2.73h-309.93v2.73Zm0,3.3h309.93v-.91h-309.93v.91Zm309.93,26.59v-5.95c-.25.52-.49.96-.72,1.36-.58,1.05-.97,1.74-.97,2.9,0,.93.76,1.69,1.69,1.69"></path>
</svg>
