<?xml version="1.0" encoding="UTF-8"?><svg id="Layer_2" xmlns="http://www.w3.org/2000/svg" width="10656.69" height="1161.0918" xmlns:xlink="http://www.w3.org/1999/xlink" viewBox="0 0 10656.69 1161.0918"><defs><clipPath id="clippath"><rect width="10656.69" height="1161.0918" style="fill:none;"/></clipPath></defs><g id="Layer_1-2"><g style="clip-path:url(#clippath);"><path d="M3673.811,987.0857c-14.5164,3.4265-28.9244,7.4334-43.572,10.1546-27.5707,5.122-55.3714,5.8453-83.4125,4.1398-28.6601-1.7432-56.8298-6.0756-84.655-12.7228-51.0646-12.199-99.886-30.3883-145.5355-56.4964-14.1367-8.0851-27.1969-17.726-39.5828-28.485-29.0547-25.2387-63.1636-39.9866-101.0731-46.4028-50.1418-8.4865-99.4029-2.728-148.2751,8.8638-53.2938,12.6405-103.9523,32.5947-153.4289,55.806-63.6506,29.8607-123.9465,65.5973-183.1905,103.2657-45.8678,29.1635-93.8863,54.1216-145.7114,71.1591-33.9938,11.1753-68.7717,18.1062-104.7285,17.6676-93.2399-1.137-157.4996-59.9607-181.5823-136.0117-7.8259-24.7131-28.1148-40.1223-54.0819-40.9077-25.7189-.778-49.2021,7.153-72.0494,17.4323-24.2403,10.906-48.0097,22.8535-72.2174,33.8347-16.9699,7.698-34.5001,14.0172-52.9677,17.2978-1.6375.2909-3.2835.5424-4.9321.7625-27.5465,3.6776-39.5638-9.4329-41.5547-35.4604-1.109-14.4962,3.8979-28.1624,8.2296-41.7362,12.8481-40.2611,29.4109-79.0682,46.7455-117.5543,6.8217-15.1457,14.2073-30.0398,20.9308-45.2276,10.4056-23.5053,17.9891-47.8524,19.6659-73.6767,1.0052-15.4805-1.2107-30.3692-10.8922-45.376-.4294,3.3223-.9278,5.0307-.8252,6.7021,1.8954,30.8566-10.0281,57.0869-27.3736,81.4518-14.3757,20.193-32.4581,36.7695-51.3335,52.6577-20.8553,17.5548-41.1214,35.7608-58.1837,57.2343-4.0948,5.1535-6.2583,10.6202-7.1705,17.03-1.0696,7.516-2.5266,15.0233-4.5518,22.3308-.6678,2.4093-3.3503,5.4901-5.5954,5.9608-3.8429.8057-5.7393-2.6733-6.3139-6.1811-.4679-2.8558-1.0479-5.9362-.4487-8.67,1.0553-4.8169,1.9458-10.1896,4.7233-14.0113,7.915-10.8906,8.6694-23.469,9.4794-35.8858,2.4221-37.1292,8.1815-73.7994,15.5543-110.1634,12.3228-60.7776,25.6455-121.3528,38.5042-182.0223.4673-2.2048.4815-4.5054.7515-7.2091-4.9947-1.6021-9.6623-3.0993-15.101-4.8438-1.0266,2.9266-2.2207,5.5201-2.8496,8.2438-11.7875,51.0533-23.9771,102.0213-34.9961,153.2404-4.025,18.7095-5.5237,37.9911-7.6625,57.0689-3.2836,29.2872-6.1385,58.6226-9.148,87.9403-2.2329,21.7524-4.5556,43.4968-6.5955,65.2674-2.2555,24.0704-4.8299,48.1365-6.0556,72.2658-.5273,10.3806,2.3187,20.8935,3.0332,31.3869.6972,10.2419.9379,20.5412.7547,30.8042-.0778,4.3646-.1315,9.856-6.3334,10.8181-3.7056.5748-6.6413-3.0859-6.8056-10.4547-.3323-14.9189.2286-29.8561.2885-44.7863.025-6.2286.6174-12.639-.5849-18.6605-16.7968-84.1247-49.2214-161.757-97.9185-232.4723-15.8639-23.0367-33.6002-44.5539-55.7105-61.9957-6.7592-5.332-14.2021-9.8267-21.5081-14.4255-3.0187-1.9002-6.5009-3.0655-10.5768-4.9339-.8083,4.5941-1.758,8.3717-2.1038,12.2037-4.9568,54.9163,8.5536,105.0024,41.4695,149.1536,24.654,33.0694,49.2764,66.0618,69.8362,101.9013,19.8761,34.6481,37.8741,70.1772,50.8224,108.0488,6.6687,19.5052,12.7088,39.2375,11.7455,60.2376-1.1091,24.1825-8.4437,27.4414-29.5668,22.9244-21.0184-4.4947-39.9164-14.7395-58.5494-24.9881-60.5471-33.3028-116.7718-72.7695-168.0093-119.2095-.7032-.6372-1.6671-.9877-2.2853-1.3432-5.1884,8.5496-9.6616,17.4032-15.4943,25.248-16.2449,21.8493-39.042,33.4758-65.0286,39.4956-24.2959,5.6283-48.8396,5.0724-73.3923,2.1275-38.5732-4.6265-75.6994-14.2552-110.5678-31.8627-30.028-15.1634-56.3753-34.8856-78.6401-60.2343-52.2559-59.4937-117.3067-97.9502-194.088-117.0572-39.6283-9.8616-79.7766-14.7709-120.5715-13.0823-52.4972,2.173-102.8167,14.2407-149.7232,37.8599-44.9866,22.6526-92.2566,35.0551-142.3533,38.0269-51.4853,3.0543-102.2697-2.079-152.6413-12.2499-82.1974-16.5971-160.5949-44.6607-236.7485-79.2545-22.3943-10.173-44.3105-21.3946-66.4848-32.0547-2.9485-1.4174-6.1279-2.3554-9.2004-3.5154,0-2.6622,0-5.3244,0-7.9867,3.3826,1.1611,6.9824,1.9075,10.116,3.5442,75.3496,39.3566,153.4519,72.0043,235.2127,95.5189,50.2633,14.4558,101.4325,24.6527,153.6777,28.521,48.0726,3.5594,95.6738.5996,142.4101-12.1119,23.2428-6.3217,44.8201-16.6532,66.4946-26.8748,42.4907-20.0384,87.1694-32.05,134.1091-35.541,74.584-5.5468,145.6468,8.1321,213.4411,39.1712,46.9829,21.5107,86.6857,52.7867,120.8067,91.3758,36.828,41.6504,83.0495,67.6415,136.5012,81.6457,24.8721,6.5164,50.208,10.3784,75.7874,11.2035,26.8106.865,53.1092-2.7683,76.9753-16.5975,18.1599-10.5226,31.3023-25.4161,39.9726-44.5285,2.4892-5.4869,1.2832-8.7169-2.537-13.1266-10.6331-12.273-20.8689-24.944-30.4217-38.0678-3.5736-4.9094-5.6433-11.3269-6.9606-17.3695-2.4639-11.3027,2.2967-19.8474,12.357-24.4549,10.9544-5.017,22.1713-3.2854,28.8351,5.7454,4.2626,5.7766,7.7457,12.4761,10.0472,19.2787,5.7839,17.0946,5.1659,34.6897,1.3133,52.0787-1.0274,4.6375-.1876,7.4528,3.1139,10.4334,28.9093,26.0985,59.5723,49.9593,91.6788,71.9879,30.1845,20.7098,61.0453,40.3459,94.0945,56.2122,11.9312,5.7279,24.2771,11.0345,36.9745,14.6252,18.5347,5.2416,22.0538,1.9116,22.2272-17.2001.1237-13.6427-3.2075-27.6226-6.8756-40.9355-10.6543-38.6678-28.5878-74.2973-47.8411-109.284-21.1953-38.5156-46.0849-74.5275-73.1379-109.1632-27.2769-34.9223-42.8847-74.8755-46.5272-118.9208-1.6577-20.0445-1.7917-40.4709,4.7578-61.3837,6.2522,2.7174,12.4262,4.9635,18.1938,7.9844,23.3895,12.2503,41.8012,30.3934,58.6512,50.2839,31.2073,36.8385,54.6398,78.4822,74.9162,121.9999,16.8762,36.22,30.2205,73.7169,39.3086,112.6751.5159,2.2113,1.4367,4.3285,3.2888,6.5271,1.2404-10.9317,2.5943-21.8521,3.7004-32.7974,3.632-35.9417,7.2058-71.8894,10.7408-107.8408,2.5609-26.0472,3.9963-52.2548,7.7977-78.1175,4.5261-30.7926,10.3131-61.4507,16.8887-91.8793,7.9825-36.9395,17.3589-73.5785,26.2771-110.9552-7.576-4.0495-15.4563-8.1365-23.219-12.4355-19.6422-10.8778-37.662-23.851-51.8437-41.5004-15.4776-19.262-23.8043-41.0918-23.9918-66.0498-.1841-24.5005,5.7062-48.0191,10.7553-71.6675,4.2923-20.1044,9.5049-40.0118,13.8798-60.0999,2.766-12.7003,3.9545-25.5102-1.2265-38.089-2.9865-7.2508-6.9659-13.4737-13.8718-17.7414-2.2107-1.3661-3.4947-4.2283-5.2027-6.406,2.3999-1.5054,4.6731-4.0424,7.2194-4.3541,21.6585-2.6517,42.5061-.7616,60.9791,12.4455.7953.5686,1.7466.9302,2.651,1.3299.2849.1259.6543.0609.1071.0238,3.8724-7.1708,7.2417-14.2043,11.3945-20.7411,1.8802-2.9597,5.0967-5.2566,8.0925-7.2862,6.1535-4.1689,9.1109-3.6832,13.3265,2.3329,7.7525,11.0639,15.2436,22.3107,22.5882,33.1055,9.3424-11.1831,18.8812-22.6451,28.4856-34.052,1.489-1.7684,3.2234-3.3445,4.9377-4.9074,10.2778-9.3693,17.5121-8.8462,25.6961,2.2791,2.9067,3.9514,4.9629,8.527,8.0247,13.9012,5.5354-2.0469,11.2925-4.1757,17.6281-6.5185,10.3344,15.9343,16.3775,33.7511,22.5289,51.2563,17.2765-5.1504,34.2615-7.0533,51.5675-4.388,2.7268.42,5.8858,1.7543,7.6902,3.7223,4.9226,5.3689,9.8101,10.9401,13.6506,17.0919,7.0413,11.2784,6.571,18.6982-.9788,31.4092,7.1939-1.0194,13.8311-2.4678,20.52-2.7702,7.2326-.327,14.7347-.6036,21.7262.91,13.5234,2.9277,17.3717,16.7285,7.9104,26.6773-3.1915,3.3559-6.7982,6.3785-10.5008,9.176-7.2162,5.4522-11.6761,12.7192-14.163,21.1712-9.9517,33.8235-22.2403,66.7702-37.2717,98.6562-8.2337,17.4662-17.7594,34.2805-30.3603,49.0324-14.6707,17.1752-34.5789,25.6101-55.7629,31.1842-22.7091,5.9753-45.7922,7.9724-69.1784,4.2342-3.9002-.6234-7.8828-.732-12.7539-1.1598-1.9418,7.7673-4.1164,15.3351-5.7108,23.0231-13.47,64.9509-27.4856,129.7996-39.9246,194.948-5.3298,27.9157-7.3224,56.4678-10.7857,84.7364-.1397,1.1393.1868,2.3357.4438,5.0891,4.0849-4.3602,6.9799-7.8525,10.2807-10.9069,19.0211-17.6004,37.9954-35.2557,57.2631-52.5845,18.8813-16.9814,36.1877-35.2391,48.9843-57.3493,9.962-17.2124,16.4359-35.5278,16.6292-55.6544.1004-10.451-2.0528-20.4329-6.8184-29.8163-1.927-3.7943-4.425-7.5534-1.9956-13.118,1.8944.4605,4.7233.2646,5.7595,1.5316,17.6242,21.5503,31.2387,44.8757,28.9338,74.0842-2.0539,26.0262-9.1047,50.871-19.5926,74.742-16.9587,38.599-34.7394,76.8606-50.695,115.8679-9.5154,23.2633-16.4402,47.6051-24.0505,71.6136-2.7454,8.6606-2.1687,17.666.4837,26.5165,4.1073,13.7056,13.5951,20.7336,27.7421,17.9729,14.6136-2.852,29.4706-6.0171,43.1803-11.5969,25.5245-10.3883,50.4081-22.387,75.3411-34.174,19.611-9.271,39.5077-17.6561,60.9165-21.6154,15.808-2.9235,31.7977-3.6677,47.428,1.1721,20.5691,6.3689,34.3154,20.0991,40.3793,40.6326,8.9512,30.3092,24.7083,56.5842,46.471,79.1356,28.2231,29.2458,62.997,46.1007,103.2345,51.7611,41.4307,5.8283,81.4893-.9414,120.9414-13.1871,56.3682-17.4962,107.8544-45.08,157.2959-76.6806,63.6814-40.7019,129.1027-78.2238,198.1778-109.0711,54.178-24.1947,109.8764-43.8676,168.647-53.8036,39.9393-6.7524,79.9853-8.5422,120.044-1.4078,39.1012,6.9638,74.1171,22.5633,103.9291,49.4205,21.201,19.0998,46.249,32.4242,71.9682,44.2737,40.5906,18.7009,82.8133,32.7198,126.6935,41.4308,50.6239,10.0498,101.4759,13.6307,152.5088,3.1685,12.9694-2.6588,25.6719-6.617,38.4968-9.9782v7.9867ZM1931.5928,510.6688c3.2442-6.981,3.9703-12.9359,2.4313-19.4408-1.1331-4.7894-1.4014-9.8542-1.4912-14.8064-.4183-23.0725,3.769-45.5749,9.542-67.7462,7.8897-30.2995,13.453-60.6717,12.7405-92.3065-.5069-22.5061-7.6779-41.3685-22.086-58.0509-6.7163-7.7764-14.4038-14.9453-19.8674-23.5232-10.9531-17.1963-26.5093-25.4057-46.183-27.2421-5.6628-.5286-11.3794-2.526-17.8495.2847,11.4295,11.9239,16.8419,25.5746,16.1946,41.1542-.3559,8.562-1.5518,17.189-3.3616,25.5729-6.4337,29.8016-13.2929,59.5115-19.9921,89.2559-3.239,14.381-3.9592,29.0023-3.0248,43.6073,1.5328,23.9588,12.3324,43.9943,28.7846,60.8403,18.0569,18.4891,39.7461,31.8327,64.1626,42.4008ZM1964.3827,521.3c33.901,6.7063,65.9662,3.4424,97.1935-9.3993,16.4867-6.7799,29.9531-17.1864,39.5284-32.2442,6.055-9.5219,12.1264-19.0964,17.2839-29.1131,16.9181-32.8578,29.9988-67.2997,40.1914-102.7675,3.4774-12.1006,9.9374-21.5367,19.3309-29.3945,2.2923-1.9174,4.7864-3.6158,6.9362-5.6768,6.8675-6.5833,5.1123-14.108-4.1752-16.0717-5.4329-1.1486-11.2808-1.2697-16.8361-.7418-18.9922,1.805-37.3066,6.7167-54.6532,14.5558-11.1623,5.0444-22.7126,10.0564-32.4169,17.3138-16.8624,12.6107-30.732,28.3915-40.4458,47.381-17.5437,34.2965-35.2369,68.519-52.4595,102.9762-6.9498,13.9043-12.8256,28.3444-19.4776,43.1819ZM1954.2727,506.814c1.3177-2.5866,2.4489-4.5566,3.3556-6.6248,11.5969-26.4501,22.8436-53.0589,34.8108-79.3403,17.0845-37.5199,34.9953-74.5629,61.2057-106.9803,10.8206-13.3829,16.1469-29.1979,12.5623-46.6573-2.3928-11.654-5.4161-23.2375-9.0761-34.5561-3.4268-10.5967-7.6416-21.0046-13.6798-30.9069-6.9019,2.6224-13.0352,4.9527-19.4878,7.4044-1.934-5.0428-3.2563-9.5052-5.2926-13.6146-6.6535-13.4275-11.8037-14.3871-22.045-3.8331-16.2793,16.7764-28.8444,36.4036-42.2321,55.4134-4.2525,6.0382-4.1451,11.4593-1.1572,17.6326,1.8741,3.8722,4.2216,7.8303,4.7899,11.9648,2.6601,19.3489,6.3056,38.6215,4.6433,58.3634-2.0563,24.4244-4.4018,48.8566-5.3394,73.3345-1.0735,28.0254-6.3915,55.2465-12.7127,82.3857-2.1211,9.1072-.8289,11.4327,9.655,16.0143ZM1994.4015,433.597c.5818.3832,1.1635.7664,1.7452,1.1495,7.6311-14.7206,14.6989-29.7689,23.0385-44.0775,10.0133-17.1807,19.3822-35.1996,32.1573-50.1978,17.5388-20.5908,40.3103-35.4197,65.3136-46.3136,5.1734-2.2541,10.6847-3.8279,15.6407-6.4646,7.1248-3.7906,9.8759-10.5227,5.9986-17.5054-4.2891-7.724-10.2151-14.5581-15.6345-21.6217-.8817-1.1492-2.7753-1.931-4.2961-2.1201-14.6136-1.8177-28.9895-.7635-43.6704,3.3445,0,4.2504.0365,7.8462-.0077,11.4409-.0941,7.6323.2769,15.3136-.4618,22.8853-1.2743,13.0616-4.8683,25.2498-14.3606,35.2251-5.6899,5.9795-10.9278,12.524-15.5286,19.3775-16.3475,24.3521-28.9653,50.7589-41.6687,77.0991-2.8388,5.886-5.5148,11.8505-8.2657,17.7789ZM1584.3744,944.3291c3.8153-15.0772,3.9562-28.5754,1.1751-42.2748-1.7394-8.5678-4.3777-16.6264-10.2032-23.3582-4.2274-4.8852-9.2755-7.2688-15.9008-5.7097-12.1267,2.8536-16.8372,11.2451-11.7478,23.2414,7.8827,18.5807,21.2351,33.1534,36.6767,48.1014ZM1931.4594,190.5066c-4.8416,5.4201-8.938,9.2799-12.1253,13.782-3.0599,4.3221-5.1866,9.4452-2.8605,14.8792,5.5755,13.0254,14.688,23.0745,25.9659,31.2826,3.4149-7.9901,6.7675-15.0537,9.3764-22.3816.8601-2.4158.7553-6.1128-.5502-8.1984-5.9372-9.4826-12.4596-18.5995-19.8062-29.3639ZM1949.9573,412.5586c-5.53,10.044-11.7773,49.6701-9.1837,61.818,5.3847-21.2479,8.2316-41.3305,9.1837-61.818ZM1958.6541,515.2223c-6.6727-1.8117-12.2363-3.3223-18.6129-5.0536-1.0854,6.5154,4.7973,6.0323,7.8349,6.9606,3.4372,1.0504,8.6147,5.5869,10.778-1.907Z" style="fill:#fff;"/><path d="M7173.811,963.9422c-9.8716,5.2768-19.8624,10.3437-29.5944,15.8658-47.7747,27.1081-96.6721,51.7337-149.1377,68.6919-32.774,10.5933-66.2449,17.7413-100.7183,18.3225-58.5713.9874-110.4032-17.6477-155.0408-55.7001-23.1308-19.7184-42.8012-42.661-61.2033-66.7182-15.5668-20.3507-30.2813-41.281-42.3935-63.9323-1.0519-1.9672-2.7123-3.6095-3.8589-5.1017-17.4544,12.9654-34.1853,26.0809-51.6109,38.1994-41.1767,28.6358-85.8147,50.4429-133.4147,66.3382-41.52,13.865-84.1167,22.6104-127.6768,25.7847-71.3682,5.2009-141.486-1.5369-209.2303-25.8979-31.1516-11.2022-60.8878-25.3208-85.3016-48.3723-8.1699-7.7141-15.3955-16.46-22.7548-24.9904-26.7374-30.9914-54.748-60.7587-85.7981-87.4846-23.7574-20.449-48.9669-38.9153-78.7592-49.8692-23.154-8.5133-46.6364-10.9007-69.8451-.2823-18.397,8.4169-31.6291,22.785-43.0679,39.047-8.9764,12.7615-17.6269,25.8043-27.3692,37.9649-20.4805,25.5637-45.1876,46.0742-76.2256,57.6255-33.5233,12.4759-66.9698,12.3668-99.8731-2.9494-13.5485-6.3068-23.6859-15.8052-29.3826-29.7213-3.7723-9.2149-7.368-18.5018-11.1395-28.0001-34.5029,3.333-60.1229-13.3425-82.556-37.2894-23.8588-25.4687-41.4417-55.2248-58.5709-85.2565-21.2298-37.221-41.7664-74.8384-63.1678-111.9594-12.6358-21.9173-27.2583-42.5452-45.7778-60.0609-11.4922-10.8695-24.1723-19.6366-40.2778-22.5705-6.7865-1.2364-13.1357-.8953-20.3856,1.7302,3.4801,5.8844,6.8375,11.4961,10.1331,17.1437,26.6078,45.598,47.7939,93.374,58.2034,145.4301,3.3909,16.9576,5.7966,34.1443,4.4234,51.4116-2.6224,32.9705,10.2884,60.2078,29.8215,85.2774,12.5148,16.0621,27.0536,30.1412,42.484,43.3651,3.5224,3.0186,6.7457,3.9282,11.6584,2.8418,15.5634-3.4416,31.3176-5.5789,47.3936-3.5595,21.466,2.6964,37.7259,12.2129,45.3274,33.4627.9905,2.7692,1.7891,5.7538,1.8877,8.6652.2399,7.0778-3.5492,11.0654-10.7136,11.7392-8.8378.8312-17.1173-1.4881-25.2492-4.6218-21.2575-8.1919-40.7708-19.5457-58.6284-33.5369-5.6971-4.4635-10.5552-5.009-17.2198-3.0299-44.5766,13.2375-83.8392,35.7363-116.5037,68.6435-39.1334,39.4241-85.4725,64.8355-139.7162,76.1377-11.6862,2.435-23.392,4.9047-35.1969,6.612-16.6671,2.4106-31.5274-3.3168-45.3839-11.9019-19.2715-11.9401-33.9912-28.6063-47.3048-46.6085-20.4693-27.6779-36.3945-57.9749-50.1228-89.3801-14.5254-33.2287-37.4874-59.2936-66.0318-80.927-34.8319-26.3986-73.8975-44.5473-115.1591-58.2182-40.8864-13.5467-82.9823-21.5814-125.7882-25.6811-30.813-2.9511-61.7185-3.0253-92.5788-.1166-1.5619.1472-3.0592.9775-3.9463,1.275.7552,16.0063,2.6987,31.5211,1.9918,46.9146-2.3408,50.9767-23.8414,91.1615-69.2301,116.8863-16.9106,9.5844-35.1791,13.8684-54.6334,12.4595-30.4412-2.2044-50.1962-26.8984-48.3875-59.4255,2.1491-38.6509,20.5122-67.2166,53.0121-87.3139,23.7895-14.711,49.9343-23.2536,77.1345-28.8498,10.3544-2.1303,20.8193-3.7251,31.8776-5.6776-.6648-3.298-1.0617-6.1882-1.8385-8.9727-5.4649-19.5886-12.2585-38.6878-22.9964-56.0747-15.5708-25.2124-39.5121-34.9343-68.4528-28.4263-18.6913,4.2032-35.9127,11.9969-52.5,21.2903-40.7473,22.8296-77.5321,51.3765-114.6008,79.5104-52.9389,40.179-105.3761,81.0443-159.0203,120.2613-45.667,33.3854-93.9534,62.8554-145.0533,87.4227-48.4832,23.3094-98.749,41.108-152.2776,48.8816-24.1526,3.5075-48.3967,3.4826-72.6821,3.2437,0-1.3311,0-2.6623,0-3.9934,2.9624-.2707,5.9337-.8506,8.8859-.7661,56.7812,1.6237,110.8866-10.8388,163.6101-30.7586,49.3698-18.6528,95.4505-43.6967,139.9924-71.7288,47.6207-29.9697,92.8762-63.265,137.4949-97.4766,45.8978-35.1922,91.7834-70.4096,138.1562-104.9707,24.0051-17.8907,49.4297-33.7372,77.0516-45.7363,12.572-5.4613,25.4894-9.6788,39.1471-11.2464,23.5399-2.7018,43.4114,4.2048,58.2556,23.1723,14.4138,18.4176,21.7406,40.2012,28.7499,62.0829,1.4017,4.3759,2.5803,8.8232,4.0535,13.8985,8.2572-.6794,16.1074-1.691,23.9799-1.9127,45.3377-1.2768,90.4445.9403,135.022,9.9417,59.0876,11.9314,115.5853,30.6403,166.4959,63.8806,30.4678,19.893,57.0639,43.7825,74.9459,75.8524,9.6899,17.3781,17.316,35.8913,26.3627,53.6434,13.9194,27.3132,29.9845,53.3306,50.9697,75.8532,13.9284,14.9487,29.6549,27.744,49.9479,33.4611,8.8471,2.4924,17.6198,2.3891,26.5995.1944,8.6868-2.1231,17.5881-3.3608,26.3793-5.0687,53.1504-10.3249,98.7712-34.6951,136.9593-73.0648,33.4833-33.6427,73.0915-57.1897,118.4673-71.1099,2.2071-.6771,4.3735-1.4869,7.7581-2.6453-5.7001-5.1503-10.8729-9.6135-15.8112-14.3221-23.29-22.2073-44.159-46.1703-54.5262-77.4288-4.4176-13.3202-5.4023-26.8049-4.7694-41.0607.712-16.0345-1.4424-32.4545-4.3411-48.3442-10.6446-58.3494-35.434-111.0338-66.5806-161.016-1.7042-2.735-3.3285-5.5198-5.5005-9.1302,15.6161-5.1942,29.9877-4.7363,44.2618,1.3493,16.6924,7.1168,29.3511,19.3243,40.9463,32.7334,21.439,24.7928,37.5992,53.1073,53.6505,81.4514,19.6411,34.6835,38.7585,69.6662,58.6733,104.1909,14.3214,24.8277,30.9191,48.0835,52.0468,67.7852,15.1907,14.1655,32.6045,23.9918,53.4448,26.7377,4.3313.5707,8.8561-.3245,14.4079-.5995-2.6344-10.8015-5.3118-19.9542-7.0576-29.2811-5.2452-28.0201-10.6234-56.0309-15.0084-84.1915-4.2307-27.1717-7.696-54.4803-10.7365-81.8132-2.4895-22.3811-4.4326-44.8574-5.5753-67.3443-1.3144-25.8663-2.2304-51.7983-1.9704-77.6883.3839-38.2041,3.619-76.2097,14.1959-113.1734,3.0988-10.8297,7.2384-21.3622,11.0559-32.4821-1.4384,0-3.1903-.1457-4.9105.0252-7.4106.7365-13.4435-2.4735-17.1228-8.2335-5.1427-8.0509-9.9761-16.5543-13.2591-25.4815-6.5386-17.7797-12.2889-36.1941-9.0662-55.3533,2.5174-14.9654,6.6634-29.7744,11.3913-44.2267,8.9095-27.2348,20.9451-53.1512,36.1046-77.534,2.4403-3.9249,5.2394-7.7194,8.3917-11.0897,5.558-5.9423,11.2137-6.1725,17.5759-1.1119,2.3224,1.8473,4.3878,4.0171,6.6866,6.1475,4.1259-3.6985,7.8262-7.5795,12.0811-10.7075,7.8426-5.7654,12.1376-4.9433,18.3596,2.7553.6415.1065,1.4007.4837,1.9089.2687,14.5253-6.1435,23.534,3.7439,25.497,15.2889,1.9862,11.6813,2.5491,23.6042,3.7319,35.3872,6.0678-4.6416,10.5339-11.8554,15.2813-18.9359,2.7222-4.06,5.8546-8.2006,9.7227-11.0641,7.7994-5.7737,13.9367-2.8661,13.8705,6.6649-.0431,6.1761-1.3492,12.5575-3.2684,18.4647-4.9213,15.1485-10.5221,30.0762-15.8098,45.1066-3.8816,11.0331-5.6274,22.3886-6.1224,34.1022-.9415,22.2791-4.4529,44.2626-10.8629,65.6145-4.4629,14.866-11.7765,28.1842-25.8623,36.5364-12.1087,7.1798-25.4011,6.933-38.7526,6.4847-.9906-.0332-1.9698-.3293-2.9619-.4095-7.743-.6253-8.4618-.4826-10.8379,6.9566-5.0442,15.7929-10.3125,31.554-14.395,47.6058-9.432,37.0852-15.6948,74.6907-14.018,113.1345.634,14.5368,2.5965,29.029,4.2767,43.5042,2.8627,24.6626,6.0543,49.2869,8.9738,73.9431,3.6628,30.9332,7.1803,61.8836,10.8358,92.8176.0898.7592,1.0648,1.4139,2.0517,2.649,1.718-13.9204,3.2189-27.1792,5.0095-40.3988,6.7773-50.0354,21.3447-97.8327,41.8567-143.878,25.7637-57.835,60.2081-110.0618,102.0509-157.5311,17.118-19.4199,34.5775-38.6019,50.6233-58.8855,17.3968-21.991,31.0768-46.3695,39.4822-73.3386,18.5643-59.5643,4.7629-110.5184-41.1048-152.8296-1.4025-1.2937-2.7751-2.6196-4.077-3.8504,2.0041-4.7448,4.5496-2.4006,6.3771-.8049,7.5101,6.5578,15.0751,13.0837,22.1818,20.0664,24.714,24.2828,47.7917,49.9891,65.9444,79.6643,13.4391,21.9691,24.2581,45.0594,26.8745,71.1487,2.1936,21.873-1.9688,42.3758-14.1738,60.8604-23.4427,35.5036-46.7872,71.0768-70.6645,106.2881-44.7708,66.0227-89.9606,131.7904-128.5421,201.7098-12.3411,22.3651-22.6487,45.8496-33.8954,68.8177-2.6323,5.3756-2.7242,9.8701.771,15.6615,8.5514,14.1697,11.6708,30.2731,12.8628,46.649.4577,6.2892.3383,12.6554-.0304,18.9566-.2291,3.9188-.985,7.9309-2.2656,11.6388-2.8327,8.2028-10.5345,10.1576-16.1032,3.6328-7.8448-9.1916-13.5505-19.5348-14.2287-32.1926-.8507-15.8785,2.317-31.0234,7.017-45.997.8824-2.8112,1.6493-5.6584,2.736-9.4086-4.114-2.9143-7.7436-6.6317-12.1558-8.3882-11.449-4.5581-22.8447.6714-25.8906,12.8083-2.7939,11.1327-4.0089,22.7745-4.7877,34.2686-.8978,13.2527-.1085,26.6152-.8801,39.882-.7216,12.4046-3.2,24.4877-13.378,33.4397,3.8475,13.08,8.3248,25.4715,14.9096,37.0561,4.062,7.1465,9.8208,12.4697,16.958,16.4477,28.4856,15.8771,58.5786,18.6393,89.7467,10.3508,23.9322-6.3643,44.4532-19.1331,62.8097-35.5088,18.986-16.9374,34.5217-36.7322,48.1373-58.1236,11.9698-18.8052,26.564-35.0889,47.1441-44.619,23.3363-10.8064,47.2438-9.1156,71.0292-1.1832,28.881,9.6317,53.4675,26.6752,76.6017,45.7797,37.5262,30.9897,70.5244,66.5627,101.7751,103.7085,19.5582,23.2479,44.0439,39.2788,71.2869,51.5769,44.3726,20.0305,91.1161,31.0764,139.4952,35.3218,17.5237,1.5378,35.1435,3.221,52.6947,2.9868,77.74-1.0382,152.2448-17.0619,223.0122-49.6934,44.0703-20.3212,84.3961-46.4465,121.6197-77.458,2.2926-1.9099,4.4028-4.0386,7.0526-6.4855-2.5103-5.579-5.0286-11.2366-7.5965-16.8717-12.5134-27.4617-20.9058-56.0444-21.4943-86.3623-.9296-47.8855,15.8047-87.2488,58.3238-112.4972,18.3755-10.9116,38.6022-16.0103,60.3227-11.2562,23.7716,5.2031,37.0706,21.7789,37.6484,45.905.4355,18.1805-5.1684,34.6408-12.6483,50.7058-13.1773,28.3019-31.9302,52.8924-52.571,75.9504-17.2543,19.2741-35.7725,37.419-54.7983,57.1718,4.7302,8.16,9.7618,17.7984,15.672,26.865,22.5579,34.6063,47.4211,67.4216,77.1312,96.3196,40.5906,39.4805,88.7481,62.795,145.6036,66.4956,34.5408,2.2483,68.3255-3.2665,101.5348-12.5304,47.6576-13.2943,92.178-34.0775,135.5898-57.3474,19.6204-10.5171,38.7506-21.9453,58.1382-32.8988,1.0634-.6008,2.4456-.6377,3.6795-.9372v5.9901ZM5721.6901,152.5041c-.6193.5023-1.2383,1.0046-1.8576,1.5068.8399,2.1278,1.5811,4.3007,2.5342,6.3768,16.0331,34.9255,16.2188,70.6818,5.1631,106.8366-8.4463,27.6207-22.1398,52.8022-39.9983,75.2666-18.5682,23.357-38.8735,45.3331-58.3462,67.9759-39.6998,46.1633-72.2259,96.9271-96.4883,152.7566-22.2207,51.1317-36.9785,104.3228-42.4241,160.0029-2.4886,25.4454-4.3426,50.8271-1.6836,76.3381.5685,5.4553,1.6268,10.8597,2.4593,16.2876,1.9856-5.3006,3.1352-10.5042,3.3037-15.7394.4703-14.6152.0026-29.2779.9484-43.8543.6154-9.4836,2.0963-19.146,4.9055-28.1968,4.0568-13.0713,16.409-18.795,29.445-14.4477,5.1273,1.71,9.7587,4.904,14.9382,7.5893.8959-1.9735,1.8994-4.0386,2.7836-6.1537,16.8301-40.2576,37.5723-78.5235,60.9718-115.2387,32.135-50.4217,65.1979-100.2561,98.1035-150.1842,23.7666-36.0613,47.8092-71.9425,71.9461-107.7581,17.4341-25.87,19.7495-53.4375,10.8932-82.7663-8.0047-26.5087-22.1685-49.6546-38.5846-71.5094-9.1044-12.1207-19.3059-23.4193-29.0127-35.0885ZM6633.4627,865.4099c3.2996-2.7476,6.1903-4.8298,8.6984-7.2998,10.4157-10.2574,20.896-20.4594,31.0189-31.0014,17.5139-18.2394,33.8403-37.4989,47.8889-58.5645,13.7217-20.5753,25.6953-42.0211,29.8706-66.8374,6.059-36.0119-15.6688-56.1823-45.954-56.1362-15.7569.024-30.3325,4.0357-43.6943,11.9414-38.043,22.5086-54.607,57.4652-56.7295,100.2519-.8103,16.3354,1.995,32.4381,5.9602,48.2439,5.0969,20.3179,12.3274,39.8589,22.9407,59.402ZM4464.8034,722.7437c-2.4892-.1406-4.1616-.5102-5.749-.2843-35.1257,4.999-69.1121,13.6001-100.062,31.7553-11.8793,6.9683-22.3867,15.6523-31.2085,26.1457-15.4211,18.3434-22.2385,40.1819-21.7389,63.655.5411,25.4253,11.9422,40.7516,34.8376,47.5342,8.9954,2.6649,18.4065,2.7834,27.6683,1.0719,39.9501-7.3822,68.0388-30.8727,85.9824-66.1831,16.5676-32.6028,17.9983-67.4091,10.2701-103.6946ZM5532.8607,259.9778c-1.505-9.2761-3.0759-23.457-6.2074-37.2852-5.7953-25.5907-12.8625-50.8691-25.4318-74.166-2.6573-4.9252-5.7645-9.7705-9.4805-13.9241-5.1124-5.7144-9.257-5.4192-14.1522.1817-2.1806,2.495-4.1729,5.203-5.9228,8.0178-16.931,27.2347-29.5794,56.4469-39.5559,86.8282-7.31,22.2613-12.1471,44.7451-4.9481,68.1869,4.1935,13.6551,7.5883,27.6205,16.1652,39.3813,2.4656,3.3808,5.8729,6.3131,9.3945,8.619,3.2153,2.1053,6.9704,1.7395,10.1731-1.0189,2.7548-2.3723,3.2633-4.7605,2.7605-8.6559-1.8664-14.4539-3.1088-28.9601-8.9175-42.581-.7715-1.8094-1.3174-3.8344-1.4092-5.7857-.139-2.9576-.3531-6.1274.5571-8.8415.5899-1.7593,3.0758-3.8805,4.8047-3.9656,1.5477-.0763,4.354,2.2113,4.6381,3.8056,1.0399,5.836,1.2015,11.8238,1.8028,17.7435.5994,5.8995.6694,11.9584,2.1582,17.637,2.1988,8.387,4.3017,16.5352,3.4601,25.4164-.7915,8.352,3.5322,13.0119,11.7252,14.5031,11.9637,2.1775,22.9259-3.523,29.5356-15.5041,12.6443-22.9196,17.4284-47.8161,18.8502-78.5925ZM5593.9208,150.5436c-5.7776.1773-8.3817,4.1092-11.1461,7.7707-6.7804,8.9808-13.3234,18.1519-20.3975,26.8949-3.2904,4.0667-4.7752,8.2935-5.6904,13.3895-2.1026,11.71-4.9715,23.293-7.8546,34.8466-.9035,3.6208-1.3693,9.0135-6.697,8.3148-5.1061-.6696-4.4068-6.3115-4.8249-9.8142-1.4754-12.361,1.6548-24.0077,9.2768-33.7316,6.8313-8.7152,8.7888-18.2775,8.5072-28.8112-.1243-4.6526.5281-9.4016-.1962-13.944-.9794-6.1441-2.4989-12.2934-4.6271-18.1349-1.7014-4.6701-5.5481-7.5058-10.9985-6.631-5.065.8129-9.6335,2.2373-11.3264,8.1129-2.495,8.66-7.3662,15.3815-15.5323,17.0736,6.7094,23.3044,14.0775,45.7035,19.528,68.5589,8.6944,36.4575,6.3716,72.4852-9.0427,106.9923-3.9421,8.8252-9.991,16.7115-14.906,24.7573,24.2259,1.7893,39.9025-11.2963,48.2206-31.1666,9.2115-22.0044,12.5174-45.4868,13.7972-68.9246,1.0687-19.5724,5.0967-37.9673,12.1854-56.0267,4.2395-10.8011,7.9594-21.8212,11.4912-32.8773,1.6862-5.2784,2.3486-10.8693.2331-16.6493ZM5482.6582,360.6599c-4.4508-2.5587-8.3612-4.8066-13.0244-7.4874-2.2702,5.1995-4.7474,10.1897-6.6697,15.3848-14.4574,39.0726-18.2412,79.983-19.6131,121.1017-.7848,23.5216.2198,47.1364,1.2283,70.6746,1.0209,23.826,2.0062,47.733,4.8464,71.3841,5.1679,43.0349,11.1771,85.9877,17.8736,128.8127,3.4216,21.8822,9.0452,43.4239,13.8199,65.0872.4784,2.1701,1.9751,4.1164,2.9991,6.1666.716-.2114,1.4322-.4228,2.1482-.6343,0-3.131.2191-6.281-.0533-9.3881-.3747-4.2728-1.2387-8.5007-1.6881-12.7693-2.1484-20.4119-4.0325-40.8535-6.377-61.2424-3.5531-30.897-7.3798-61.7627-11.1457-92.635-3.1664-25.957-6.6326-51.8796-9.5476-77.8643-2.0298-18.0926-4.2455-36.2368-4.8121-54.4066-1.3674-43.858,7.1866-86.3881,19.3548-128.2802,3.3166-11.4182,7.1217-22.6947,10.6608-33.9043ZM5327.6253,878.5834c20.7835,16.4262,42.3793,30.4994,67.5418,38.1462,3.1666.9624,6.4422,1.7579,9.7237,2.1154,9.2158,1.004,13.0054-3.567,10.3047-12.4488-4.0008-13.157-12.2766-22.7195-25.0772-27.9042-20.7089-8.3879-41.5558-5.5243-62.493.0915ZM5554.1243,813.8952c11.9138-13.3705,6.5541-61.4001-8.6701-79.2843-5.7393,16.3424-10.5537,32.3731-8.2751,49.4142,1.6026,11.9863,7.0073,22.2759,16.9452,29.87ZM5524.1396,124.9913c-11.1916,2.003-15.8326,8.8095-21.3505,15.4266,1.638,2.6186,3.1349,5.0119,5.6145,8.9762,2.1218-10.6914,15.1371-12.241,15.736-24.4028ZM5551.0747,204.6829c-.9015-.0938-1.8029-.1876-2.7044-.2815-4.4987,8.6556-8.2183,17.4556-3.5073,27.8419,2.0706-9.1868,4.1411-18.3736,6.2117-27.5605ZM5520.7977,143.4934c-.477-.4326-.9539-.8651-1.4309-1.2977-1.6348,1.7957-3.2697,3.5915-4.9045,5.3872.4801.4356.96.8712,1.4401,1.3069,1.6318-1.7988,3.2636-3.5976,4.8954-5.3964Z" style="fill:#fff;"/><path d="M10656.69,967.0153c-16.1243,8.5768-32.0527,17.5466-48.4057,25.6641-83.4042,41.4011-169.0616,77.6541-256.0866,110.6898-29.6561,11.258-60.2739,18.3328-92.2403,19.6331-24.9489,1.0147-49.1252-1.6752-72.2214-11.1337-31.7421-12.9993-55.1706-35.3556-70.9385-65.6371-4.8849-9.3808-8.7767-19.2776-13.4503-29.6652-2.8568-.1364-6.1208-.4342-9.3843-.4265-37.3349.0887-74.2696-4.3757-111.0664-10.042-87.4927-13.4729-173.4849-34.1817-259.6507-54.0494-19.098-4.4035-38.2147-8.8285-57.4864-12.3519-27.5846-5.0431-54.1827.0439-80.0375,9.8439-31.869,12.0797-61.1164,29.2843-90.3449,46.5013-30.9457,18.2284-61.8275,36.6118-95.2793,50.03-22.3344,8.9586-45.4252,15.2795-69.6472,15.8972-35.6298.9088-67.439-10.3526-95.6612-31.7482-21.5331-16.3245-43.7031-31.5131-68.9259-41.6774-61.7012-24.8642-117.7585-15.1907-168.3608,27.6012-1.5196,1.2852-3.07,2.5346-4.6188,3.7849-6.2784,5.0681-9.2989,10.4388-7.8218,19.5917,3.1801,19.7025-.7582,38.98-8.1745,57.4494-1.2196,3.0374-2.9868,5.9973-5.0755,8.5182-6.563,7.9212-13.5571,7.315-17.7118-2.0121-4.9704-11.1589-6.4431-22.8702-2.97-34.9538,3.6438-12.6771,10.5169-23.606,17.9104-34.294,1.6936-2.4485,3.4063-4.8839,5.3348-7.6471-2.345-8.1402-7.6235-12.9673-15.9307-14.3239-8.5891-1.4026-14.1656,3.544-17.7367,10.2495-4.1946,7.8763-7.5433,16.2444-10.7461,24.5955-4.2736,11.1426-7.7128,22.6114-12.1798,33.6703-2.4625,6.0963-5.67,12.1146-9.6379,17.3367-8.7524,11.5189-20.5975,14.0172-33.7566,7.8259-14.1789-6.671-25.3764-16.9339-34.4543-29.5307-12.4151-17.2273-19.8266-36.8081-25.8529-56.9149-10.9772-36.6245-16.8772-74.3612-24.3342-111.7696-5.8976-29.5852-12.4602-59.0785-20.0187-88.2791-5.3364-20.6154-13.4805-40.3758-28.121-56.5941-7.9707-8.8296-17.5055-14.9265-31.0249-16.4534,1.3449,6.7064,2.4094,12.3717,3.6232,18.0049,5.0381,23.3818,8.981,46.9145,9.9289,70.8657.4592,11.6013,1.2512,23.2041,1.2484,34.8062-.0077,31.4392-4.5781,62.149-15.9584,91.632-7.262,18.8138-5.5396,37.7973-.7845,56.6814,5.8989,23.4268,16.8455,44.6966,29.107,65.3492,2.6384,4.4436,6.334,6.0265,11.4762,6.449,14.6712,1.2052,28.9524,4.4989,42.2078,11.072,18.5501,9.1985,29.175,23.6608,28.6334,45.0775-.3295,13.0316-7.7259,17.9107-19.9706,12.7192-13.4522-5.7034-24.1511-15.3136-33.6351-26.0651-8.9847-10.1856-17.2502-21.0222-25.5126-31.8164-2.932-3.8303-6.1888-5.0992-10.9322-5.2947-43.1499-1.7793-83.7432,7.6167-122.5455,26.3129-19.9553,9.615-41.243,14.8569-63.6151,14.547-3.6393-.0503-7.3344-.3944-10.8943-1.1308-18.3565-3.7973-28.5863-16.074-29.3563-34.9536-.6913-16.9496,3.3909-33.0896,9.8561-48.4348,7.5978-18.0332,16.4197-35.5532,24.7694-53.2683,4.8134-10.2123,9.9849-20.2646,14.5049-30.6028,1.9243-4.4012,2.5942-9.3496,3.7846-13.8613-5.1699-3.5266-9.4692-2.1721-13.2548-.3501-11.0674,5.3269-22.3451,10.4003-32.7979,16.7859-40.0075,24.4403-79.4988,49.7275-119.6101,73.9937-43.2602,26.1713-87.7592,50.0485-135.3667,67.5915-26.6072,9.8045-53.8067,17.2057-82.2059,19.6714-29.1301,2.5291-56.9608-1.5047-83.3776-14.6844-61.9434-30.9043-122.526-64.2155-180.4159-102.2025-24.457-16.0485-48.1399-33.274-72.1803-49.9565-2.4478-1.6987-4.9336-3.343-8.1016-5.486-3.2912,4.6977-6.3604,9.2965-9.647,13.7347-21.5196,29.0588-47.5804,52.769-81.2146,67.0797-43.0826,18.3308-85.073,14.991-125.4374-8.1361-13.5355-7.7553-26.0002-17.3704-39.5078-25.1801-42.7902-24.7403-89.2579-39.3049-137.6363-48.2643-32.3817-5.9968-65.0041-10.0703-97.9516-10.8267-28.2787-.6492-56.6168-1.9691-84.8418-.8353-32.1434,1.2912-64.1905,4.9743-96.2795,7.6179,0-2.6623,0-5.3244,0-7.9867,13.2347-.9767,26.4661-2.0003,39.7048-2.9189,19.2084-1.333,38.4109-3.4357,57.636-3.6884,31.6164-.4156,63.3098-.7488,94.8603.9403,49.2055,2.6342,97.8398,9.8581,145.182,24.1786,38.743,11.7193,75.2645,28.0417,108.3428,51.7045,17.7452,12.6941,37.0835,21.936,58.8644,25.8365,25.7032,4.6028,50.4038,1.5376,74.0826-8.9716,37.0558-16.4461,64.8746-43.4262,86.4674-77.2458.3259-.5104.2572-1.2722.5075-2.6691-8.4495-7.2874-17.688-14.3486-25.8376-22.4966-12.1982-12.1959-24.3632-24.5721-35.1032-38.0185-6.0471-7.5709-10.3993-17.0605-13.3903-26.3671-4.5728-14.2283.1556-25.4698,12.7304-33.4201,5.2633-3.3277,11.2093-6.0977,17.2256-7.6112,13.168-3.3123,26.3665-5.8028,40.3332-4.1875,23.713,2.7424,38.6468,21.4359,39.6863,46.0756.9325,22.1049-4.7486,42.724-13.6073,62.6494-3.2157,7.2328-6.8836,14.2649-10.6989,22.1166,3.4394,2.796,6.6434,5.5974,10.044,8.1359,54.9943,41.0537,113.2913,76.9412,173.4148,109.8937,24.1882,13.257,49.1157,25.166,73.3338,38.371,29.9785,16.346,61.7284,19.4665,94.8062,14.3812,35.7629-5.4981,69.4613-17.5736,102.2785-32.3925,56.2358-25.394,108.5624-57.6886,160.7137-90.358,27.3097-17.1077,55.128-33.4204,83.0035-49.5988,5.5785-3.2376,12.3307-5.2266,18.7648-6.0481,10.3338-1.3193,15.4001,4.3139,12.4319,14.2252-3.5001,11.6866-8.0154,23.1657-13.1462,34.2471-7.8079,16.8634-16.8203,33.1674-24.7651,49.9713-7.1326,15.0856-12.1231,31.0051-13.919,47.6299-2.0097,18.6046,4.6121,35.067,27.3646,37.6004,6.8407.7617,13.9345.5115,20.7851-.3209,16.9387-2.058,33.166-6.8339,48.5798-14.2739,34.6527-16.7261,71.0956-25.829,109.7249-25.5613,3.9933.0277,7.9887-.0609,11.9802-.1916.5161-.0169,1.0133-.6141,2.0594-1.2931-3.1407-5.6615-6.415-11.329-9.4702-17.112-12.5035-23.668-21.9849-48.2884-23.8737-75.337-.8928-12.7866.6769-25.1655,5.2801-37.1409,10.3605-26.9536,14.608-54.9441,15.1569-83.7322.835-43.7994-5.2003-86.6766-15.8814-129.0243-.3961-1.57-.4534-3.2253-.7908-5.7596,11.6756-1.6733,21.833,1.4506,31.4261,7.0681,10.6089,6.2123,18.2762,15.2925,24.5751,25.6652,14.3559,23.6407,21.8043,49.8877,27.5576,76.502,7.567,35.0037,13.5988,70.3356,20.6593,105.4524,6.2827,31.2482,12.8281,62.4699,25.6328,91.9117,7.6364,17.558,17.1031,33.9603,33.0934,45.3074,5.8591,4.1576,12.4613,7.7779,19.2645,9.9736,8.874,2.8641,13.7387-.9615,15.5603-9.9227,13.7431-67.6131,27.5016-135.2232,41.3308-202.8189,4.3241-21.1363,7.8693-42.5014,13.5565-63.2739,9.4624-34.5613,26.2671-65.9511,45.5317-95.9875,8.6023-13.4122,17.9632-26.3389,27.2897-39.9376-1.8647-2.2222-3.9091-4.6588-6.3202-7.5322-6.7287,4.1939-10.6687,10.7119-15.014,16.7314-15.8539,21.9622-27.7604,46.0634-37.8247,71.101-20.4923,50.9797-34.5737,103.8443-45.783,157.5106-4.4024,21.0773-8.0886,42.3044-12.0642,63.4702-1.5426,8.2133-3.472,10.7725-8.0936,10.4345-4.5553-.3332-6.5838-3.6329-6.5376-11.4372.1609-27.2744.3205-54.5495.672-81.8219.5784-44.8605,1.2177-89.7206,2.0041-134.578.4832-27.559,1.5532-55.1094,1.8754-82.6694.3343-28.5845-.0771-57.1771.1487-85.7637.1442-18.2532.9387-36.5004,1.2844-54.7532.326-17.2159,7.4068-29.9939,23.6621-36.983.609-.2618,1.1492-.6818,1.7564-.9494,29.4789-12.9915,42.0747-37.2754,44.8815-67.7627,1.2754-13.8547,1.5669-27.7994,2.3173-41.7027.4107-7.6084,1.0132-15.211,1.2123-22.8246.1241-4.752-.3431-9.5194-.5449-14.28-.9545-.0442-1.9089-.0884-2.8635-.1327-1.271,7.2807-3.125,14.5165-3.6895,21.8514-1.1194,14.5447-1.3446,29.1568-2.3584,43.7118-.2506,3.5955.1504,9.1578-5.571,8.9805-6.7627-.2096-4.6203-6.0857-4.7812-9.9721-.5933-14.3238.8168-28.4292,3.6949-42.541,1.5636-7.666,1.1185-15.8451.8277-23.7651-1.0232-27.8556-3.0498-55.6377-10.2195-82.7199-2.4507-9.257-5.3001-18.5428-12.8313-26.5074-5.6764,5.1895-11.5603,6.3738-18.648,2.379-4.7803-2.6943-9.2132-.4711-12.2313,5.2532-3.243,6.1507-6.0888,12.569-8.479,19.1002-18.6134,50.8602-33.5112,102.8117-44.94,155.7347-2.0308,9.4042-2.6242,19.1003,1.3241,28.4249.6337,1.4964,1.3626,3.2851,1.0702,4.7432-.2724,1.3587-1.6401,2.8557-2.9255,3.5212-.7806.4042-2.7396-.3052-3.4264-1.1308-1.23-1.4788-2.3267-3.329-2.736-5.1872-3.2224-14.6314-5.1533-29.311-2.8814-44.3764,1.6781-11.1286,2.1974-22.429,3.7858-33.5743,3.3207-23.3006,13.1907-44.4622,22.4307-65.7684,6.8681-15.8372,14.3985-31.3866,21.4382-47.1514,3.5935-8.0473,7.1701-16.1938,6.1774-26.1277-19.3881,9.5791-33.8198,23.0239-42.5217,42.274-9.2189,20.393-14.7152,41.9642-19.8029,63.6174-5.0817,21.6278-10.1082,43.2943-10.8826,65.6685-1.1317,32.7008,9.2566,60.4534,34.1127,82.53,7.8893,7.0071,15.7078,14.4848,21.8466,22.9814,10.8979,15.0832,13.6189,33.211,13.5224,51.1814-.1444,26.8461-2.1294,53.6782-3.0708,80.5253-.8491,24.2171-1.5859,48.4429-1.9426,72.6712-.4651,31.5964-.0883,63.2091-.8572,94.7957-.6614,27.1745-2.4632,54.3204-3.6812,81.4825-.803,17.9061-1.3191,35.826-2.2287,53.7262-1.0599,20.8598-2.3789,41.7067-3.6485,62.5553-.4429,7.2737-1.27,14.5285-1.5488,21.8062-.1854,4.837-1.0659,8.6901-6.9017,8.9076-5.7576.2146-6.8666-3.855-8.0182-8.3173-3.896-15.0959-7.9483-30.1529-12.0833-45.1857-19.3711-70.4239-39.5471-140.6118-63.3176-209.7049-12.2084-35.4856-24.8742-70.822-42.1334-104.279-3.9514-7.6598-8.3025-15.1138-12.4012-22.5387-29.2432,9.4262-53.8766-.7005-75.982-18.0882-19.8047-15.5781-29.693-37.8095-36.2903-61.5886-6.9126-24.9148-5.4062-49.8567-.3462-74.8249,3.2623-16.0976,12.2108-23.3539,30.3955-15.7324-.3905-3.1932-.7466-5.9938-1.0737-8.7978-1.807-15.4905,1.5614-29.705,10.5566-42.5163,6.1726-8.7913,12.9585-11.4177,23.2614-8.3703,13.5682,4.0132,24.3145,12.0618,32.2269,23.8051,1.2823,1.9031,2.3485,3.9515,4.149,7.0101,8.1923-10.8691,20.8983-10.4347,31.8718-14.1749,4.6969-1.6008,8.9082-.3442,12.133,4.2405,22.7684,32.3705,38.6647,67.4345,41.459,107.3763.8316,11.8848,1.115,24.1132-.7071,35.8181-4.6536,29.8948-18.5707,47.2558-47.8206,62.2177,5.8387,14.0081,11.5193,28.1527,17.5963,42.1253,22.5344,51.8117,42.7349,104.5166,60.7825,158.0435,14.6565,43.469,26.542,87.6595,34.0995,132.9549.5835,3.4976,1.6398,6.9166,3.7823,10.312.6684-7.9977,1.5941-15.9838,1.9566-23.9953,1.0348-22.8697,1.8518-45.7494,2.7334-68.6259,1.3419-34.8208,3.08-69.6328,3.8873-104.4662.9163-39.5365.6492-79.1004,1.5786-118.6364.4668-19.8553,2.9425-39.6584,3.6133-59.5153.8174-24.2021,3.151-48.503-1.6185-72.5913-3.1161-15.7383-9.8261-29.3942-22.5679-39.8395-12.3978-10.1635-23.5881-21.5157-31.3823-35.7674-7.4487-13.6198-11.1124-28.1695-12.2817-43.6871-2.4619-32.6704,5.3773-63.8254,13.1564-94.9711,3.693-14.7853,8.2108-29.4179,13.2763-43.7958,7.4007-21.0061,20.4427-37.8026,39.6307-49.6776,5.4091-3.3475,11.8902-5.9046,12.4736-14.1149.2115-2.9769,4.8629-3.6985,7.2343-1.229,1.5109,1.5733,2.1756,3.9572,3.2225,5.9829,3.1742-1.0521,6.5336-3.1866,9.6288-2.8557,2.3113.2471,4.2815,3.6776,6.9054,6.1664,7.4569-5.9238,18.9658,1.137,26.9608-8.8713,2.2909,3.5801,4.387,6.033,5.5912,8.8644,13.0771,30.7473,22.5778,62.556,24.4185,96.022,1.4385,26.1522,1.7843,52.4179,1.2396,78.6046-.3081,14.8108-2.781,29.6719-5.3696,44.3179-3.9732,22.4805-15.8292,39.8576-36.1533,51.0229-3.4953,1.9202-6.7627,4.3495-10.4163,5.8706-16.1957,6.7429-20.983,19.9271-21.079,36.0308-.1525,25.606-.3223,51.2129-.6964,76.8164-.1939,13.2691-1.1314,26.5296-1.2256,39.7977-.1976,27.851.0265,55.7047-.0864,83.5566-.097,23.9424-.3426,47.8848-.6622,71.8254-.6076,45.5318-1.2579,91.0633-2.0391,136.5924-.1242,7.2419-1.0224,14.4706-.0085,21.9335,3.1017-16.3033,6.0383-32.6399,9.3371-48.9033,8.8458-43.614,19.3514-86.8393,33.4167-129.0746,13.4641-40.4302,29.4161-79.8227,54.6471-114.7132,3.8683-5.3491,8.1554-10.396,12.9173-16.4295-11.176-1.3419-16.0233-8.7799-17.6193-17.8328-5.2342-29.6873-5.0882-58.766,11.4953-85.7183,11.7247-19.0557,25.6255-36.3793,40.9515-52.55,9.1389-9.6426,19.0088-18.6046,28.7391-27.6704,2.8926-2.6952,6.2949-4.9194,9.6916-6.9851,7.9704-4.8469,14.4489-3.3471,19.6172,4.2872,1.0824,1.599,2.0945,3.2455,3.1574,4.899,4.6587-1.7513,8.8277-3.7628,13.2246-4.8793,9.2829-2.3572,11.9473-.9111,16.3814,7.78,17.3519,3.8993,21.385,9.5798,18.6391,27.0083-1.1739,7.4495-2.9411,14.8058-4.646,23.2295,5.2261-.8371,8.3871-3.9847,11.9337-6.5831,4.5165-3.3089,9.0723-6.7344,14.0735-9.1574,3.857-1.8687,8.4548-2.3792,11.9814,1.5546,3.2156,3.5869,2.4435,7.7531.4438,11.187-5.1626,8.8659-10.6008,17.6022-16.4546,26.0257-4.1577,5.9829-9.3102,11.2653-13.7711,17.0508-7.7307,10.0264-13.901,20.8461-18.9951,32.5705-7.2596,16.7082-15.8196,32.8873-24.5021,48.9262-3.2592,6.0208-8.0293,11.3805-12.7777,16.4137-15.7632,16.7088-34.7289,19.473-55.7585,11.8045-4.6372-1.6909-9.1741-3.6569-14.5476-5.8135-5.8196,8.0114-11.5763,15.6519-17.0343,23.4996-22.6705,32.5967-42.7805,66.6605-54.3863,104.848-5.7673,18.9772-9.387,38.637-13.4109,58.1051-7.9213,38.3249-15.4513,76.7306-23.1272,115.106-.637,3.1845-1.1513,6.3935-.1381,10.2269,1.3848-2.3696,2.9791-4.643,4.1233-7.1234,20.3365-44.0877,47.3431-83.783,79.546-119.9882,46.0212-51.7407,100.3246-92.8649,161.3258-125.4863,25.8934-13.8469,50.0988-30.4153,71.0497-51.0677,20.5925-20.2992,37.0167-43.56,44.3538-72.1127,8.4398-32.8438,2.7838-63.7715-13.3742-93.1418-1.1207-2.0375-2.3165-4.0341-3.4192-6.0811-.3013-.5592-.3911-1.2322-.68-2.1914,1.5128-.9903,3.1005-2.0298,5.6577-3.7036,5.0096,8.7352,9.9831,16.9054,14.4763,25.3309,17.1072,32.0756,31.3224,65.2757,38.4751,101.1356,3.7923,19.0141,4.8776,38.0709,1.6641,57.3486-3.7383,22.4264-14.8643,40.4349-32.4109,54.3722-33.8256,26.8679-67.824,53.5233-101.9977,79.9481-51.0106,39.4438-101.7038,79.2671-149.8186,122.2394-9.4067,8.4013-18.3084,17.3668-26.7617,27.225,1.8522-.811,3.768-1.5032,5.5476-2.4503,47.1737-25.1085,95.3715-25.5978,144.3994-6.014,24.627,9.8372,46.4882,24.2736,67.3933,40.3489,24.2901,18.6783,51.4047,30.3377,82.3028,32.2675,20.8787,1.304,40.9671-2.7221,60.7697-8.8882,30.3921-9.4634,58.0066-24.7553,85.5583-40.2402,30.7076-17.2588,61.3195-34.7053,92.3664-51.3369,17.9114-9.5947,37.1982-16.1933,57.1551-20.2302,23.4934-4.7523,46.8065-3.097,70.1628,2.2856,61.8685,14.2575,123.8096,28.2093,185.8208,41.8333,49.6764,10.9141,99.6757,20.297,150.2332,26.0477,23.7345,2.6997,47.6927,3.4436,71.5526,5.0251,2.6159.1734,5.2536.0234,9.1161.0234-.6542-3.8684-1.0887-6.9742-1.7126-10.0415-5.4263-26.681-6.4077-53.309,1.2337-79.761,2.7862-9.6449,6.8001-18.7105,14.1267-25.9709,8.1309-8.0576,17.6879-8.9691,27.5948-4.6881,5.0677,2.1898,10.1358,5.4369,13.8795,9.4413,16.1212,17.2454,28.2583,36.8532,32.9812,60.3818,4.0533,20.1933-3.0295,35.0822-21.1534,44.7121-14.7106,7.8163-30.769,10.3177-47.059,11.9081-2.5535.2493-5.104.5251-8.1289.8374.3126,9.2656,4.505,16.6006,8.3095,23.6723,27.1808,50.5242,69.87,75.628,127.1515,76.4834,38.2489.5711,74.3818-8.9133,109.6912-22.5168,68.243-26.2913,135.6559-54.574,201.8766-85.5857,29.4932-13.8118,58.2358-29.2195,87.3756-43.7899,2.8536-1.4269,6.1061-2.0578,9.1735-3.0583v5.99ZM9298.4906,582.6878c-.751,13.1243-.5912,24.1636-2.1479,34.9559-4.7339,32.8196-21.4304,59.5694-44.0156,83.0504-24.2332,25.1943-53.2052,43.8673-83.6708,60.5005-62.7997,34.2864-118.1496,77.853-163.8513,133.0601-41.7831,50.4736-73.597,106.4804-91.7052,169.7864-1.1666,4.0776-2.0201,8.2444-3.0191,12.3698,2.0045-1.1101,2.949-2.4863,3.479-4.0067,3.4986-10.0386,6.5403-20.2537,10.4557-30.1245,3.533-8.9071,7.0249-18.0827,12.2479-26.0142,9.7448-14.7976,25.695-15.7496,38.2483-3.3294,1.854,1.8345,3.5915,3.7866,6.8607,7.2497.7307-1.6835,1.0149-3.1199,1.8354-4.1153,19.2989-23.4117,41.3567-44.1365,63.94-64.2503,41.9456-37.359,86.1313-72.0108,130.4596-106.4833,39.6003-30.7959,79.0341-61.8075,118.3744-92.9346,13.2234-10.4629,21.242-24.5564,25.3742-40.7521,3.7181-14.572,4.442-29.3014,2.5103-44.3436-3.7108-28.8897-12.3774-56.1755-25.3754-84.6187ZM9096.1224,488.9602c-3.8563,2.3274-7.7733,4.1066-11.0014,6.7312-28.5863,23.2407-52.2956,50.7937-71.8735,81.9324-5.3265,8.4719-10.0663,17.3555-11.1387,27.4177-1.1922,11.1869-2.1035,22.4824-1.9097,33.7095.1233,7.1415,1.8227,14.4538,4.0074,21.3106,2.5681,8.0597,7.1508,9.4972,15.1001,6.1856.5601-2.5721,1.3423-5.1187,1.6418-7.7207,1.2342-10.7241,6.2544-20.8742,3.4852-32.3035-1.0653-4.3973.8728-9.8187,2.4159-14.4498,1.1347-3.4056,3.987-6.7372,8.2809-5.637,4.536,1.1623,4.5446,5.4237,3.9721,9.0619-.6649,4.2252-2.1157,8.3214-3.0882,12.5054-1.4186,6.1037-3.418,12.183-3.8835,18.3693-.5734,7.6232-.5677,15.1372-3.9476,22.3102-1.9361,4.109-1.7558,8.8973,2.1445,11.8468,4.4769,3.3854,9.5307,5.9051,15.64,5.3154,7.4049-.7149,13.0888-4.405,18.1453-9.4635,15.0578-15.0645,25.6766-32.9082,32.943-52.8035,5.5013-15.0624,8.0171-30.6469,9.277-46.6599,1.7485-22.2236,2.6569-44.3469-.9506-66.4135-1.1607-7.1003-2.3557-14.442-9.26-21.2446ZM8754.1699,457.8164c-4.2831,1.2434-8.3229,3.0079-12.5168,3.525-13.6676,1.6851-20.6105,10.3133-23.0658,22.7073-2.1789,10.9984-4.0052,22.2404-4.2348,33.4108-.3743,18.2257.768,36.4791,1.1041,54.7238.4377,23.7466,4.4612,46.7554,13.3913,68.8554,5.932,14.681,10.2441,16.7832,25.4047,11.795,1.5725-.5174,3.076-1.2645,4.5755-1.9805,18.3422-8.7578,28.8494-23.9074,34.7554-42.7354,5.0723-16.17,4.4398-32.6138,2.5697-49.2103-4.2405-37.6328-19.4185-70.6127-41.9833-101.0912ZM8721.9004,661.6378c-2.1256-5.2294-2.7455-8.9485-4.8188-11.4798-9.7216-11.8696-15.2725-25.6802-18.6885-40.2809-2.2515-9.6236-3.3321-19.5862-4.156-29.4621-1.2421-14.8879-4.5061-29.0806-14.5594-40.498-11.3759-12.9197-23.4545-25.2282-35.3869-37.6498-5.2974-5.5146-12.9799-4.1387-16.3147,2.7747-1.1359,2.3553-1.9343,4.9776-2.3355,7.5633-1.468,9.4615-3.4142,18.9229-3.8982,28.4493-1.6764,33.0014,6.7945,63.3142,27.5857,89.2007,17.7079,22.0475,41.6782,31.6524,72.5722,31.3826ZM7827.2215,948.092c2.9793-5.4966,5.822-10.22,8.1758-15.1752,9.7758-20.58,16.5167-41.838,15.2947-65.0842-1.0043-19.1037-10.4654-33.1372-27.2703-37.185-20.9815-5.0538-40.8806-.6738-59.3767,9.7567-7.4592,4.2066-10.7549,11.2823-10.089,20.1873.7005,9.3674,5.099,17.1065,10.1378,24.518,16.7696,24.6659,39.2068,43.665,63.1276,62.9824ZM10109.5874,1008.7802c18.3408-1.222,35.5146-2.7612,51.5152-10.0674,19.2761-8.8018,26.1101-23.4865,20.3331-43.9666-4.8534-17.2055-13.8907-32.3041-25.1497-45.9908-3.9492-4.8-8.8821-9.1248-14.1384-12.4457-9.1549-5.7839-18.5251-4.0944-24.3999,4.9546-4.6287,7.1292-8.6394,15.1224-10.8154,23.2924-7.4394,27.9301-4.9508,55.7758,2.655,84.2236ZM9055.8602,692.1387c22.1556,7.2693,39.6578-3.3354,48.1383-15.9073,9.2453-13.7055,18.9244-27.6501,24.9751-42.856,10.2183-25.6799,23.8006-48.7571,42.1206-69.3072,4.1641-4.671,7.4989-10.1348,10.8201-15.4787,1.8026-2.9003,2.7728-6.3167,4.1185-9.5002-.5501-.4758-1.1002-.9516-1.6502-1.4274-3.0661,1.58-6.3265,2.874-9.1614,4.7945-7.9511,5.3867-15.4838,11.4286-23.6636,16.4247-4.815,2.9408-7.8672,6.6162-10.4075,11.5023-4.587,8.8229-9.6578,17.4153-14.9152,25.8628-3.5893,5.7672-8.1052,10.5258-15.6057,6.5328-8.8164,35.6462-23.79,66.702-54.769,89.3598ZM8696.9046,554.7573c.6888-2.3883,1.1458-3.2422,1.1505-4.0985.0666-12.2667-.5818-24.5789.2638-36.7889.9754-14.0819,1.4309-28.4579,10.4735-40.737,1.4746-2.0023,1.1189-6.8147-.2884-9.2211-6.853-11.7193-17.4754-18.8038-30.4871-22.3216-4.0847-1.1043-7.9359-.5069-10.872,2.9755-9.1882,10.898-13.8029,23.6207-12.646,37.6852,1.207,14.6744,8.1579,27.7156,17.7471,38.2636,9.3134,10.2447,18.6139,20.1809,24.6586,34.2429ZM8738.293,662.0486c1.5706,3.0158,2.7459,5.3426,3.9836,7.6359,4.1018,7.5999,8.6311,14.9992,12.2763,22.8107,23.9254,51.2719,41.9644,104.7767,58.2772,158.7899,18.412,60.9637,35.1857,122.421,52.7115,183.6524.738,2.5784,1.8754,5.0427,2.8268,7.5602.8863-.2361,1.7727-.4721,2.659-.7081-3.4928-21.7693-10.426-42.8812-14.472-64.5489-4.0734-21.8147-9.1302-43.5074-15.0267-64.9041-5.9007-21.4124-13.0615-42.4989-20.2436-63.5329-7.2897-21.3494-14.9653-42.5808-23.0529-63.6412-7.9716-20.7581-16.5734-41.2776-25.0788-61.8274-8.4908-20.5146-17.2045-40.9371-25.7727-61.2865h-9.0877ZM9114.2465,584.7527c5.8324-10.8448,12.6565-18.2408,21.2646-24.1945,2.8157-1.9474,5.322-5.1612,6.6017-8.3447,3.3124-8.2408,6.2298-16.6878,8.5563-25.2553,1.0898-4.0131.7013-8.5046.5242-12.7603-.164-3.9401-2.1456-7.2175-6.2314-7.9788-4.1669-.7764-8.3363-1.2914-11.5205,3.2236-4.4782,6.3496-10.127,11.3648-19.1948,10.7845v64.5254ZM8749.2722,1096.2426c-.4318.6542-.8635,1.3084-1.2953,1.9626,9.0396,13.9204,19.8074,26.4571,32.0163,37.6894,5.8221,5.3566,12.2552,10.1392,18.8395,14.5435,3.3726,2.2558,7.7045,5.2041,11.8946,1.9207,3.8867-3.0455,2.6579-7.8563,2.4719-12.1219-.014-.3211-.2164-.6296-.2771-.9539-3.3384-17.8575-15.0746-28.4381-31.252-34.2517-10.496-3.7719-21.5782-5.9156-32.3977-8.7888ZM8963.5138,1103.0336c13.2274-20.2588,17.6203-41.9271,13.4764-65.3641-10.0324,11.5328-18.1478,24.0008-20.4086,39.0966-1.3807,9.2198.6306,18.2586,6.9322,26.2675ZM8707.504,500.5899c-4.4019,24.708-4.358,49.2629,0,70.7408v-70.7408ZM8865.1433,357.1457c-7.7001,12.3705-11.4951,27.2055-10.1561,36.7496,3.4921-12.6363,6.8241-24.693,10.1561-36.7496ZM9131.1161,498.8181c-9.6762-3.1707-17.6255,1.0934-18.5031,8.7297,6.3856-3.0127,12.4443-5.8712,18.5031-8.7297Z" style="fill:#fff;"/></g></g></svg>