<?xml version="1.0" encoding="UTF-8"?><svg id="Layer_2" xmlns="http://www.w3.org/2000/svg" width="638" height="123" xmlns:xlink="http://www.w3.org/1999/xlink" viewBox="0 0 638 123"><defs><clipPath id="clippath"><rect width="638" height="123" style="fill:none;"/></clipPath><clipPath id="clippath-1"><rect x="72.4575" y="74.0314" width="163.882" height="26.959" style="fill:none;"/></clipPath><clipPath id="clippath-2"><rect x="21.3775" y="14.5874" width="612.283" height="96.695" style="fill:none;"/></clipPath></defs><g id="Layer_1-2"><g style="clip-path:url(#clippath);"><g style="clip-path:url(#clippath-1);"><path d="M217.8567,91.399c.021-.873.031-1.648.031-2.325,0-.429-.208-.643-.624-.643-.411,0-.617.214-.617.643,0,.677-.011,1.452-.032,2.325-.021.872-.031,1.647-.031,2.324,0,.519-.023,1.298-.07,2.338-.046,1.039-.069,1.819-.069,2.337,0,.438.206.656.618.656.369,0,.575-.214.617-.643.034-.656.051-1.153.051-1.492l.094-3.196c0-.677.011-1.452.032-2.324M214.7727,91.399c.021-.873.032-1.648.032-2.325,0-.429-.208-.643-.624-.643-.412,0-.618.214-.618.643,0,.677-.01,1.452-.031,2.325-.021.872-.032,1.647-.032,2.324,0,.519-.023,1.298-.069,2.338-.047,1.039-.07,1.819-.07,2.337,0,.438.206.656.618.656.37,0,.576-.214.618-.643.033-.656.05-1.153.05-1.492l.095-3.196c0-.677.01-1.452.031-2.324M210.8007,97.286c-.273.244-.485.407-.637.489-.281.15-.624.225-1.027.225-.487,0-.853-.176-1.096-.528-.244-.351-.366-.878-.366-1.582,0-.707.236-1.332.709-1.874.473-.542,1.035-.814,1.686-.814.067,0,.156.02.268.058.111.039.244.099.4.18-.046.245-.081.475-.104.692-.023.216-.035.417-.035.601,0,.566.067,1.417.202,2.553M212.3197,99.035c.117-.112.176-.253.176-.424l-.038-.11c-.067-.15-.115-.263-.145-.341-.222-.566-.355-.943-.397-1.131-.075-.309-.111-.729-.107-1.261.004-.583.018-1.061.041-1.434s.056-.641.098-.804c.084-.09.126-.193.126-.308,0-.339-.286-.628-.857-.868-.454-.193-.864-.29-1.229-.29-.971,0-1.806.369-2.505,1.106-.7.738-1.049,1.625-1.049,2.663,0,1.097.212,1.912.636,2.443.45.566,1.166.849,2.149.849.206,0,.462-.057.769-.17.307-.114.662-.282,1.065-.505.092.137.233.293.422.469.21.189.355.283.435.283.155,0,.292-.056.41-.167M202.7427,93.575c0-.527-.084-.921-.252-1.183-.168-.261-.422-.392-.763-.392-.983,0-1.878.397-2.684,1.19-.004-.712-.212-1.068-.624-1.068-.37,0-.555.217-.555.65,0,.141-.005.353-.015.636-.011.283-.016.495-.016.637v4.514c0,.433.185.65.554.65.416,0,.624-.217.624-.65l-.012-3.524c.248-.561.558-.981.932-1.26.399-.3.931-.491,1.595-.573l.019.541c.012.218.019.368.019.45,0,.424.18.636.542.636.39,0,.6-.268.63-.803.004-.078.006-.228.006-.451M195.5567,95.91c-.021.613-.21,1.099-.567,1.459-.315.326-.691.489-1.128.489-.374,0-.7-.143-.977-.431-.332-.347-.498-.831-.498-1.453s.136-1.175.41-1.659c.344-.605.825-.905,1.443-.9.937.004,1.376.836,1.317,2.495M195.9977,98.012c.475-.673.718-1.485.731-2.437.013-.891-.153-1.654-.498-2.289-.433-.784-1.069-1.177-1.909-1.177-1.051,0-1.87.435-2.458,1.306-.504.737-.744,1.59-.718,2.559.029.999.327,1.794.894,2.386.509.531,1.116.797,1.822.797.886,0,1.598-.381,2.136-1.145M190.4437,89.119c0-.416-.3-.624-.901-.624-.929,0-1.611.273-2.048.817-.362.45-.597,1.151-.706,2.103-.051.411-.082.737-.095.977l-.605.02c-.735.021-1.102.244-1.102.668,0,.416.212.624.636.624.139,0,.471-.021.996-.064v1.865l.019,1.755c0,.656-.044,1.263-.133,1.82-.008.051-.012.094-.012.129,0,.171.061.314.182.427.122.114.269.171.442.171.319,0,.514-.172.586-.515.092-.454.138-1.089.138-1.903,0-.262-.008-.658-.025-1.19-.017-.531-.025-.93-.025-1.196l.05-1.466c.778-.064,1.262-.093,1.453-.087.191.006.358-.003.501-.029.328-.06.491-.246.491-.559,0-.429-.334-.643-1.002-.643-.21,0-.672.025-1.386.077l.019-.399c.122-1.44.691-2.161,1.708-2.161.546,0,.819-.205.819-.617M179.6567,93.73c-.323.278-.865.606-1.625.984l-1.935.938c.168-.814.422-1.424.762-1.829.341-.405.767-.608,1.28-.608.651,0,1.157.172,1.518.515M180.1867,98.636c.752-.343,1.128-.752,1.128-1.228,0-.15-.058-.282-.173-.395-.116-.114-.247-.171-.394-.171-.164,0-.318.115-.46.344-.143.23-.463.415-.958.556-.391.112-.731.168-1.021.168-.466,0-.875-.09-1.226-.271-.351-.18-.644-.447-.879-.803l2.407-1.164c.681-.326,1.126-.566,1.336-.72.475-.352.712-.742.712-1.171,0-.613-.271-1.067-.812-1.363-.442-.24-1.011-.36-1.708-.36-.962,0-1.731.411-2.307,1.234-.529.755-.794,1.69-.794,2.804,0,.965.322,1.715.964,2.251.589.484,1.357.726,2.307.726.609,0,1.235-.145,1.878-.437M174.5257,93.575c0-.527-.084-.921-.252-1.183-.168-.261-.423-.392-.763-.392-.983,0-1.878.397-2.684,1.19-.005-.712-.213-1.068-.624-1.068-.37,0-.555.217-.555.65,0,.141-.005.353-.016.636-.01.283-.015.495-.015.637v4.514c0,.433.184.65.554.65.416,0,.624-.217.624-.65l-.013-3.524c.248-.561.559-.981.933-1.26.399-.3.931-.491,1.594-.573l.019.541c.013.218.019.368.019.45,0,.424.181.636.542.636.391,0,.601-.268.63-.803.005-.078.007-.228.007-.451M167.2767,97.286c-.274.244-.486.407-.637.489-.281.15-.624.225-1.027.225-.488,0-.853-.176-1.097-.528-.243-.351-.365-.878-.365-1.582,0-.707.236-1.332.709-1.874.472-.542,1.034-.814,1.686-.814.067,0,.156.02.267.058.112.039.245.099.401.18-.047.245-.081.475-.104.692-.024.216-.035.417-.035.601,0,.566.067,1.417.202,2.553M168.7947,99.035c.118-.112.177-.253.177-.424l-.038-.11c-.067-.15-.116-.263-.145-.341-.223-.566-.355-.943-.397-1.131-.076-.309-.111-.729-.107-1.261.004-.583.018-1.061.041-1.434.023-.373.055-.641.097-.804.084-.09.127-.193.127-.308,0-.339-.286-.628-.858-.868-.453-.193-.863-.29-1.228-.29-.971,0-1.806.369-2.505,1.106-.7.738-1.05,1.625-1.05,2.663,0,1.097.212,1.912.637,2.443.449.566,1.166.849,2.149.849.206,0,.462-.057.769-.17.306-.114.661-.282,1.065-.505.092.137.233.293.422.469.21.189.355.283.435.283.155,0,.292-.056.409-.167M161.5457,98.797c.647-.292.971-.594.971-.907,0-.163-.057-.307-.171-.434-.113-.126-.247-.189-.403-.189-.055,0-.145.034-.271.102l-.731.399c-.286.137-.554.206-.807.206-.554,0-1.008-.152-1.361-.457-.378-.325-.567-.771-.567-1.337,0-.523.191-1.143.574-1.859.42-.78.844-1.17,1.273-1.17.563,0,.968.101,1.216.302.084.073.171.147.261.222.091.075.197.113.319.113.155,0,.285-.064.39-.19.105-.126.158-.271.158-.434,0-.364-.322-.673-.964-.926-.509-.197-.969-.296-1.38-.296-.79,0-1.5.515-2.13,1.543-.568.926-.851,1.825-.851,2.695,0,.913.302,1.648.907,2.205.576.532,1.294.798,2.155.798.374,0,.845-.129,1.412-.386M152.1327,100.643c.597-1.364.895-2.097.895-2.2,0-.15-.053-.284-.16-.402-.108-.117-.237-.176-.388-.176-.181,0-.326.102-.435.308-.122.228-.296.607-.523,1.138-.26.613-.391.982-.391,1.106,0,.15.055.283.164.399.109.116.238.174.385.174.205,0,.357-.116.453-.347M148.4317,93.73c-.323.278-.865.606-1.626.984l-1.934.938c.168-.814.422-1.424.762-1.829.34-.405.767-.608,1.279-.608.652,0,1.158.172,1.519.515M148.9617,98.636c.751-.343,1.128-.752,1.128-1.228,0-.15-.058-.282-.174-.395-.115-.114-.247-.171-.394-.171-.163,0-.317.115-.46.344-.143.23-.462.415-.958.556-.39.112-.731.168-1.02.168-.467,0-.875-.09-1.226-.271-.351-.18-.644-.447-.879-.803l2.407-1.164c.681-.326,1.126-.566,1.336-.72.475-.352.712-.742.712-1.171,0-.613-.271-1.067-.813-1.363-.441-.24-1.01-.36-1.708-.36-.962,0-1.731.411-2.306,1.234-.529.755-.794,1.69-.794,2.804,0,.965.321,1.715.964,2.251.588.484,1.357.726,2.307.726.609,0,1.235-.145,1.878-.437M143.2997,93.575c0-.527-.084-.921-.252-1.183-.168-.261-.422-.392-.762-.392-.983,0-1.878.397-2.685,1.19-.004-.712-.212-1.068-.624-1.068-.369,0-.554.217-.554.65,0,.141-.006.353-.016.636-.011.283-.016.495-.016.637v4.514c0,.433.185.65.555.65.416,0,.624-.217.624-.65l-.013-3.524c.248-.561.559-.981.933-1.26.399-.3.93-.491,1.594-.573l.019.541c.013.218.019.368.019.45,0,.424.181.636.542.636.391,0,.601-.268.63-.803.004-.078.006-.228.006-.451M136.1137,95.91c-.021.613-.21,1.099-.567,1.459-.315.326-.691.489-1.128.489-.374,0-.699-.143-.977-.431-.332-.347-.498-.831-.498-1.453s.137-1.175.41-1.659c.344-.605.826-.905,1.443-.9.937.004,1.376.836,1.317,2.495M136.5547,98.012c.475-.673.719-1.485.731-2.437.013-.891-.153-1.654-.497-2.289-.433-.784-1.07-1.177-1.91-1.177-1.05,0-1.87.435-2.458,1.306-.504.737-.743,1.59-.718,2.559.029.999.328,1.794.895,2.386.508.531,1.115.797,1.821.797.886,0,1.599-.381,2.136-1.145M130.9447,99.131c.126-.12.182-.265.17-.437-.185-1.719-.336-2.947-.454-3.685-.122-1.05-.208-1.652-.258-1.807-.257-.771-.736-1.157-1.437-1.157-.412,0-.777.078-1.097.235-.319.156-.594.391-.825.704-.248-.669-.702-1.003-1.361-1.003-.299,0-.66.185-1.084.556-.425.371-.746.786-.965,1.244l-.012-.675c0-.09.01-.221.031-.392.021-.172.032-.298.032-.38,0-.171-.068-.33-.205-.476-.136-.145-.287-.218-.45-.218-.429,0-.643.486-.643,1.46,0,.231.02.574.06,1.028.039.455.059.796.059,1.023,0,.257-.023.641-.069,1.151-.046.51-.069.894-.069,1.151,0,1.102.237,1.653.712,1.653.172,0,.322-.06.451-.18.128-.12.192-.268.192-.444,0-.103-.02-.27-.06-.502-.04-.231-.06-.411-.06-.54,0-.24.023-.611.069-1.112.046-.502.07-.881.07-1.139.147-.167.254-.302.321-.405l.744-.848c.302-.309.6-.532.895-.669.126.253.189.606.189,1.061,0,.519.051,1.285.154,2.299.103,1.014.154,1.78.154,2.299,0,.188.058.344.174.466.115.122.263.183.444.183s.329-.061.444-.183c.116-.122.174-.278.174-.466,0-.442-.04-1.001-.12-1.679l-.189-1.717c-.025-.403-.036-.806-.032-1.209.126-.15.391-.349.794-.598.425-.27.714-.405.87-.405.168,0,.323.193.466.579.101.283.172.572.215.868l.214,1.994c.075.857.151,1.521.227,1.993.058.373.26.559.605.559.18,0,.334-.06.46-.18M118.2357,93.575c0-.527-.084-.921-.252-1.183-.168-.261-.422-.392-.763-.392-.983,0-1.878.397-2.684,1.19-.004-.712-.212-1.068-.624-1.068-.37,0-.555.217-.555.65,0,.141-.005.353-.015.636-.011.283-.016.495-.016.637v4.514c0,.433.185.65.554.65.416,0,.624-.217.624-.65l-.012-3.524c.248-.561.558-.981.932-1.26.399-.3.931-.491,1.595-.573l.019.541c.012.218.019.368.019.45,0,.424.18.636.542.636.39,0,.6-.268.63-.803.004-.078.006-.228.006-.451M111.0497,95.91c-.021.613-.21,1.099-.567,1.459-.315.326-.691.489-1.128.489-.374,0-.7-.143-.977-.431-.332-.347-.498-.831-.498-1.453s.137-1.175.41-1.659c.344-.605.825-.905,1.443-.9.937.004,1.376.836,1.317,2.495M111.4907,98.012c.475-.673.718-1.485.731-2.437.013-.891-.153-1.654-.498-2.289-.433-.784-1.069-1.177-1.909-1.177-1.051,0-1.87.435-2.458,1.306-.504.737-.744,1.59-.718,2.559.029.999.327,1.794.894,2.386.509.531,1.116.797,1.822.797.886,0,1.598-.381,2.136-1.145M105.9367,89.119c0-.416-.3-.624-.901-.624-.929,0-1.611.273-2.048.817-.362.45-.597,1.151-.706,2.103-.05.411-.082.737-.095.977l-.605.02c-.735.021-1.102.244-1.102.668,0,.416.212.624.636.624.139,0,.471-.021.996-.064v1.865l.019,1.755c0,.656-.044,1.263-.133,1.82-.008.051-.012.094-.012.129,0,.171.061.314.183.427.121.114.268.171.441.171.319,0,.514-.172.586-.515.092-.454.138-1.089.138-1.903,0-.262-.008-.658-.025-1.19-.017-.531-.025-.93-.025-1.196l.05-1.466c.778-.064,1.262-.093,1.453-.087.191.006.358-.003.501-.029.328-.06.492-.246.492-.559,0-.429-.335-.643-1.003-.643-.21,0-.672.025-1.386.077l.019-.399c.122-1.44.691-2.161,1.708-2.161.546,0,.819-.205.819-.617M95.1497,93.73c-.323.278-.865.606-1.625.984l-1.935.938c.168-.814.422-1.424.762-1.829.341-.405.767-.608,1.28-.608.651,0,1.157.172,1.518.515M95.6797,98.636c.752-.343,1.128-.752,1.128-1.228,0-.15-.058-.282-.173-.395-.116-.114-.247-.171-.394-.171-.164,0-.318.115-.46.344-.143.23-.463.415-.958.556-.391.112-.731.168-1.021.168-.466,0-.875-.09-1.226-.271-.351-.18-.644-.447-.879-.803l2.407-1.164c.681-.326,1.126-.566,1.336-.72.475-.352.712-.742.712-1.171,0-.613-.271-1.067-.812-1.363-.442-.24-1.011-.36-1.708-.36-.962,0-1.731.411-2.307,1.234-.529.755-.794,1.69-.794,2.804,0,.965.322,1.715.964,2.251.589.484,1.357.726,2.307.726.609,0,1.235-.145,1.878-.437M90.0187,93.575c0-.527-.084-.921-.252-1.183-.168-.261-.423-.392-.763-.392-.983,0-1.878.397-2.684,1.19-.005-.712-.213-1.068-.624-1.068-.37,0-.555.217-.555.65,0,.141-.005.353-.016.636-.01.283-.015.495-.015.637v4.514c0,.433.184.65.554.65.416,0,.624-.217.624-.65l-.013-3.524c.248-.561.559-.981.933-1.26.399-.3.931-.491,1.594-.573l.019.541c.013.218.019.368.019.45,0,.424.181.636.542.636.391,0,.601-.268.63-.803.005-.078.007-.228.007-.451M84.1057,92.592c.008-.18-.049-.33-.171-.451-.121-.12-.273-.18-.453-.18-.362,0-.565.198-.612.592-.079.682-.119,1.485-.119,2.411l.012,1.248.007,1.305c-.627.185-1.221.277-1.784.277-.13,0-.262-.02-.397-.061-.134-.041-.271-.1-.41-.177-.092-.309-.161-.718-.207-1.228-.047-.51-.07-1.123-.07-1.839,0-.228.031-.558.092-.991.06-.433.091-.748.091-.945,0-.184-.061-.335-.183-.453-.122-.118-.273-.177-.454-.177-.34,0-.539.186-.598.559-.126.75-.189,1.419-.189,2.007,0,.887.082,1.899.245,3.035.076.527.313.928.713,1.202.361.249.817.373,1.367.373.685,0,1.29-.139,1.815-.418.088.407.294.611.618.611.176,0,.325-.059.447-.177s.183-.269.183-.453c0-.094-.008-.238-.022-.431-.015-.193-.022-.336-.022-.431,0-.308-.002-.771-.007-1.389-.004-.617-.006-1.08-.006-1.389l.114-2.43ZM76.9317,98.797c.647-.292.97-.594.97-.907,0-.163-.056-.307-.17-.434-.113-.126-.248-.189-.403-.189-.055,0-.145.034-.271.102l-.731.399c-.286.137-.555.206-.807.206-.554,0-1.008-.152-1.361-.457-.378-.325-.567-.771-.567-1.337,0-.523.191-1.143.573-1.859.421-.78.845-1.17,1.273-1.17.563,0,.969.101,1.217.302.084.073.171.147.261.222.091.075.197.113.318.113.156,0,.286-.064.391-.19.105-.126.158-.271.158-.434,0-.364-.322-.673-.964-.926-.509-.197-.969-.296-1.381-.296-.789,0-1.499.515-2.13,1.543-.567.926-.85,1.825-.85,2.695,0,.913.302,1.648.907,2.205.576.532,1.294.798,2.155.798.374,0,.845-.129,1.412-.386" style="fill:#034ea2;"/><path d="M235.5387,77.1173c-.184,0-.34.06-.466.18-.126.12-.189.273-.189.457,0,.056.01.136.028.241.019.105.029.183.029.235,0,.193.061.351.183.476.121.124.277.186.466.186s.343-.062.463-.186c.12-.125.18-.283.18-.476,0-.742-.231-1.113-.694-1.113M235.6337,81.5863c-.181,0-.337.061-.47.18-.132.121-.198.271-.198.451,0,.077.014.194.041.35.027.157.041.276.041.357,0,.193.061.352.183.476.117.124.271.186.46.186s.344-.062.466-.186c.122-.124.183-.283.183-.476,0-.892-.236-1.338-.706-1.338M233.7667,79.1753c0-.527-.084-.922-.252-1.183-.169-.262-.423-.392-.763-.392-.983,0-1.878.396-2.685,1.189-.004-.711-.212-1.067-.623-1.067-.37,0-.555.216-.555.649,0,.142-.005.354-.016.637-.01.283-.016.495-.016.636v4.515c0,.433.185.649.555.649.416,0,.624-.216.624-.649l-.013-3.524c.248-.562.559-.982.933-1.261.399-.3.93-.49,1.594-.572l.019.54c.013.219.019.369.019.45,0,.425.181.637.542.637.391,0,.601-.268.63-.804.004-.077.007-.227.007-.45M226.5297,79.3293c-.324.279-.865.607-1.626.984l-1.935.939c.168-.814.423-1.424.763-1.829.34-.406.767-.608,1.279-.608.651,0,1.158.171,1.519.514M227.0587,84.2363c.752-.343,1.128-.753,1.128-1.228,0-.15-.057-.282-.173-.396-.115-.113-.247-.17-.394-.17-.164,0-.317.114-.46.344-.143.229-.462.414-.958.556-.39.111-.731.167-1.021.167-.466,0-.875-.09-1.225-.27-.351-.18-.644-.448-.879-.804l2.407-1.164c.681-.325,1.126-.566,1.336-.72.475-.351.712-.741.712-1.17,0-.613-.271-1.068-.813-1.363-.441-.241-1.01-.361-1.708-.361-.962,0-1.731.412-2.306,1.235-.53.755-.794,1.689-.794,2.804,0,.964.321,1.715.964,2.25.588.485,1.357.727,2.306.727.61,0,1.236-.146,1.878-.437M220.3207,84.3973c.647-.292.97-.594.97-.907,0-.163-.057-.308-.17-.434-.113-.127-.248-.19-.403-.19-.055,0-.145.034-.271.103l-.731.399c-.286.137-.555.205-.807.205-.555,0-1.008-.152-1.361-.456-.378-.326-.567-.772-.567-1.338,0-.523.191-1.142.573-1.858.42-.78.845-1.17,1.273-1.17.563,0,.968.1,1.216.302.084.073.172.147.262.222.09.075.196.112.318.112.156,0,.286-.063.391-.189.105-.127.157-.272.157-.435,0-.364-.321-.673-.964-.926-.508-.197-.968-.295-1.38-.295-.79,0-1.5.514-2.13,1.543-.567.926-.851,1.824-.851,2.694,0,.913.303,1.649.908,2.206.575.532,1.294.797,2.155.797.374,0,.845-.128,1.412-.385M215.0407,84.6573c.12-.118.179-.271.179-.46,0-.351-.045-.809-.135-1.373-.09-.563-.136-1.023-.136-1.379l.007-.598v-.65c-.017-.788-.116-1.384-.296-1.787-.265-.605-.734-.907-1.406-.907-.743,0-1.468.48-2.174,1.441l-.019-.753c-.038-.557-.25-.836-.636-.836-.177,0-.325.059-.445.177-.119.118-.179.269-.179.453,0,.138.007.341.022.611.015.27.022.474.022.611,0,.442-.031,1.054-.091,1.836-.061.782-.092,1.394-.092,1.836,0,.129.014.321.041.579.027.257.041.45.041.578,0,.193.057.35.17.47.114.12.263.18.448.18.18,0,.328-.06.444-.18.115-.12.173-.277.173-.47,0-.128-.012-.321-.038-.578-.025-.258-.037-.45-.037-.579,0-.202.012-.409.037-.624.03-.253.049-.463.057-.63.219-.793.521-1.449.908-1.968.428-.57.878-.855,1.348-.855.336,0,.504.463.504,1.389,0,.12-.007.324-.022.611-.014.287-.022.491-.022.611,0,.437.03.907.089,1.408l.176,1.408c.046.403.25.605.611.605.181,0,.331-.059.451-.177M207.4167,82.8853c-.273.245-.486.408-.637.489-.281.15-.624.225-1.027.225-.487,0-.853-.176-1.097-.527-.243-.352-.365-.879-.365-1.582,0-.707.236-1.332.709-1.875.473-.542,1.034-.813,1.686-.813.067,0,.156.019.268.058.111.039.244.099.4.18-.047.244-.081.475-.104.691-.023.217-.035.417-.035.601,0,.566.067,1.417.202,2.553M208.9347,84.6343c.118-.111.177-.253.177-.424l-.038-.109c-.067-.15-.116-.264-.145-.341-.223-.566-.355-.943-.397-1.132-.075-.308-.111-.729-.107-1.26.004-.583.018-1.061.041-1.434.023-.373.056-.641.098-.804.084-.09.126-.193.126-.309,0-.338-.286-.628-.857-.868-.454-.193-.864-.289-1.229-.289-.971,0-1.806.369-2.505,1.106-.7.737-1.05,1.625-1.05,2.662,0,1.098.213,1.912.637,2.444.449.566,1.166.849,2.149.849.206,0,.462-.057.769-.171.306-.114.661-.282,1.065-.505.092.138.233.294.422.47.21.188.355.283.435.283.155,0,.292-.056.409-.168M201.6857,84.3973c.647-.292.971-.594.971-.907,0-.163-.057-.308-.17-.434-.114-.127-.248-.19-.404-.19-.054,0-.145.034-.271.103l-.731.399c-.285.137-.554.205-.806.205-.555,0-1.009-.152-1.362-.456-.378-.326-.567-.772-.567-1.338,0-.523.191-1.142.574-1.858.42-.78.844-1.17,1.273-1.17.563,0,.968.1,1.216.302.084.073.171.147.262.222.09.075.196.112.318.112.155,0,.285-.063.39-.189.105-.127.158-.272.158-.435,0-.364-.321-.673-.964-.926-.509-.197-.969-.295-1.38-.295-.79,0-1.5.514-2.13,1.543-.567.926-.851,1.824-.851,2.694,0,.913.302,1.649.907,2.206.576.532,1.294.797,2.156.797.374,0,.844-.128,1.411-.385M192.9667,74.7193c0-.416-.301-.624-.901-.624-.929,0-1.612.272-2.049.817-.361.45-.596,1.151-.705,2.102-.051.412-.082.738-.095.978l-.605.019c-.735.022-1.103.244-1.103.669,0,.416.212.624.637.624.138,0,.47-.022.995-.065v1.865l.019,1.756c0,.656-.044,1.262-.132,1.82-.008.051-.013.094-.013.128,0,.172.061.314.183.428.122.113.269.17.441.17.32,0,.515-.171.586-.514.093-.455.139-1.089.139-1.904,0-.261-.008-.658-.025-1.189-.017-.532-.025-.931-.025-1.196l.05-1.467c.777-.064,1.261-.093,1.453-.086.191.006.358-.004.501-.029.327-.06.491-.247.491-.56,0-.428-.334-.643-1.002-.643-.21,0-.672.026-1.386.077l.019-.398c.121-1.441.691-2.161,1.707-2.161.547,0,.82-.206.82-.617M185.6357,81.5093c-.021.613-.21,1.1-.568,1.46-.315.326-.691.489-1.128.489-.374,0-.699-.144-.976-.431-.332-.347-.498-.832-.498-1.453,0-.622.136-1.175.409-1.66.345-.604.826-.904,1.444-.9.936.005,1.375.836,1.317,2.495M186.0767,83.6123c.474-.673.718-1.485.731-2.437.012-.892-.154-1.655-.498-2.289-.433-.785-1.069-1.177-1.91-1.177-1.05,0-1.869.435-2.457,1.305-.504.738-.744,1.591-.719,2.56.03.999.328,1.794.895,2.385.508.532,1.116.798,1.821.798.887,0,1.599-.382,2.137-1.145M175.8447,79.3293c-.324.279-.866.607-1.626.984l-1.935.939c.168-.814.422-1.424.763-1.829.34-.406.766-.608,1.279-.608.651,0,1.157.171,1.519.514M176.3737,84.2363c.752-.343,1.128-.753,1.128-1.228,0-.15-.058-.282-.173-.396-.116-.113-.247-.17-.394-.17-.164,0-.317.114-.46.344-.143.229-.462.414-.958.556-.391.111-.731.167-1.021.167-.466,0-.875-.09-1.226-.27-.35-.18-.643-.448-.879-.804l2.408-1.164c.68-.325,1.126-.566,1.336-.72.474-.351.712-.741.712-1.17,0-.613-.271-1.068-.813-1.363-.441-.241-1.011-.361-1.708-.361-.962,0-1.731.412-2.306,1.235-.53.755-.795,1.689-.795,2.804,0,.964.322,1.715.965,2.25.588.485,1.357.727,2.306.727.609,0,1.235-.146,1.878-.437M169.9377,79.9503c.042-.602.063-1.105.063-1.508,0-.193-.058-.349-.173-.469-.116-.12-.264-.181-.445-.181-.18,0-.328.061-.444.181-.116.12-.173.276-.173.469,0,.403-.021.906-.063,1.508-.042.602-.063,1.105-.063,1.508,0,.257.007.642.022,1.154.014.512.022.897.022,1.154,0,.189.058.343.173.463.116.12.264.18.444.18.185,0,.334-.06.448-.18.113-.12.17-.274.17-.463,0-.257-.007-.642-.022-1.154-.015-.512-.022-.897-.022-1.154,0-.403.021-.906.063-1.508M170.1107,76.0183c.145-.146.218-.322.218-.528,0-.205-.073-.381-.218-.527-.145-.146-.318-.219-.52-.219-.201,0-.376.073-.523.219s-.22.322-.22.527c0,.206.073.382.22.528.147.145.322.218.523.218.202,0,.375-.073.52-.218M165.2157,79.1273c.264.173.477.434.636.781l-.012.759-.007.746.019,1.112c-.059.077-.119.144-.183.2-.323.278-.556.456-.699.533-.244.133-.542.2-.895.2-.517,0-.967-.2-1.352-.598-.384-.399-.576-.875-.576-1.428,0-.857.176-1.499.529-1.926.353-.426.882-.64,1.588-.64.37,0,.687.087.952.261M167.3137,74.7513c0-.416-.191-.624-.573-.624-.328,0-.519.191-.574.572-.08.626-.149,1.842-.208,3.646l-.592-.443c-.265-.155-.641-.232-1.128-.232-.95,0-1.722.345-2.316,1.036-.595.69-.892,1.607-.892,2.752,0,.947.294,1.723.883,2.328.571.591,1.291.887,2.161.887.353,0,.692-.058,1.018-.174.325-.115.64-.287.942-.514.122.386.313.579.573.579.156,0,.292-.056.41-.167.118-.112.177-.253.177-.425,0-.038-.005-.088-.013-.148-.13-.729-.195-1.807-.195-3.234,0-.63.025-1.261.075-1.891.168-2.036.252-3.352.252-3.948M154.6807,79.1273c.265.173.477.434.637.781l-.013.759-.006.746.019,1.112c-.059.077-.12.144-.183.2-.324.278-.557.456-.699.533-.244.133-.542.2-.895.2-.517,0-.968-.2-1.352-.598-.385-.399-.577-.875-.577-1.428,0-.857.177-1.499.53-1.926.353-.426.882-.64,1.588-.64.369,0,.687.087.951.261M156.7797,74.7513c0-.416-.191-.624-.574-.624-.327,0-.519.191-.573.572-.08.626-.149,1.842-.208,3.646l-.592-.443c-.265-.155-.641-.232-1.129-.232-.949,0-1.721.345-2.315,1.036-.595.69-.892,1.607-.892,2.752,0,.947.294,1.723.882,2.328.571.591,1.292.887,2.162.887.353,0,.692-.058,1.017-.174.326-.115.64-.287.943-.514.121.386.312.579.573.579.155,0,.292-.056.41-.167.117-.112.176-.253.176-.425,0-.038-.004-.088-.013-.148-.13-.729-.195-1.807-.195-3.234,0-.63.025-1.261.076-1.891.168-2.036.252-3.352.252-3.948M149.2717,76.9983c.021-.872.032-1.647.032-2.324,0-.429-.208-.643-.624-.643-.412,0-.618.214-.618.643,0,.677-.01,1.452-.031,2.324-.021.873-.032,1.648-.032,2.325,0,.519-.023,1.298-.069,2.337-.046,1.04-.069,1.819-.069,2.338,0,.437.205.656.617.656.37,0,.576-.215.618-.643.033-.656.05-1.153.05-1.492l.095-3.196c0-.677.01-1.452.031-2.325M146.6357,78.1913c.008-.18-.048-.33-.17-.45-.122-.12-.273-.18-.454-.18-.361,0-.565.197-.611.592-.08.681-.12,1.485-.12,2.411l.013,1.247.006,1.306c-.626.184-1.22.276-1.783.276-.131,0-.263-.02-.397-.061-.135-.04-.271-.099-.41-.177-.092-.308-.162-.718-.208-1.228-.046-.51-.069-1.123-.069-1.839,0-.227.03-.557.091-.99.061-.433.091-.748.091-.945,0-.185-.06-.336-.182-.454-.122-.118-.273-.177-.454-.177-.34,0-.54.187-.599.56-.126.75-.189,1.419-.189,2.006,0,.888.082,1.899.246,3.035.076.528.313.929.712,1.203.361.248.817.373,1.368.373.684,0,1.289-.14,1.815-.418.088.407.294.611.617.611.177,0,.326-.059.448-.177.121-.118.182-.269.182-.453,0-.095-.007-.238-.022-.431-.014-.193-.022-.337-.022-.431,0-.309-.002-.772-.006-1.389-.004-.617-.006-1.08-.006-1.389l.113-2.431ZM139.1027,81.5093c-.021.613-.21,1.1-.567,1.46-.315.326-.691.489-1.128.489-.374,0-.699-.144-.977-.431-.332-.347-.498-.832-.498-1.453,0-.622.137-1.175.41-1.66.344-.604.826-.904,1.443-.9.937.005,1.376.836,1.317,2.495M139.5437,83.6123c.475-.673.719-1.485.731-2.437.013-.892-.153-1.655-.497-2.289-.433-.785-1.07-1.177-1.91-1.177-1.05,0-1.869.435-2.458,1.305-.504.738-.743,1.591-.718,2.56.029.999.328,1.794.895,2.385.508.532,1.115.798,1.821.798.886,0,1.599-.382,2.136-1.145M133.7697,84.5993c.126-.118.189-.265.189-.44,0-.052-.009-.114-.025-.187-.084-.381-.156-.823-.215-1.325l-.126-1.337-.05-1.228c-.025-.772-.13-1.321-.315-1.647-.261-.462-.74-.694-1.437-.694-.441,0-.858.117-1.251.35-.393.234-.761.587-1.106,1.058l-.006-.566c-.004-.471.006-.941.031-1.408.03-.489.045-.958.045-1.408,0-.335-.034-.71-.101-1.125-.059-.378-.261-.566-.605-.566-.177,0-.326.059-.448.176-.122.118-.182.267-.182.447,0,.21.019.413.059.608.04.195.06.402.06.621,0,.184-.015.542-.044,1.074l-.019,4.726-.019.952c-.012.518-.035.831-.069.938-.038.129-.057.223-.057.283,0,.172.065.318.196.438.13.12.281.18.453.18.248,0,.431-.133.549-.399.134-.3.201-1.267.201-2.9.374-.712.668-1.194.883-1.447.42-.493.897-.739,1.43-.739.395,0,.592.403.592,1.208,0,.112-.005.281-.015.508-.011.228-.016.397-.016.508,0,.399.038.909.113,1.531.08.647.168,1.147.265,1.498.092.326.288.489.586.489.177,0,.328-.059.454-.177M126.9077,79.2463c.116-.12.174-.277.174-.47,0-.124-.027-.306-.079-.546-.053-.24-.079-.422-.079-.547,0-.193-.058-.349-.173-.469-.116-.12-.264-.18-.445-.18-.201,0-.388.038-.56.115-.24.112-.637.248-1.191.409-.555.16-.958.299-1.21.415-.828.381-1.242,1.02-1.242,1.916,0,.484.17.847.511,1.087.235.167.632.313,1.191.437l.655.148c.798.205,1.197.6,1.197,1.183,0,.27-.195.467-.586.592-.269.085-.58.128-.932.128-.194,0-.431-.026-.713-.077-.352-.064-.579-.146-.68-.244-.206-.206-.374-.309-.504-.309-.168,0-.319.064-.451.193-.132.128-.198.279-.198.45,0,.429.323.763.97,1.003.5.189,1.025.283,1.576.283.752,0,1.373-.146,1.865-.437.592-.356.889-.883.889-1.582,0-.853-.343-1.505-1.028-1.955-.47-.309-1.189-.551-2.155-.727-.122-.021-.246-.055-.372-.102.004-.403.345-.742,1.021-1.016.656-.219,1.141-.369,1.456-.451.046.352.101.583.164.695.092.159.254.238.485.238.181,0,.329-.06.444-.18M115.6327,79.1273c.265.173.477.434.637.781l-.013.759-.006.746.019,1.112c-.059.077-.12.144-.183.2-.324.278-.557.456-.699.533-.244.133-.542.2-.895.2-.517,0-.968-.2-1.352-.598-.385-.399-.577-.875-.577-1.428,0-.857.177-1.499.53-1.926.353-.426.882-.64,1.588-.64.369,0,.687.087.951.261M117.7317,74.7513c0-.416-.191-.624-.574-.624-.327,0-.519.191-.573.572-.08.626-.149,1.842-.208,3.646l-.592-.443c-.265-.155-.641-.232-1.128-.232-.95,0-1.722.345-2.316,1.036-.595.69-.892,1.607-.892,2.752,0,.947.294,1.723.882,2.328.571.591,1.292.887,2.162.887.353,0,.692-.058,1.017-.174.326-.115.64-.287.943-.514.121.386.312.579.573.579.155,0,.292-.056.41-.167.117-.112.176-.253.176-.425,0-.038-.004-.088-.013-.148-.13-.729-.195-1.807-.195-3.234,0-.63.025-1.261.076-1.891.168-2.036.252-3.352.252-3.948M110.2237,76.9983c.021-.872.032-1.647.032-2.324,0-.429-.208-.643-.624-.643-.412,0-.618.214-.618.643,0,.677-.01,1.452-.031,2.324-.021.873-.032,1.648-.032,2.325,0,.519-.023,1.298-.069,2.337-.046,1.04-.069,1.819-.069,2.338,0,.437.205.656.617.656.37,0,.576-.215.618-.643.033-.656.05-1.153.05-1.492l.095-3.196c0-.677.01-1.452.031-2.325M106.9767,79.9503c.042-.602.063-1.105.063-1.508,0-.193-.058-.349-.173-.469-.116-.12-.264-.181-.445-.181-.18,0-.329.061-.444.181-.116.12-.173.276-.173.469,0,.403-.021.906-.063,1.508-.042.602-.063,1.105-.063,1.508,0,.257.007.642.022,1.154.014.512.022.897.022,1.154,0,.189.057.343.173.463.116.12.264.18.444.18.185,0,.334-.06.448-.18.113-.12.17-.274.17-.463,0-.257-.008-.642-.022-1.154-.015-.512-.022-.897-.022-1.154,0-.403.021-.906.063-1.508M107.1497,76.0183c.145-.146.218-.322.218-.528,0-.205-.073-.381-.218-.527-.145-.146-.318-.219-.52-.219-.201,0-.376.073-.523.219-.147.146-.22.322-.22.527,0,.206.073.382.22.528.147.145.322.218.523.218.202,0,.375-.073.52-.218M104.1517,84.5993c.126-.118.189-.265.189-.44,0-.052-.009-.114-.026-.187-.084-.381-.155-.823-.214-1.325l-.126-1.337-.05-1.228c-.026-.772-.131-1.321-.315-1.647-.261-.462-.74-.694-1.437-.694-.441,0-.858.117-1.251.35-.393.234-.762.587-1.106,1.058l-.006-.566c-.005-.471.006-.941.031-1.408.029-.489.044-.958.044-1.408,0-.335-.034-.71-.101-1.125-.059-.378-.26-.566-.605-.566-.176,0-.325.059-.447.176-.122.118-.183.267-.183.447,0,.21.02.413.06.608.04.195.06.402.06.621,0,.184-.015.542-.044,1.074l-.019,4.726-.019.952c-.013.518-.036.831-.069.938-.038.129-.057.223-.057.283,0,.172.065.318.195.438.13.12.282.18.454.18.248,0,.431-.133.548-.399.135-.3.202-1.267.202-2.9.374-.712.668-1.194.882-1.447.42-.493.897-.739,1.431-.739.395,0,.592.403.592,1.208,0,.112-.005.281-.016.508-.01.228-.015.397-.015.508,0,.399.037.909.113,1.531.08.647.168,1.147.265,1.498.092.326.287.489.586.489.176,0,.327-.059.454-.177M96.5047,84.3973c.647-.292.971-.594.971-.907,0-.163-.057-.308-.17-.434-.114-.127-.248-.19-.404-.19-.054,0-.145.034-.271.103l-.731.399c-.285.137-.554.205-.806.205-.555,0-1.009-.152-1.361-.456-.379-.326-.568-.772-.568-1.338,0-.523.191-1.142.574-1.858.42-.78.844-1.17,1.273-1.17.563,0,.968.1,1.216.302.084.073.171.147.262.222.09.075.196.112.318.112.155,0,.285-.063.391-.189.104-.127.157-.272.157-.435,0-.364-.321-.673-.964-.926-.508-.197-.969-.295-1.38-.295-.79,0-1.5.514-2.13,1.543-.567.926-.851,1.824-.851,2.694,0,.913.302,1.649.907,2.206.576.532,1.294.797,2.156.797.374,0,.844-.128,1.411-.385M86.5627,81.5093c-.021.613-.21,1.1-.567,1.46-.315.326-.691.489-1.128.489-.374,0-.699-.144-.977-.431-.332-.347-.498-.832-.498-1.453,0-.622.137-1.175.41-1.66.344-.604.826-.904,1.443-.9.937.005,1.376.836,1.317,2.495M87.0037,83.6123c.475-.673.719-1.485.731-2.437.013-.892-.153-1.655-.497-2.289-.433-.785-1.07-1.177-1.91-1.177-1.05,0-1.87.435-2.458,1.305-.504.738-.743,1.591-.718,2.56.029.999.328,1.794.895,2.385.508.532,1.115.798,1.821.798.886,0,1.599-.382,2.136-1.145M81.5257,80.8183c.013-.945.019-1.656.019-2.132,0-2.782-.366-4.173-1.097-4.173-.445,0-.668.249-.668.746,0,.163.042.39.126.681.097.339.154.564.171.676.142,1.114.214,2.613.214,4.495l.019.81c.012.36.012.632,0,.816-1.189-1.144-2.282-2.344-3.277-3.601-.836-1.058-1.777-2.387-2.823-3.986-.328-.498-.603-.746-.826-.746-.21,0-.398.081-.564.244-.166.163-.249.343-.249.54,0,.27.025.672.076,1.206.05.534.075.935.075,1.206,0,.282.007.71.019,1.282.013.573.019,1,.019,1.283,0,.266-.008.664-.025,1.193-.017.53-.025.927-.025,1.193,0,.18-.014.452-.041.817-.028.364-.041.636-.041.816,0,.185.061.343.183.476.134.15.317.225.548.225.437,0,.655-.576.655-1.73,0-.36-.007-.895-.022-1.607-.015-.712-.022-1.245-.022-1.601l.019-1.466.031-1.46c2.214,3.112,4.176,5.494,5.886,7.144.32.309.595.463.826.463.382,0,.607-.216.674-.649.067-.48.101-.824.101-1.029,0-.476.006-1.187.019-2.132" style="fill:#034ea2;"/></g><g style="clip-path:url(#clippath-2);"><path d="M271.8131,47.3545c.322.435,3.771,1.133,1.564,3.214-2.207,2.082,1.196,1.084-1.994,2.149-4.219,1.408-2.638,1.279-4.38,2.007-1.741.729-6.215,5.651-8.286,5.054s-3.389-.774-2.659-1.987c1.241-2.059,2.251-1.141,5.692-4.223,2.154-1.931,8.052-3.836,9.2-5.806,1.149-1.971.863-.408.863-.408" style="fill:#ed1c24;"/><path d="M262.9298,68.6841c-.307-.446-3.729-1.264-1.451-3.267,2.278-2.003-1.157-1.125,2.068-2.077,4.266-1.26,2.68-1.187,4.447-1.854,1.766-.667,5.966-6.912,8.015-6.243,2.048.67,3.803,2.374,3.031,3.561-1.312,2.014-2.29,1.061-5.836,4.022-2.221,1.854-8.181,3.551-9.398,5.481-1.216,1.929-.876.377-.876.377" style="fill:#00a1e4;"/><path d="M285.6424,67.4605l-13.323-20.976-16.012,11.452s3.118,14.315,7.225,11.792c3.107-1.909,15.594-11.367,15.594-11.367" style="fill:none; stroke:#034ea2;"/><path d="M501.0856,109.834c.015-.087.027-.176.043-.264.059-.316.119-.647.162-1.029.231-1.966.545-3.979.545-3.983.024-.156-.017-.312-.113-.437-.09-.116-.223-.192-.365-.211l.959-9.091c1.61.246,2.915.332,3.642.363.043.01.09.016.137.016l.213-.004.244.004c.045,0,.09-.006.133-.016.517-.021,1.42-.076,2.555-.215l.233,2.206c-.143.022-.272.098-.362.211-.096.125-.137.284-.113.438,0,0,.314,2.015.541,3.981l.11.972c.185,1.641.289,2.515.437,2.856,1.02,2.364,4.175,2.955,6.512,2.135,2.03-.705,2.99-2.277,2.499-4.102-.23-.858-1.411-1.716-2.702-2.591-.199-.137-.369-.248-.483-.332-.041-.362-.15-1.258-.425-3.544-.038-.303-.301-.526-.612-.496l-.082.006-.326-2.777c3.02-.856,5.583-2.087,7.623-3.662.198-.152.274-.416.186-.65l-7.438-19.681c-.012-.037-1.096-3.294-1.276-6.445.184.08.399.066.572-.057l11.688-8.491c.045.016.092.031.137.045-.563.432-.96.903-1.014,1.44-.032.307.039.758.551,1.174.322.258,1.279,1.042,5.007-1.514.934.213,1.616.178,2.087-.115l7.391,4.64.559,2.518c.035.161.136.297.2809.375.145.079.317.09.467.034l3.454-1.268-2.563,12.574c-.055.26.08.522.322.631.44.195.889.379,1.401.575l.098.034-3.593,11.092c-.096.295.064.615.3589.712.233.078.475.158.7531.242.373.116.765.229,1.168.336l-4.992,12.045-.189-.066c-.29-.102-.604.045-.716.328-.84,2.134-1.174,2.987-1.307,3.329-.129.053-.32.117-.547.199-1.473.53-2.831,1.072-3.272,1.845-.713,1.259-.551,2.594.369,3.685h-30.948ZM500.0136,109.363c-.053.287-.104.564-.139.861-.037.311.185.594.496.629.024.004.045.004.067.004.01,0,.017-.01.027-.01.089.057.176.119.289.119h32.511c.313,0,.566-.254.566-.566,0-.045-.038-.074-.048-.116.033-.208-.009-.421-.194-.55-.57-.398-1.805-1.494-.938-3.026.27-.471,1.952-1.077,2.671-1.336.842-.304,1.067-.384,1.153-.683.039-.103.801-2.045,1.172-2.989l.18.062c.285.096.596-.041.711-.318l5.447-13.143c.063-.152.057-.324-.017-.47-.073-.15-.207-.257-.368-.295-.609-.156-1.197-.318-1.772-.493-.056-.018-.111-.036-.168-.053l3.591-11.082c.096-.291-.06-.606-.351-.709l-.653-.233c-.291-.109-.58-.222-.866-.343l2.675-13.119c.041-.203-.029-.412-.185-.544-.157-.135-.38-.174-.565-.102l-3.798,1.396-.471-2.117c-.031-.148-.123-.277-.252-.357l-7.96-4.998c-.25-.16-.613-.045-.789.197-.096.102-.516.211-1.501-.051-.158-.039-.332-.009-.468.084-2.625,1.833-3.675,1.859-3.855,1.708-.07-.054-.143-.131-.137-.175.012-.12.193-.577,2.04-1.533.189-.099.308-.299.304-.513-.003-.215-.128-.411-.322-.502-.008-.004-.139-.063-.146-.067-.112-.047-.241-.06-.356-.029-.43.103-1.053.166-1.579-.109-.187-.098-.42-.084-.598.043l-11.525,8.374-.475-.561c-.148-.176-.396-.242-.613-.171-.221.075-.373.278-.385.511-.184,3.727,1.282,8.127,1.35,8.333l7.2939,19.301c-1.976,1.442-4.4489,2.565-7.364,3.341-.272.074-.45.335-.416.615l.449,3.808c.035.303.324.545.611.498l.083-.005c.123,1.009.373,3.083.38,3.143.01.352.21.486.952.988.629.429,2.104,1.427,2.245,1.949.469,1.749-1.086,2.497-1.778,2.737-1.868.648-4.359.193-5.097-1.512-.092-.235-.237-1.511-.352-2.536l-.111-.976c-.153-1.33-.344-2.682-.456-3.43.127-.026.244-.096.327-.197.097-.118.142-.268.127-.418l-.354-3.355c-.018-.154-.094-.293-.215-.389-.119-.093-.277-.125-.428-.115-1.452.201-2.587.266-3.134.285-.029,0-.058.004-.086.01l-.138-.002-.108.002c-.027-.006-.055-.01-.084-.01-.75-.027-2.296-.123-4.204-.448-.168-.028-.317.013-.438.108-.125.094-.205.237-.223.391l-1.084,10.257c-.016.152.029.303.127.421.084.102.201.171.33.196-.111.751-.305,2.101-.459,3.432-.041.355-.098.66-.152.953M480.0556,53.698c-.827-1.628-1.582-3.414-2.311-5.142-.261-.617-.523-1.236-.79-1.853.168-.009.34-.034.516-.075,1.078-.253,1.857-1.138,2.397-2.075.158.773.329,1.536.511,2.284.252,1.029,1.406,3.854,2.895,3.854.476,0,.863-.259,1.156-.774.621,1.214,1.412,2.539,2.68,3.091.336.147.671.221.995.221.991,0,1.696-.693,2.14-1.216.281-.329.493-.685.635-1.062.323.059.633.067.94.018.344-.053.651-.156.921-.307,3.198,2.951,7.497,4.58,11.877,4.503v.704c-.667.085-1.288.213-1.831.38l-.334-.211c-.182-.117-.412-.12-.598-.015l-3.507,1.981c-.151.087-.256.237-.286.407-.031.172.017.348.13.48.185.215.347.475.485.774l-10.366,8.645c-.614-.681-1.869-1.847-3.253-1.847-.577,0-1.112.196-1.589.583-.622.506-.741,1.038-.73,1.394.012.386.174.77.486,1.15-.809.339-1.51.922-1.935,1.326l-4.793-4.657c.171-.245.325-.487.463-.73.134-.234.09-.529-.106-.714l-1.405-1.323c.128-.037.257-.085.385-.145.976-.453,1.489-1.53,1.533-3.212.403.248.789.369,1.166.369.425,0,1.03-.16,1.5-.926.912-1.486.758-4.432.023-5.88M479.0166,54.226c.633,1.247.645,3.729.024,4.742-.229.371-.432.371-.508.371-.197,0-.638-.117-1.376-.898-.17-.18-.437-.232-.664-.13-.227.103-.363.338-.339.586.179,1.89-.101,3.064-.81,3.393-.98.456-1.676-.514-2.398-1.5-.264-.363-.522-.713-.783-.991-.194-.207-.504-.242-.74-.091-.237.152-.331.45-.225.711.09.216.153.446.189.677.02.129.082.246.176.336l4.148,3.907c-.134.207-.281.415-.446.628-.181.235-.157.568.055.774l5.576,5.416c.109.106.255.165.406.165h.026c.16-.008.31-.08.415-.201.386-.449,1.623-1.615,2.699-1.64.25-.006.469-.172.542-.411.074-.238-.013-.498-.217-.645-.532-.382-.856-.763-.863-1.019-.004-.137.097-.289.3-.455.268-.218.547-.322.854-.322,1.097,0,2.329,1.334,2.71,1.848.096.129.24.212.399.232.165.022.321-.029.443-.131l11.141-9.291c.187-.158.257-.414.174-.646-.123-.343-.27-.656-.441-.939l2.641-1.493.271.171c.151.094.336.119.503.057.65-.225,1.463-.386,2.352-.464.301-.026.532-.279.532-.581v-1.834c0-.16-.066-.314-.183-.424-.116-.11-.275-.173-.433-.158-4.418.245-8.822-1.406-11.967-4.485-.225-.219-.581-.222-.808-.007-.182.173-.434.284-.75.334-.301.05-.617.001-.968-.129-.162-.059-.344-.046-.495.042s-.254.237-.282.409c-.067.405-.244.771-.539,1.119-.671.787-1.14.96-1.782.682-1.076-.47-1.8-1.927-2.381-3.098-.122-.247-.24-.483-.355-.701-.116-.218-.358-.341-.6-.304-.245.036-.44.222-.487.465-.208,1.073-.482,1.223-.479,1.223-.372,0-1.403-1.495-1.762-2.965-.321-1.314-.606-2.679-.847-4.055-.046-.262-.265-.46-.531-.481-.27-.025-.511.145-.596.398-.273.822-1.047,2.768-2.332,3.071-.37.085-.69.054-.948-.092-.219-.12-.492-.093-.679.076-.186.17-.242.44-.14.67.423.945.828,1.905,1.232,2.862.738,1.746,1.501,3.551,2.346,5.216M455.2436,109.834c.435-.382.802-.848,1.052-1.425.133-.313.344-1.078.508-1.875,1.283.871,2.827,1.242,4.081.947,1.069-.26,1.839-.971,2.226-2.06.298-.835-.065-1.832-.331-2.56l-.093-.261c-.055-.156-.086-.465-.116-.763-.05-.504-.111-1.112-.33-1.635l4.308-8.136c3.294-.662,6.281-2.009,8.659-3.901.196-.158.266-.423.174-.656l-3.562-8.922c.532-.225,1.018-.465,1.45-.715.227-.133.334-.405.258-.657l-3.139-10.255,1.904,2.184c.184.207.489.252.723.111,0,0,.145-.087.383-.253l5.316,5.029c-.555,1.644-1.672,5.545-.139,6.465.571.338,1.022.252,1.304.115.482-.232.797-.764,1.016-1.442.039.05.08.101.123.152.508.591,1.213.917,2.096.966.85.037,1.241-.289,1.428-.582.329-.512.227-1.222-.046-1.968.57.258,1.162.396,1.656.307.534-.092.928-.426,1.114-.932.234-.147.436-.32.607-.518.169.694.44,1.248.905,1.516.268.158.711.285,1.307-.018,1.6-.802.786-4.773.356-6.455l8.532-6.924c-.328,2.719-1.153,5.193-1.157,5.205l-7.443,19.698c-.086.232-.014.494.179.646.194.153.391.295.592.436l.323-.467-.192.561c.158.11.319.217.454.301.009.008.126.082.136.09.18.112.358.225.59.36,1.397.822,2.989,1.521,4.738,2.086l-1.154,9.814-.081-.006c-.308-.049-.574.193-.611.496-.276,2.279-.385,3.177-.428,3.536-.104.075-.256.17-.434.284-1.055.68-1.997,1.359-2.403,2.081h-36.839ZM451.9236,110.4c0,.295.233.521.522.548v.018h39.905c.111,0,.197-.062.285-.118.162-.062.303-.172.352-.352.138-.516,1.522-1.408,2.114-1.789.684-.443.914-.591.922-.908.01-.087.262-2.17.383-3.184l.082.006c.291.025.576-.196.611-.498l1.274-10.828c.034-.274-.134-.53-.396-.61-1.843-.56-3.507-1.273-4.998-2.149-.17-.102-.34-.207-.614-.381-.15-.096-.299-.195-.445-.297l-.323.467.192-.561c-.068-.047-.137-.095-.205-.144l7.301-19.32c.049-.142,1.169-3.503,1.336-6.841.012-.225-.109-.434-.31-.536-.194-.099-.438-.074-.614.067l-9.854,7.999c-.174.14-.249.371-.19.588.709,2.608.863,5.232.324,5.502-.051.029-.176.08-.23.05-.307-.177-.514-1.149-.614-2.883l-.013-.25c-.02-.309-.293-.517-.591-.533-.308.013-.548.271-.543.58.002.168.002,1.658-1.053,2.179-.156.078-.269.224-.305.398-.048.25-.15.287-.269.306-.699.116-2.149-.764-2.536-1.407-.156-.265-.497-.349-.764-.203-.268.148-.367.484-.227.756l.188.354c.299.565,1.211,2.286.967,2.666-.016.028-.149.079-.408.061-.573-.031-.999-.219-1.302-.57-.453-.53-.554-1.348-.498-1.938.03-.307-.191-.583-.498-.618-.297-.053-.584.18-.627.485l-.035.25c-.233,1.721-.512,2.673-.833,2.827-.052.022-.179-.037-.228-.066-.516-.311-.16-2.913.746-5.463.076-.211.02-.448-.145-.601l-5.923-5.604c-.2-.192-.508-.207-.729-.041-.106.078-.203.148-.287.209l-3.326-3.812c-.175-.202-.472-.252-.703-.124-.234.131-.346.407-.268.663l3.783,12.356c-.426.223-.905.438-1.426.637-.141.054-.256.162-.317.303-.06.138-.062.294-.008.437l3.613,9.052c-2.243,1.692-5.035,2.889-8.1,3.47-.17.031-.315.139-.397.291l-4.57,8.632c-.092.176-.086.387.016.557.215.359.271.945.324,1.463.037.383.074.744.174,1.03l.097.274c.208.564.491,1.337.331,1.791-.258.719-.737,1.169-1.426,1.336-1.143.276-2.708-.257-3.816-1.297-.155-.145-.381-.192-.576-.121-.2.07-.344.244-.374.453-.156,1.077-.476,2.262-.598,2.548-.453,1.043-1.493,1.729-2.709,1.872h-.099v.018c-.289.027-.522.253-.522.548M460.3206,93.089l-2.832,5.255c-.028-.003-.055-.007-.083-.007l.575-5.506c.769.125,1.551.211,2.34.258M458.2926,99.308l3.495-6.485c.097-.179.093-.394-.009-.569-.102-.175-.288-.286-.49-.29-1.258-.028-2.508-.158-3.714-.387-.163-.031-.326.007-.456.105-.131.098-.215.244-.232.407l-.735,7.035c-.027.253.181.461.414.562.065.027.137.041.212.041.196,0,.407-.089.527-.228.063,0,.14.02.232.062.279.128.61.018.756-.253M419.3046,99.696c.846-.224,1.586-.442,2.202-.653.267-.092.425-.366.373-.641l-3.542-18.996c.576-.204,1.119-.417,1.625-.638.246-.105.383-.371.329-.633l-2.578-12.648,3.451,1.267c.152.059.324.045.467-.033.142-.078.246-.215.281-.375l.344-1.529,4.89,1.822c-.033,1.753.088,5.744,1.817,6.166.643.155,1.053-.062,1.28-.277.389-.363.527-.961.533-1.672.053.037.106.074.162.109.661.414,1.435.51,2.292.299.508-.127.866-.357,1.061-.69.072-.123.145-.297.161-.52,1.129-.58,2.299-1.605,2.659-2.774,1.395-.363,5.748-1.508,9.372-2.486.207.55.41,1.011.615,1.396.104.199.315.303.541.301.251-.02,1.005-.074,4.873-2.017.446.125.924.133,1.411.031-.913,3.52-2.497,9.575-3.449,13.042-.07.254.045.522.276.649.117.064.24.127.365.187l-3.458,8.663c-.088.225-.027.481.154.639,1.44,1.257,3.142,2.302,5.066,3.109l-1.361,11.566c-.729.224-1.286.88-1.749,1.429-.195.228-.397.466-.527.564l-.219.156c-.637.454-1.509,1.076-1.737,1.937-.349,1.296-.317,2.527.456,3.388h-24.799c.761-.804,1.056-1.848.749-2.996-.233-.857-1.098-1.477-1.731-1.928l-.223-.16c-.134-.1-.336-.336-.531-.567-.41-.484-.905-1.066-1.532-1.345l-.369-3.142ZM418.1206,99.336l.469,3.996c.027.246.213.443.455.49.438.084.914.644,1.297,1.096.247.291.481.569.723.746l.236.171c.493.351,1.169.834,1.296,1.298.391,1.466-.658,2.226-1.317,2.548-.132.065-.218.178-.269.304-.119.103-.202.245-.202.415,0,.312.254.566.567.566h29.208c.313,0,.567-.254.567-.566s-.254-.566-.567-.566h-.219v-.005c-.322-.048-.639-.113-.939-.217-.689-.24-1.516-1.127-1.047-2.873.125-.467.805-.951,1.301-1.306l.231-.166c.242-.178.474-.453.723-.746.416-.492.933-1.103,1.399-1.105.287,0,.527-.215.56-.5l1.462-12.417c.031-.256-.115-.498-.354-.594-1.833-.727-3.458-1.672-4.838-2.816l3.506-8.784c.111-.283-.018-.603-.295-.728-.129-.057-.258-.115-.383-.176,1.076-3.947,2.817-10.623,3.614-13.706.059-.227-.027-.467-.219-.604-.187-.136-.445-.144-.641-.013-.142.093-.281.166-.419.218-.489.182-.942.194-1.35.038-.149-.061-.317-.051-.464.021-2.594,1.311-3.774,1.767-4.3,1.925-.174-.377-.35-.825-.535-1.357-.098-.279-.397-.441-.684-.361-4.076,1.103-9.341,2.485-10.197,2.706-.221.057-.387.24-.42.467-.127.852-1.178,1.909-2.448,2.454-.258.111-.385.537-.311.809-.002,0-.056.089-.361.164-.559.141-1.02.088-1.417-.16-.594-.372-.939-1.123-1.062-1.706-.065-.3-.344-.503-.663-.437-.303.059-.504.348-.451.65l.041.246c.301,1.713.32,2.705.064,2.947-.049.047-.181.015-.236.002-.59-.145-1.037-2.734-.94-5.434.01-.244-.139-.467-.369-.553l-5.881-2.19c-.151-.055-.32-.043-.467.033-.144.078-.248.215-.283.375l-.344,1.532-3.796-1.395c-.188-.07-.41-.035-.565.101-.156.133-.226.342-.186.543l2.687,13.191c-.492.201-1.022.396-1.577.584-.269.09-.43.363-.377.64l3.54,18.992c-.609.193-1.322.394-2.129.595-.276.071-.457.334-.424.618M403.2916,109.834c.287-.306.528-.647.693-1.028.161-.371,1.157-3.797.588-4.703-.123-.195-.283-.351-.48-.469l.293-2.76c1.875.349,3.259.556,3.259.556.154.024.314-.019.437-.117.123-.1.202-.244.213-.402l.854-11.604.852,11.604c.012.158.09.302.213.402.123.098.281.137.438.117,0,0,1.453-.218,3.403-.584l.313,2.937c-.106.092-.198.197-.278.32-.564.901.426,4.328.589,4.705.164.379.399.721.683,1.026h-12.07ZM401.3726,109.978c-.127.105-.219.245-.219.422,0,.312.254.566.567.566h15.105c.312,0,.566-.254.566-.566,0-.129-.064-.234-.137-.33-.029-.168-.109-.321-.271-.406-.598-.313-1.024-.754-1.264-1.305-.287-.669-.807-3.23-.672-3.646.037-.059.08-.094.144-.124.229-.097.366-.332.34-.58l-.412-3.895c-.018-.156-.1-.301-.227-.395-.129-.095-.285-.134-.445-.101-1.432.275-2.663.484-3.361.595l-1.371-18.676c-.024-.297-.27-.526-.567-.526s-.543.229-.566.526l-1.374,18.676c-.674-.107-1.846-.304-3.216-.568-.154-.031-.317.006-.445.102-.127.093-.209.238-.227.394l-.403,3.8c-.029.287.159.551.44.613.164.037.219.094.237.117.158.461-.366,3.019-.651,3.686-.248.572-.693,1.023-1.327,1.338-.12.06-.193.169-.244.283M362.5396,95.229c1.37-.074,2.667-.269,3.865-.584.24-.062.41-.275.422-.523l.957-20.99c.004-.047.395-4.593,1.946-7.758l11.031,2.182c.418,1.672,1.573,5.529,3.349,5.529h.025c.612-.011.94-.286,1.108-.512.24-.322.32-.758.242-1.322.254-.077.493-.19.715-.338.028.002.055.004.084.004.016.8.205,1.334.581,1.652.222.189.613.388,1.234.236,1.727-.422,1.848-4.411,1.817-6.166l5.729-2.133.408,1.842c.035.16.137.297.281.375.143.078.317.09.467.033l3.455-1.269-2.564,12.576c-.054.262.082.524.327.633.443.195.892.379,1.393.569.177.067.357.131.537.194l-3.533,18.943c-.052.275.106.549.372.639.234.082.478.162.76.246.498.155,1.035.303,1.586.446l-.379,3.228c-.52.306-.944.806-1.297,1.222-.193.231-.397.467-.532.567l-.23.166c-.631.452-1.493,1.069-1.723,1.926-.306,1.139-.018,2.187.741,2.992h-29.205c-.005-.243.002-.482-.058-.737-.203-.864-1.352-1.759-2.616-2.675-.195-.14-.361-.257-.469-.343-.031-.356-.109-1.249-.312-3.556-.024-.268-.229-.477-.485-.513l-.029-6.781ZM361.4026,94.688l.035,7.911c0,.156.065.303.178.41.097.092.222.147.355.155.09,1.013.274,3.1.28,3.147-.008.358.187.5.918,1.029.616.446,2.055,1.492,2.177,2.015.062.262.082.51.062.734-.01.111.045.202.091.293,0,.007-.007.011-.007.018,0,.312.254.566.567.566h31.211c.313,0,.567-.254.567-.566,0-.185-.102-.327-.24-.431-.047-.131-.136-.249-.27-.317-.635-.324-1.643-1.082-1.26-2.517.125-.464.799-.945,1.289-1.297l.243-.173c.242-.178.476-.455.724-.749.358-.422.764-.899,1.165-1.055.195-.076.334-.254.357-.463l.473-4.027c.033-.284-.148-.547-.426-.617-.699-.174-1.385-.358-2.043-.561-.077-.023-.153-.047-.227-.07l3.53-18.938c.053-.278-.107-.552-.377-.641-.326-.11-.648-.223-1.002-.358-.297-.111-.588-.226-.877-.348l2.672-13.121c.041-.201-.029-.411-.185-.544-.157-.136-.379-.171-.565-.101l-3.798,1.397-.41-1.844c-.035-.161-.139-.297-.281-.375-.143-.077-.319-.088-.469-.034l-6.719,2.501c-.231.086-.379.309-.37.553.098,2.698-.349,5.289-.939,5.434-.088.019-.194.029-.233,0-.025-.022-.248-.244-.164-1.374.014-.182-.059-.358-.197-.475-.139-.117-.323-.166-.499-.119-.21.051-.418.057-.619.031-.139-.019-.311.02-.434.117-.265.211-.562.326-.91.345-.172.009-.328.098-.428.236-.1.141-.131.319-.086.483.211.748.076.941.07.949-.023.031-.109.053-.22.055h-.004c-.61,0-1.718-2.384-2.327-5.012-.051-.217-.225-.385-.444-.428l-11.806-2.335c-.247-.056-.491.069-.608.288-1.823,3.374-2.251,8.362-2.27,8.594l-.94,20.587c-1.165.275-2.429.433-3.761.474-.307.009-.551.261-.549.568M321.3126,104.236l.02-3.167c.856-.119,1.617-.246,2.268-.385.275-.058.467-.308.449-.59l-.257-4.172c.138-.025.306-.007.457-.027.375-.045,1.195-.404,2.733-1.086l.875-.387c1.827-.797,3.742-1.549,3.746-1.551.146-.057.264-.174.32-.321.053-.132.053-.281,0-.414l9.841-4.423c3.183,2.86,6.692,4.638,7.86,5.189.034.025.073.049.114.066l.189.075c.155.074.24.107.24.107.038.014.075.023.112.029,1.104.415,3.747,1.314,7.008,1.784l-.055,7.331-.156.007c-.156.01-.301.082-.402.203-.1.123-.147.279-.127.433,0,.004.248,2.027.412,3.999.076.918.346,1.849.563,2.595.032.11.058.203.087.303h-32.645c.014-.284-.079-.607-.155-1.147-.123-.878-.906-1.595-1.477-2.116l-.207-.192c-.121-.115-.293-.375-.457-.626-.35-.53-.766-1.167-1.356-1.517M320.2006,100.567l-.023,4.024c-.002.248.158.469.395.545.422.133.824.747,1.147,1.238.211.322.41.625.629.83l.218.203c.446.406,1.054.963,1.12,1.438.01.071-.06,1.068-.086,1.498-.002.022-.023.035-.023.057,0,.017.016.026.017.043-.003.053-.004.089-.003.1l.036-.022c.062.247.251.445.516.445h34.062c.064,0,.107-.047.164-.067.014-.001.024.011.038.009.053-.008.08-.056.126-.077.027-.02.058-.025.081-.049.175-.12.3-.3.265-.523-.041-.252-.142-.615-.267-1.045-.203-.697-.457-1.569-.524-2.372-.109-1.332-.258-2.688-.346-3.442l.086-.004c.297-.017.532-.264.534-.562l.062-8.361c.002-.287-.209-.529-.494-.566-3.472-.446-6.295-1.425-7.348-1.823-.026-.01-.049-.018-.075-.024l-.236-.099c-.021-.016-.045-.028-.07-.04-1.047-.488-4.717-2.309-7.944-5.294-.168-.155-.409-.196-.618-.102l-10.71,4.814c-.139.063-.248.18-.301.325-.045.121-.045.254-.004.377-.709.283-1.985.802-3.222,1.341l-.879.389c-.963.429-2.159.958-2.413.999-.268.031-.541.024-.813-.033-.182-.025-.351.016-.486.129-.133.115-.204.287-.194.463l.27,4.342c-.641.12-1.375.234-2.192.337-.281.036-.493.276-.495.559M322.1766,67.485l3.441,1.276c.158.059.334.047.482-.035.148-.079.253-.221.29-.386l.564-2.559,7.635-1.777c.748,1.161,2.728,4.002,4.316,4.248.178.236.484.46,1.003.514.02.002.116.007.136.007,1.733,0,3.172-3.696,3.718-5.312l11.222-1.285c-1.399,2.476-3.217,4.542-3.225,4.551l-14.706,15.441c-.175.184-.21.461-.087.683.118.214.242.425.368.633.002.003.074.117.076.12.106.169.215.339.322.499l-8.532,3.758-.029-.061c-.134-.285-.468-.411-.76-.284-2.147.938-2.982,1.302-3.314,1.447-.13-.054-.314-.143-.533-.247-.489-.229-1.126-.529-1.747-.75l-.383-6.249c.683-.236,1.351-.498,1.991-.781.25-.11.389-.38.335-.647l-2.583-12.804ZM320.8276,66.689l2.696,13.366c-.607.255-1.237.489-1.878.698-.253.081-.418.324-.402.588l.434,7.089c.015.244.18.453.414.523.653.196,1.417.555,1.976.818.65.306.847.393,1.059.393.082,0,.185-.022.26-.056.08-.035,2.021-.883,2.973-1.298l.03.062c.134.285.472.41.761.284l9.697-4.27c.16-.072.281-.211.327-.382.046-.168.013-.349-.089-.492-.108-.15-.214-.302-.377-.544-.107-.159-.21-.321-.312-.483l-.494.31.427-.416c-.045-.074-.089-.148-.133-.222l14.42-15.143c.099-.111,2.435-2.764,3.923-5.785.094-.191.076-.419-.047-.593-.123-.173-.329-.268-.542-.243l-12.692,1.452c-.228.026-.419.183-.489.402-.827,2.59-2.1,4.861-2.74,4.861-.191-.021-.206-.068-.216-.102-.085-.282-.408-.451-.694-.402-.777,0-2.559-2.111-3.764-4.067-.131-.213-.384-.318-.628-.262l-8.396,1.953c-.218.051-.388.223-.437.443l-.499,2.265-3.794-1.407c-.199-.075-.421-.036-.581.103-.161.136-.235.35-.193.557M478.7736,37.247c-.246.039-.504.117-.766.234-.047-.744-.143-1.484-.287-2.215.088-.052.174-.11.256-.172.283-.223.512-.477.683-.758.007.936.044,1.911.114,2.911M411.0926,52.989l.1.149c-.028.015-.042.022-.068.035l-.032-.184ZM346.0666,58.84l-1.846.225c-.066-.411-.191-.981-.42-1.548.496.803,1.288,1.273,2.266,1.323M303.1646,109.834c.751-.319,1.408-.818,1.846-1.562.205-.351,1.612-3.638,1.158-4.593-.097-.209-.236-.384-.419-.523l.631-2.708c1.818.572,3.165.945,3.165.945.156.043.316.022.449-.064.135-.082.229-.217.26-.371l2.268-11.424-.574,11.627c-.008.158.05.31.162.424.109.113.246.171.422.169,0,0,1.467-.042,3.448-.173l-.052,2.952c-.118.078-.223.174-.315.285-.659.82-.098,4.365.01,4.738.035.118.061.193.089.278h-12.548ZM347.3396,58.685c.676-.193,1.328-.551,1.879-1.019.018.273.056.535.115.778l-1.994.241ZM636.9546,110.4c0-.312-.254-.566-.567-.566h-96.241c.215-.455.5-1.186.927-2.304l.316-.822c.714-1.847,1.526-3.718,1.526-3.722.063-.143.063-.308,0-.452-.041-.094-.105-.174-.187-.233l5.07-12.685c2.133.408,3.804.662,3.821.664.294.043.591-.162.643-.465l1.639-9.644,5.149,10.306c.136.272.4691.391.746.261.004,0,1.403-.653,3.284-1.47l2.499,4.177c-.119.078-.205.199-.238.34-.037.154-.008.317.078.448.002.002,1.137,1.705,2.171,3.396l.469.771c.883,1.458,1.358,2.229,1.641,2.483,1.93,1.732,5.046.952,6.828-.765,1.536-1.48,1.739-3.3.532-4.75-.569-.682-2.001-.975-3.543-1.237-.24-.041-.445-.074-.582-.103-.412-.667-1.881-3.049-1.881-3.049-.16-.257-.497-.344-.76-.194l-.075.041-2.201-3.588c.506-.192.998-.369,1.459-.527.16-.057.287-.18.348-.338.058-.159.045-.336-.039-.483l-5.836-10.127c.168-.068.334-.138.498-.211.246-.107.383-.371.328-.632l-2.577-12.647,3.453,1.27c.152.056.324.044.466-.034.1429-.078.2469-.214.282-.373l.043-.189,6.793,4.393c-.416,1.706-1.172,5.629.426,6.41.59.291,1.036.162,1.307.004.459-.272.727-.825.887-1.519.043.047.086.094.133.139.557.548,1.256.841,2.174.789.843-.024,1.212-.393,1.372-.7.283-.537.123-1.23-.209-1.947.666.231,1.35.315,1.875.102.401-.161,1.05-.622.876-1.904-.141-1.033-2.196-2.247-2.43-2.381-.184-.106-.358-.198-.526-.28.865-.523,1.735-1.255,1.852-2.112.053-.395-.029-.98-.725-1.531-.568-.448-1.205-.635-1.907-.534-1.27.172-2.387,1.258-2.928,1.874l-7.978-5.268.6-2.702c.061-.27-.082-.543-.336-.647l-9.064-3.737c-.17-.07-.361-.053-.511.039-.612-.324-1.456-.578-2.441-.734.092-.024.182-.049.272-.072.266-.077.529-.157.789-.243l.266-.091c.166-.057.33-.119.502-.182l.311-.126c.144-.058.287-.116.42-.176l1.067-.514c.121-.062.238-.125.345-.187l.657-.383c.129-.076.26-.156.373-.234l.725-.5c.539-.393,1.063-.826,1.624-1.351.148-.137.294-.281.533-.523.139-.143.277-.289.399-.428.003-.004.101-.113.105-.117.1331-.149.264-.301.475-.557.129-.162.258-.322.341-.441.014-.014.083-.102.094-.117.131-.178.258-.355.377-.533,1.368-1.992,2.296-4.284,2.699-6.652.338-.033.678-.143,1.02-.328,1.947-1.065,2.153-4.317,1.967-6.07-.09-.852-.434-2.884-1.68-3.39-.772-.322-1.608-.09-2.374.631-.963-2.296-2.438-4.363-4.312-6.028-.162-.763-.623-1.491-1.19-1.856-1.276-.818-3.108-1.572-5.609-2.309-.469-.135-.983-.237-1.622-.314l-.002.005c-.017-.005-.035-.01-.055-.013-.015-.005-.031-.007-.046-.009-.266-.033-.532-.056-.8-.076l-.236-.021c-.33-.022-.658-.039-.987-.055-2.3701-.107-4.984.389-7.565,1.46-4.247,1.76-7.321,5.121-9.13,9.978l-.144.392c-.002.006-.004.01-.006.016l-.082.23c-.002.002-.078.232-.08.236l-.174.582c-.002.009-.037.148-.039.156l-.094.539c0,.012-.012.15-.012.162l-.004.166c0,.039,0,.078.002.107-.121.653-.205,1.308-.25,1.949,0,.004-.011.23-.011.234-.012.262-.02.525-.024.873l.002.17c.006.683.055,1.362.145,2.013l.041.289c.002.006.002.011.004.019-.981-.177-1.77.065-2.243.705-.801,1.085-.026,2.997.343,3.768.762,1.594,2.611,4.286,4.865,4.171.346-.016.662-.084.946-.203,2.725,3.122,6.553,5.133,10.644,5.658-.222.078-.43.164-.617.256-.109-.028-.229-.018-.342.029l-9.06,3.733-5.287-3.25c.342-.745.872-2.197.5081-3.412-.201-.67-.6331-1.175-1.283-1.505-.77-.388-1.321-.238-1.651-.048-.03.018-.061.036-.09.055-.234-.27-.633-.512-1.305-.596-.854-.123-2.222,1.048-2.773,1.555-.285-.062-.527-.064-.73-.004-.022.006-.044.014-.063.02-.381-.986-.865-1.571-1.475-1.776-.35-.12-.907-.155-1.577.334-.586.43-.928,1.001-1.014,1.694-.1541,1.23.579,2.546,1.043,3.237l-9.085,6.485c-.011-.008-.025-.016-.039-.024l-3.493-1.953c-.179-.103-.396-.097-.571.007l-.312.192c-.518-.154-1.112-.273-1.749-.352v-1.231c.733-.185,1.45-.42,2.146-.699.254-.104.504-.211.748-.324l.248-.119c.16-.077.32-.153.483-.235l.291-.158c.14-.077.275-.151.402-.226.11-.06.217-.126.325-.193l2.121-1.525-.044-.053.201-.101.011.007c.092-.076.18-.152.245-.213.005-.006.115-.105.121-.111.464-.429.918-.897,1.438-1.497.125-.148.244-.299.363-.453l-.048-.037.094-.118.062.024c.115-.152.226-.303.336-.457l-.033-.023.101-.126.033.01c.11-.158.219-.318.307-.457l.094-.144c.111-.17.218-.343.375-.613.107-.183.213-.369.31-.558,0,0,0-.002.002-.002,1.159-2.177,1.823-4.603,1.937-7.049.308-.076.607-.219.896-.424.024-.015.045-.031.067-.047.293.11.6.178.926.209.615.061,2.237.205,2.915-1.444.526-1.268.166-2.753-.232-4.042.558.166,1.017.096,1.359-.225,1.083-1.01-.056-3.816-.593-4.722-2.453-4.138-5.18-7.713-8.105-10.624-2.164-2.152-4.046-3.2-5.75-3.2-.047,0-.094.002-.141.002-1.183.041-2.252.594-3.175,1.646l-.207.236c-1.182,1.337-2.764,3.128-3.188,5.061-.672-.033-1.327-.041-1.944-.029-.309.003-.618.015-.926.031-.002,0-.162.01-.164.01-.274.015-.553.037-.93.072-.313.027-.622.066-1.048.123-.248.035-.492.074-.735.116l-.085-.005-.561.099-.156.061c-.127.027-.243.048-.381.078-.283.067-.561.139-.84.215-.002,0-.16.047-.162.047-.587.166-1.161.361-1.718.582-.002,0-.166.069-.168.069-.26.105-.519.218-.832.363-.268.131-.534.265-.794.407l-.156.09c-.224.125-.443.258-.662.396-.002.002-.127.077-.129.079-.248.164-.492.332-.735.511l-.119.092c-.199.152-.394.311-.617.5l-.123.106c-.225.199-.444.398-.735.697-.184.189-.361.385-.531.585-.004.004-.155.179-.158.181-.143.176-.286.354-.423.536-1.629-.911-3.829-1.091-5.476-1.226l-.356-.029c-1.406-.121-2.569.227-3.45,1.026-.987.895-1.594,2.329-1.84,4.358-.954-2.649-4.369-5.525-5.534-6.449-.56-.443-1.052-.803-1.41-1.035-4.346-2.851-11.416-3.902-16.443-2.456-3.759,1.084-10.117,5.863-10.865,9.993-.131.735-.027,1.655.283,2.552-.156.596-.281,1.216-.371,1.837l-.037.289c0,.008-.002.016-.004.025-.897-.433-1.725-.414-2.351.076-1.062.825-.842,2.876-.697,3.718.299,1.739,1.383,4.817,3.546,5.315.334.08.655.097.967.062.114.238.233.473.358.705-.33.746-.651,1.501-.969,2.251-.729,1.71-1.481,3.476-2.308,5.086-.85,1.654-.928,5.336.58,6.408.393.278.968.457,1.732.116-.051.113-.065.242-.034.369l.034.125-8.712,2.452c-.258-.785-.844-2.171-1.913-2.816-.606-.365-1.272-.457-1.963-.265-.102.025-.2.056-.294.094-1.979-.504-3.362,1.558-3.898,2.54l-5.296-2.033.361-1.638c.061-.271-.082-.543-.336-.648l-9.065-3.737c-.176-.074-.366-.049-.512.039-.701-.371-1.712-.65-2.894-.797v-.244l.446-.061-.002-.008c.277-.021.698-.085,1.338-.255.449-.106.909-.226,1.413-.387.156-.052.308-.103.567-.196.003-.002.142-.055.146-.055.184-.068.367-.144.537-.217l.15-.06c.186-.08.366-.16.526-.237.008-.003.135-.064.141-.068.186-.09.367-.178.643-.322.185-.1.369-.201.549-.305.006-.004.011-.006.017-.01,2.095-1.219,3.922-2.899,5.311-4.875.322.112.675.159,1.068.137,2.218-.137,3.804-2.989,4.392-4.651.288-.806.858-2.788-.052-3.783-.559-.612-1.411-.754-2.415-.434.055-1.109-.002-2.224-.172-3.325.897-.848.437-2.747.387-2.927-.487-3.476-5.066-7.945-6.715-9.456,1.121-.772,2.329-.342,2.383-.324.248.095.522.007.673-.213.146-.217.124-.508-.055-.701-1.118-1.216-2.71-1.003-3.875-.513.053-1.193-.199-2.133-.756-2.804-.768-.928-1.827-.955-1.872-.955-.25-.037-.451.139-.537.359-.088.221-.027.471.149.629,1,.898,1.041,1.781.924,2.333-5.078-3.092-11.086-2.337-17.879,2.269-3.562,2.411-5.357,4.452-5.336,6.068.014.926.604,1.361.621,1.361v-.002c.012.013.026.027.04.039-.02.042-.04.083-.061.125,0,.002-.111.23-.111.232-.284.606-.532,1.238-.739,1.879l-.084.276c-.004.01-.006.019-.01.027-.809-.572-1.627-.695-2.33-.315-1.191.642-1.317,2.695-1.317,3.546,0,1.765.547,4.981,2.594,5.834.319.134.635.206.944.218,1.745,6.236,6.971,10.929,13.438,12.018.269.045.541.086.818.119l.274.027h.006v.207c-1.11.135-2.061.387-2.757.729-.113-.028-.229-.018-.342.029l-9.067,3.737c-.254.105-.397.377-.336.648l.293,1.322-6.133,2.349c-.514-.933-1.852-2.841-3.636-2.589-.076-.024-.158-.045-.252-.065-.717-.14-1.374-.002-1.95.409-1.018.72-1.503,2.139-1.704,2.942l-9.185-1.9-2.111-2.729c-.127-.16-.331-.244-.532-.213l-.889.131c-.541-.598-1.436-1.207-2.546-1.738l.311-.914c.283-.052.567-.108.854-.177.269-.065.537-.134.777-.207.082-.022.161-.047.282-.085.168-.052.338-.103.514-.161l.128-.047c.681,1.046,1.384,1.704,2.144,2.009,1.451.58,2.823.275,3.759-.827.789-.928,1.158-2.293,1.069-3.603,1.092.78,2.199,1.044,3.034.645.674-.32,1.367-1.145,1.133-3.229,1.182.311,2.091.146,2.716-.509,1.723-1.801.258-6.711-.604-8.676.754-1.364.93-3.308.844-4.625-.059-.851-.326-2.895-1.553-3.458-.766-.349-1.606-.14-2.405.551-.104-.269-.215-.537-.333-.801.182-.132.319-.307.407-.516.279-.658.033-1.545-.748-2.708-1.548-2.291-3.935-4.157-6.909-5.392-1.418-.589-2.971-1.024-4.619-1.3-.029-.009-.058-.017-.089-.023-.133-.024-.268-.041-.516-.07l-.153-.024c-.135-.019-.27-.039-.398-.053-.414-.05-.83-.085-1.253-.113l-.443-.015c-.297-.014-.592-.024-.883-.024-.159.006-.311.002-.565.008-.264.004-.527.016-.793.029-.186.01-.371.02-.555.037-.279.022-.557.051-.86.086l-.453.053c-.422.059-.836.131-1.252.215l-.397.09c-.295.066-.59.136-.871.213l-.479.136c-.268.08-.535.166-.801.261l-.442.154c-.314.119-.623.248-1.018.422l-.156.069c-.381.175-.748.365-1.109.566l-.319.191c-.254.151-.508.309-.746.471l-.366.256c-.23.17-.459.348-.762.596l-.216.181c-.313.273-.614.554-.893.853-1.386,1.474-4.336,8.802-4.152,12.59.025.506.105.945.24,1.315-.822-.085-1.477.139-1.907.678-.357.445-.475,1.123-.345,1.977-1.614.682-5.811,2.666-5.616,4.777.078.838.467,1.491,1.124,1.885,1.567.94,4.443.219,6.42-.477-.104.188-.211.384-.321.581-1.084,1.951-2.313,4.163-1.813,5.865.025.084.053.166.082.244-.193-.334-.432-.646-.728-.894-.54-.454-1.184-.646-1.907-.566-.823.091-1.206.492-1.383.812-.29.521-.274,1.209.048,2.09-.465.092-.949.22-1.387.382.221-1.001.289-2.134-.256-2.804-.25-.308-.725-.65-1.602-.53-.725.095-1.303.433-1.717,1.003-.746,1.025-.731,2.567-.657,3.379l-5.496,1.211.053-.236c.059-.268-.084-.541-.338-.644l-9.062-3.74c-.17-.068-.359-.051-.514.039-.521-.277-1.215-.502-2.02-.661.033-.01.069-.017.102-.027l.766-.24c.002,0,.138-.049.142-.051l.207-.072c.135-.049.27-.1.393-.151l2.608-1.289c.548-.33,1.087-.703,1.71-1.188.154-.123.303-.246.453-.375l.11-.094c.133-.111.26-.227.437-.391.006-.006.12-.111.125-.117l.411-.404c.004-.002.103-.108.107-.11.137-.144.276-.291.477-.515,1.762-1.982,3.032-4.354,3.695-6.89.338-.004.687-.084,1.045-.24,2.03-.891,2.522-4.114,2.491-5.881-.016-.853-.184-2.907-1.381-3.52-.741-.381-1.591-.225-2.417.427-.34-1.066-.784-2.093-1.329-3.065.541-1.106-.557-2.726-.668-2.876-1.71-3.157-7.692-5.781-9.615-6.557.778-1.105,2.058-1.12,2.114-1.12h.008c.26,0,.489-.177.551-.432.063-.255-.058-.521-.293-.64-1.477-.75-2.892-.002-3.814.856-.371-1.139-.939-1.934-1.696-2.37-1.039-.601-2.041-.264-2.086-.25-.223.078-.375.287-.379.524-.006.236.137.451.357.539,1.251.494,1.604,1.304,1.688,1.864-5.849-1.148-11.214,1.633-15.964,8.281-2.489,3.483-3.456,6.013-2.876,7.523.352.914,1.114,1.08,1.067,1.07.016.007.031.014.047.019-.008.065-.014.135-.022.21l-.013.184c-.053.668-.065,1.348-.028,2.125l.01.186c0,.005.002.011.002.017-.958-.26-1.77-.088-2.294.51-.892,1.009-.291,2.981.01,3.783.619,1.652,2.258,4.474,4.474,4.571.358.016.674-.023.967-.121,2.691,3.693,6.702,6.092,11.155,6.753-.108.043-.212.09-.307.137-.116-.025-.231-.018-.344.029l-9.066,3.74c-.254.103-.396.376-.336.646l.291,1.312-9.45,3.62c-.393-.715-1.243-2.011-2.442-2.454-.661-.243-1.329-.209-1.983.111-.813.392-1.016.957-1.044,1.362-.058.858.657,1.764,1.35,2.432-.177.043-.365.094-.562.156-.26.082-2.544.823-2.912,1.808-.449,1.214.081,1.803.438,2.048.461.318,1.145.39,1.852.304-.51.662-.787,1.28-.631,1.856.092.333.371.774,1.188.977.856.213,1.632.115,2.292-.301.055-.035.109-.07.16-.107.006.709.147,1.305.535,1.67.229.213.638.434,1.28.277,1.729-.42,1.851-4.409,1.817-6.164l9.052-3.372.406,1.818c.036.16.137.296.282.375.144.078.316.091.467.033l3.452-1.269-2.561,12.573c-.053.26.08.52.32.629.326.149.658.287.975.411l-5.135,16.197c-.083.269.042.56.296.683.636.307,1.389.629,2.241.965l-.774,3.159c-.551.241-1.034.686-1.434,1.056-.223.205-.451.418-.598.5l-.235.127c-.685.375-1.627.885-1.961,1.713-.707,1.747.047,3.42,1.965,4.367.183.09.381.156.575.229H13.4406c-.314,0-.568.254-.568.566s.254.566.568.566h303.451c.313,0,.566-.254.566-.566,0-.115-.063-.206-.122-.296l.018-.015c-.008-.015-.038-.052-.057-.079-.004-.004-.005-.008-.009-.012-.153-.205-.536-.633-.574-.762-.205-.695-.408-3.298-.221-3.7.041-.052.09-.083.164-.107.235-.071.395-.285.399-.531l.07-3.915c.004-.158-.06-.312-.175-.422-.116-.107-.268-.152-.432-.154-1.454.105-2.703.164-3.406.191l.911-18.426c.007-.155-.036-.305-.143-.418-.108-.112-.242-.174-.396-.174-.29-.045-.569.16-.628.452l-3.595,18.101c-.654-.189-1.795-.528-3.122-.952-.15-.052-.316-.033-.453.047-.139.078-.236.21-.274.363l-.865,3.723c-.064.279.09.563.357.662.161.059.207.119.223.145.1.474-.731,2.952-1.096,3.579-.949,1.614-3.483,1.759-5.26.888-.65-.322-2.094-1.25-1.416-2.924.182-.451.916-.85,1.453-1.141l.247-.137c.264-.148.529-.394.812-.654.407-.375.868-.801,1.284-.908.203-.051.36-.211.41-.414l.966-3.942c.068-.277-.082-.562-.35-.664-.815-.312-1.545-.613-2.175-.9l5.147-16.234c.089-.288-.182-.639-.463-.747-.295-.111-.588-.226-.876-.348l2.673-13.119c.041-.202-.029-.41-.186-.543-.156-.135-.377-.174-.564-.102l-3.798,1.395-.407-1.819c-.035-.16-.138-.297-.281-.375-.143-.076-.317-.088-.469-.033l-10.042,3.739c-.231.086-.379.309-.37.553.098,2.698-.349,5.289-.937,5.432-.055.011-.19.043-.239-.002-.258-.244-.236-1.239.064-2.958l.042-.233c.052-.304-.149-.593-.452-.652-.316-.07-.598.137-.662.438-.123.582-.469,1.333-1.063,1.707-.396.249-.862.301-1.418.16-.284-.071-.362-.157-.368-.176-.119-.436,1.276-1.811,1.733-2.262l.282-.278c.215-.217.221-.567.009-.789-.213-.229-.562-.238-.789-.035-.59.523-2.37.934-2.911.568-.147-.102-.152-.342-.02-.701.317-.557,3.128-1.604,3.648-1.363.043.029.088.052.135.068.244.084.51,0,.657-.217.175-.259.109-.607-.147-.786,0,0-.002,0-.002-.002-.873-.603-2.141-1.793-2.092-2.433.003-.056.017-.228.404-.416.375-.177.734-.201,1.096-.066.996.366,1.811,1.806,2.042,2.329.123.279.443.41.722.303l10.387-3.98c.262-.099.412-.379.35-.652l-.296-1.323,8.29-3.419c.018.006.034.01.051.015.147.032.305.012.438-.07.639-.4,1.78-.697,3.13-.814.293-.026.518-.27.518-.565v-.309c0-.155-.061-.301-.172-.407-.11-.107-.251-.148-.412-.16-5.37.139-10.445-2.387-13.493-6.824-.172-.25-.506-.318-.766-.162-.217.135-.489.205-.809.18-1.501-.067-2.921-2.388-3.464-3.837-.522-1.394-.483-2.341-.223-2.634.451-.508,1.432-.098,1.833.103.189.088.398-.011.568-.13.17-.118.256-.409.235-.614-.026-.237-.047-.473-.061-.698l-.017-.283c-.028-.623-.018-1.256.033-1.895l.019-.222c.02-.206.043-.41.071-.611.019-.158-.082-.322-.184-.443-.071-.085-.191-.138-.311-.172v-.002l-.364-.1h-.003v-.001c-.027-.008-.267-.09-.391-.446-.179-.521-.271-2.19,2.751-6.42,4.705-6.589,9.761-9.112,15.464-7.686.153.033.313.011.442-.072.131-.083.221-.217.252-.368.02-.105.035-.226.041-.357.043.166.082.342.117.523.043.225.217.403.44.45.16.033.324-.002.451-.098-.002.08.012.158.049.232.074.149.188.252.348.293,2.702,1.023,8.188,3.649,9.64,6.324.418.593.834,1.582.564,1.841-.187.184-.226.471-.093.698.736,1.247,1.293,2.594,1.655,4.009.052.205.212.364.419.412.206.047.421-.023.559-.183.244-.285,1.09-1.185,1.755-.853.348.181.736,1.05.766,2.535.025,1.543-.444,4.218-1.813,4.82-.323.139-.618.181-.884.113-.15-.039-.304-.016-.435.065-.131.08-.225.209-.258.359-.579,2.534-1.807,4.912-3.615,6.945-.127.141-.258.281-.478.511l-.555.535c-.112.104-.225.207-.344.307-.004.002-.123.103-.125.105-.139.121-.28.237-.512.418-.485.379-.987.727-1.606,1.105l-.867.478c-.004,0-.129.065-.133.065l-2.853,1.065-.004-.019-.694.231-.003.003c-.169.038-.337.075-.508.108-.268.049-.463.284-.463.557v.616c0,.295.225.539.518.565,1.441.125,2.696.474,3.274.912.213.16.504.148.707-.02l8.228,3.396-.141.638c-.041.189.018.386.154.523.137.137.342.191.522.154l6.868-1.513c.298-.066.49-.355.437-.656-.101-.562-.23-2.206.389-3.055.228-.311.537-.489.949-.543.422-.051.536.076.573.121.305.375.183,1.593-.295,2.966-.066.187.033.384.158.539.127.154.385.214.582.187.108-.016.208-.062.29-.133.392-.342,1.586-.72,2.661-.843.181-.02.343-.129.431-.29.09-.162.094-.356.014-.522-.58-1.195-.434-1.633-.375-1.74.068-.123.24-.201.512-.231.42-.052.758.053,1.055.303.811.68,1.086,2.306,1.123,2.876.012.156.084.301.205.398.12.102.274.153.43.127l6.379-.775c.186-.021.348-.135.434-.299.086-.166.086-.363,0-.527-.328-.624-.363-1.704-.09-2.819.071-.291-.095-.587-.383-.675-.275-.09-.594.06-.697.34-.455,1.196-1.929,2.208-3.195,2.208-.029,0-.058-.002-.089-.002-.835-.034-1.39-.5-1.65-1.389-.367-1.247.788-3.323,1.714-4.994.4-.721.779-1.402,1.012-1.97.086-.213.037-.455-.127-.617-.16-.162-.406-.209-.617-.121-2.333.976-5.498,1.837-6.776,1.08-.348-.209-.532-.533-.576-1.018-.09-.968,2.688-2.745,5.341-3.796.262-.103.409-.384.342-.658-.195-.821-.111-1.305.033-1.485.42-.528,1.425-.168,1.837.015.199.086.404-.035.568-.164.165-.13.233-.429.196-.636l-.031-.176c-.02-.133-.087-.254-.188-.342-.272-.239-.432-.741-.467-1.454-.174-3.583,2.765-10.607,3.847-11.76.256-.273.529-.527.811-.775l.277-.227c.203-.168.413-.33.616-.48l.34-.237c.224-.155.455-.297.793-.499l.193-.117c.332-.185.676-.363,1.03-.527l-.238-.514.468.416c.286-.125.575-.246.858-.355l.426-.151c.246-.084.495-.166.87-.275l.33-.094c.268-.074.543-.14.82-.202l.379-.085c.389-.078.784-.146,1.181-.202l.449-.055c.265-.028.531-.057.801-.079.178-.014.351-.024.523-.034.253-.014.501-.025.86-.031.118-.002.236-.005.358-.005.299-.005.604.007.912.022l.428.016c.395.024.791.06,1.19.108.121.012.242.03.361.049l.291.039c.079.01.157.02.235.032.031.008.064.019.099.025,1.605.258,3.113.678,4.484,1.244,2.767,1.15,4.981,2.872,6.401,4.979.797,1.185.664,1.591.645,1.632-.028.069-.135.1-.221.116-.176.033-.324.144-.404.302-.081.16-.083.347-.005.505.325.664.606,1.364.837,2.076.064.2.232.348.439.385.206.032.417-.045.548-.209.296-.383,1.066-1.234,1.711-.935.358.164.789,1.017.891,2.503.09,1.328-.133,3.143-.827,4.202-.109.166-.123.378-.037.557.942,1.955,2.124,6.442.936,7.68-.424.443-1.227.412-2.385-.08-.194-.082-.419-.053-.583.084-.164.133-.238.348-.195.555.33,1.579.199,2.678-.351,2.938-.622.298-2-.309-3.228-1.832-.149-.187-.397-.256-.631-.18-.051.018-.098.043-.141.075-.027.019-.053.041-.076.064-.184.184-.219.469-.086.691.774,1.291.627,3.32-.319,4.432-.623.729-1.481.904-2.475.508-.61-.245-1.211-.878-1.837-1.935-.142-.236-.427-.341-.695-.238l-.526.19c-.154.05-.312.101-.541.169l-.193.059c-.241.07-.489.137-.735.195-.371.088-.741.159-1.114.217-.207.035-.379.18-.445.379l-.582,1.722c-.094.279.041.584.312.701,1.308.566,2.347,1.261,2.779,1.856.125.168.326.26.543.227l.875-.129,2.038,2.634c.084.105.201.179.334.207l9.945,2.054c.158.034.312,0,.439-.088.127-.089.213-.228.237-.382.086-.565.496-2.162,1.361-2.773.319-.224.672-.293,1.065-.22.086.017.162.041.233.068.101.039.215.047.314.023,1.52-.318,2.761,2.365,2.773,2.392.123.275.443.408.722.301l7.069-2.708c.262-.1.413-.379.35-.653l-.297-1.334,8.294-3.417c.015.003.031.009.049.014.15.038.304.009.435-.071.631-.393,1.802-.697,3.13-.813.293-.025.518-.269.518-.564v-1.234c0-.3-.234-.546-.532-.568-.164-.01-.326-.027-.488-.045l-.265-.025c-.257-.031-.508-.069-.761-.11-6.177-1.041-11.142-5.607-12.644-11.634-.074-.295-.368-.481-.663-.42-.252.054-.529.013-.822-.11-1.383-.576-1.899-3.241-1.899-4.787,0-1.482.375-2.359.723-2.547.597-.322,1.377.401,1.684.727.14.148.377.127.574.074.201-.051.379-.293.432-.492.061-.232.125-.459.197-.698l.076-.248c.194-.598.425-1.186.688-1.748l-.026-.013.084-.21.05.002c.087-.184.179-.369.275-.547.072-.136.07-.301.026-.446-.047-.147-.167-.276-.303-.344l-.016.031c-.015-.013-.014-.041-.032-.05-.114-.068-.24-.216-.364-.386-.038-.085-.078-.176-.075-.325.012-.549.508-2.146,4.838-5.079,6.73-4.561,12.355-5.176,17.199-1.884.125.086.283.115.435.086.153-.034.284-.125.366-.256.058-.097.115-.205.168-.33-.018.17-.043.348-.074.533-.04.225.062.451.254.574.142.092.316.113.473.063-.024.07-.034.146-.03.222.008.155.084.307.201.408.258.223,6.298,5.538,6.819,9.244.184.701.227,1.772-.121,1.924-.238.106-.375.362-.33.618.252,1.43.301,2.887.142,4.33-.021.209.075.416.25.533.176.115.403.123.59.023.423-.234,1.458-.724,1.944-.197.264.287.321,1.236-.179,2.638-.516,1.457-1.893,3.805-3.392,3.897-.342.014-.647-.047-.871-.199-.128-.086-.288-.109-.43-.088-.15.029-.282.117-.366.244-1.313,2-3.106,3.696-5.18,4.911l-.004-.002s-1.387.661-2.081.991c-.087.042-.214.104-.369.181-.005.002-.008.003-.013.005l-.195.071-.52.177c-.6.194-1.211.35-1.916.487-.104.019-.21.037-.43.072-.006,0-.278.045-.284.045l-.398.047c-.004,0-.141.016-.143.016l-.195.021c-.295.023-.52.269-.52.564v1.263c0,.293.225.539.518.564,1.448.127,2.702.477,3.272.911.217.165.508.15.71-.018l8.231,3.394-.365,1.653c-.063.275.088.553.349.652l6.233,2.39c.279.107.601-.024.723-.303.013-.027,1.323-2.903,2.958-2.338.148.052.314.04.455-.036.08-.043.168-.076.27-.103.404-.108.756-.061,1.088.139.906.546,1.432,2.113,1.559,2.67.033.15.129.283.264.361.133.079.295.102.443.059l9.787-2.754c.297-.083.473-.39.394-.688l-.037-.149c.203-.099.33-.314.317-.545-.035-.552.004-1.095.037-1.458.022-.24-.111-.467-.33-.566-.223-.104-.479-.053-.645.125-.42.439-1.188,1.127-1.651.806-.836-.595-.971-3.52-.228-4.967.845-1.646,1.608-3.431,2.342-5.16.354-.83.709-1.664,1.075-2.49.072-.162.064-.349-.022-.506-.234-.421-.449-.855-.647-1.296-.123-.278-.443-.405-.72-.299-.237.092-.512.099-.827.025-1.463-.339-2.424-2.88-2.686-4.402-.253-1.466-.034-2.392.275-2.632.539-.416,1.426.166,1.786.437.162.12.393.063.582-.025.19-.084.326-.353.342-.56.02-.235.045-.469.086-.793l.022-.18c.091-.625.218-1.245.388-1.872.033-.117.03-.244-.015-.358-.286-.752-.393-1.546-.29-2.122.643-3.549,6.637-8.117,10.06-9.104,4.75-1.371,11.412-.373,15.511,2.315.337.221.798.557,1.327.975,2.474,1.964,5.359,4.937,5.352,6.862-.002.504-.2.893-.624,1.223-.111.086-.228.144-.363.181-.291.082-.469.377-.401.674.256,1.115.387,2.261.391,3.407,0,.212.121.408.313.505.191.092.42.073.592-.052.564-.419,1.098-.612,1.467-.543.17.031.356-.016.486-.135.133-.118.204-.292.188-.47-.119-1.426-.17-2.804-.154-4.091.035-2.774.556-4.58,1.592-5.519.647-.588,1.493-.822,2.593-.736l.359.029c1.684.138,3.99.328,5.393,1.322.127.09.279.125.431.094.151-.028.284-.115.37-.242l.158-.231c.166-.228.34-.449.518-.664l-.017-.014c.046-.052.083-.097.134-.156l.021.008c.159-.184.321-.359.559-.611.194-.194.393-.377.598-.558l-.007-.008c.044-.038.093-.076.138-.115l.008.004c.176-.149.351-.295.537-.434l.121-.093c.215-.161.44-.317.785-.536.2-.127.399-.248.604-.361l-.004-.008c.048-.027.1-.051.149-.078l.002.002c.246-.135.492-.262.795-.402.052-.026.107-.047.16-.071.365-.157.74-.308,1.142-.431,4.096-1.255,7.465-1.223,7.465-1.223l-.002-.006c.571.002,1.153.017,1.785.056.325.021.571-.207.6-.51.178-1.771,1.805-3.614,2.995-4.961l.209-.238c.718-.816,1.491-1.229,2.363-1.258,1.394-.07,3.059.889,5.05,2.866,2.858,2.843,5.525,6.342,7.928,10.398.77,1.298,1.071,3.091.798,3.315.001.002-.291.104-1.214-.535-.199-.137-.459-.137-.654.008-.196.141-.28.389-.213.62.07.236.15.486.236.748.395,1.225.887,2.751.444,3.821-.266.639-.749.838-1.761.748-.318-.031-.605-.111-.879-.25-.219-.107-.484-.07-.656.106-.069.066-.139.129-.219.185-.266.19-.534.286-.793.286-.311,0-.563.248-.567.557-.022,1.35-.243,2.693-.617,3.996l-.002-.001s-1.123,3.203-2.411,4.888c-1.288,1.685-2.742,2.874-2.742,2.874l.002.032-2.024,1.422c-.125.072-.248.143-.371.209l-.281.152c-.147.075-.295.147-.457.221l-.231.113c-.229.106-.467.206-.699.304-.774.309-1.583.561-2.409.748-.258.059-.442.287-.442.553v2.188c0,.295.225.539.518.565.856.074,1.637.224,2.26.432.161.052.334.037.477-.055l.244-.149,2.652,1.483c-.076.127-.149.261-.219.405-.113.233-.055.514.144.682.194.166.483.176.696.027l10.736-7.665c.127-.092.211-.23.2321-.387.02-.156-.025-.314-.125-.435-.3651-.442-1.281-1.82-1.15-2.864.047-.377.23-.678.558-.92.221-.161.405-.227.546-.172.122.041.552.279.957,1.636.051.172.181.311.3521.372.171.066.357.039.508-.063.068-.047.1949-.115.388-.174,0,0,.104-.017.4109.082.199.069.427.012.578-.14.858-.866,1.821-1.452,2.067-1.459.168.021.569.091.631.289.1.306-.262,1.07-1.016,1.771-.119.112-.184.268-.179.43.0031.163.076.315.201.421.101.086.195.174.283.258.146.138.354.189.553.132.162-.046.326-.088.49-.125.243-.058.418-.267.436-.515.092-1.425.422-2.103.701-2.261.0471-.031.2-.113.575.076.367.186.598.451.707.817.303,1.005-.367,2.518-.653,3.016-.152.266-.066.604.196.764l6.306,3.879c.194.121.44.111.626-.02.141-.099.225-.256.238-.422l8.315-3.427c.016.005.034.009.051.013.149.037.303.01.434-.07.627-.393,1.798-.697,3.13-.814.291-.026.516-.272.516-.565v-.476c0-.155-.063-.301-.172-.409-.112-.106-.256-.157-.414-.158-4.9.156-9.664-1.972-12.762-5.735-.19-.231-.532-.275-.776-.093-.201.148-.467.232-.79.248-.021,0-.042.002-.064.002-1.483,0-3.067-2.151-3.726-3.531-.6429-1.34-.685-2.289-.455-2.602.405-.546,1.421-.221,1.837-.055.189.073.396-.047.558-.18.159-.133.2191-.432.178-.635-.049-.234-.09-.467-.125-.699l-.037-.27c-.006-.043-.004-.09-.01-.132.001-.315.011-2.841.165-4.76.06-.735.239-1.457.444-2.086l.108-.296c.202-.54.422-1.059.657-1.56.029-.057.046-.088.046-.088l-.014.011c1.739-3.679,4.361-6.263,7.814-7.694,2.429-1.004,4.883-1.477,7.077-1.373.32.015.644.033.967.054v-.006l.23.021.002.007c.231.016.46.035.766.07.024.006.049.01.074.014.579.072,1.038.16,1.444.279,2.394.703,4.133,1.414,5.315,2.173.334.217.65.775.717,1.274.019.136.086.261.191.351,2.04,1.771,3.589,4.042,4.48,6.574.071.2.246.345.455.374.196.03.419-.056.541-.228.282-.392,1.001-1.282,1.675-.997.363.148.824.981.981,2.46.164,1.534-.069,4.237-1.382,4.955-.306.166-.6.224-.867.187-.153-.029-.309.012-.43.102-.123.092-.205.228-.227.379-.326,2.372-1.221,4.678-2.589,6.672-.111.166-.226.326-.406.564-.113.152-.23.301-.428.544-.115.141-.238.281-.457.527-.121.135-.244.27-.467.495-.131.132-.265.265-.467.455-.463.431-.951.836-1.516,1.253l-.619.419c-.106.071-.217.139-.418.262l-.541.313c-.104.058-.206.113-.315.17l-.998.48c-.128.059-.258.109-.393.164l-.295.119c-.151.059-.303.112-.457.164-.002.002-.252.09-.256.09-.242.08-.487.156-.737.225-.363.101-.733.185-1.098.258-.266.055-.455.288-.455.557v.797c0,.293.225.539.518.565,1.444.126,2.7.476,3.276.914.215.161.508.147.705-.018l8.23,3.393-.582,2.618c-.053.228.044.467.24.595l8.729,5.764c.25.166.592.106.77-.137.34-.463,1.45-1.696,2.511-1.84.379-.061.728.045,1.051.3.334.264.3101.432.303.489-.076.57-1.34,1.401-2.554,1.924-.01.002-.019.006-.029.01v.002c-.014.006-.026.012-.039.016-.272.137-.397.467-.27.744.129.277.442.412.725.293.551-.1,3.085,1.493,3.27,2.089.083.595-.1089.672-.171.697-.61.246-2.257-.541-2.716-1.178-.176-.248-.526-.304-.776-.138-.254.172-.326.513-.164.773l.223.346c.3441.537,1.395,2.169,1.186,2.567-.016.028-.133.088-.401.096-.572-.004-1.016-.137-1.348-.465-.498-.49-.668-1.295-.662-1.888.004-.308-.24-.562-.549-.572-.27.008-.569.229-.584.537l-.012.246c-.084,1.738-.281,2.708-.586,2.89-.061.027-.182-.024-.233-.049-.543-.266-.41-2.886.278-5.5.062-.236-.035-.488-.241-.621l-7.819-5.056c-.158-.102-.349-.118-.523-.049-.172.07-.297.221-.338.401l-.08.351-3.799-1.397c-.189-.072-.41-.033-.564.102-.156.132-.227.341-.186.543l2.687,13.188c-.213.088-.426.172-.643.256-.156.058-.277.183-.332.34-.057.156-.041.328.041.472l5.822,10.106c-.481.174-.981.361-1.49.562-.157.061-.278.188-.331.348-.055.158-.033.334.055.477l2.844,4.632c.159.258.493.346.761.198l.076-.041,1.67,2.702c.155.314.393.353,1.282.506.75.129,2.513.429,2.86.845,1.159,1.39.073,2.706-.447,3.207-1.421,1.37-3.884,1.993-5.283.739-.19-.18-.877-1.316-1.428-2.228l-.471-.775c-.7-1.142-1.444-2.288-1.86-2.925.103-.076.18-.189.215-.314.039-.147.016-.306-.063-.437l-3.054-5.103c-.146-.244-.457-.342-.711-.23-1.418.613-2.624,1.156-3.267,1.451l-5.677-11.369c-.109-.219-.336-.34-.592-.307-.242.035-.434.225-.475.465l-1.836,10.805c-.729-.119-2.107-.35-3.683-.66-.282-.061-.538.091-.637.345l-5.455,13.649c-.0569.144-.053.305.011.446.04.086.098.16.172.217-.295.693-.828,1.967-1.316,3.227l-.317.827c-.383,1.004-.862,2.253-1.014,2.464-.094.192-.139.307-.174.407-.108.103-.177.245-.177.405,0,.312.254.566.566.566h97.172c.313,0,.567-.254.567-.566" style="fill:#034ea2;"/><path d="M510.4497,108.0874l-.192-2.191c-.034-.38-.195-.737-.454-1.005-.235-.24-.408-.518-.515-.826-.203-.583-.148-1.196.164-1.827,1.058.653,2.025,1.069,2.877,1.238.82.165,1.563.106,2.209-.175.441-.192.829-.492,1.25-.818.728-.565,1.481-1.148,2.603-1.156.114.037.443.182.709.299l.06.026c1.243.552,3.324,1.476,5.222,1.657.077.007.108.058.12.093.008.021.023.075-.027.13-1.1281,1.217-3.533,3.304-6.968,3.604-.417.038-.845.046-1.28.027-.505-.014-1.026.189-1.398.576-.015.014-.023.019-.037.02l-4.325.363c-.01-.009-.017-.022-.018-.035M525.5587,102.9964c-.1721-.456-.582-.767-1.0681-.813-1.712-.164-3.689-1.04-4.87-1.564-.779-.345-.989-.42-1.21-.424-1.518,0-2.513.771-3.316,1.394-.356.276-.692.537-1.009.674-1.033.448-2.548.019-4.506-1.287l-.466-.31-.314.46c-.95,1.381-.84,2.563-.58,3.312.161.464.422.883.772,1.241.078.082.128.195.139.317l.191,2.191c.027.314.176.599.418.803.215.179.481.276.756.276.036,0,.071-.002.107-.005l4.291-.376c.283-.024.547-.15.745-.356.152-.157.342-.261.54-.234,4.528.199,7.667-2.419,9.127-3.995.328-.353.425-.852.2531-1.304" style="fill:#034ea2;"/><path d="M510.4493,108.0875l-.192-2.191c-.034-.38-.194-.737-.454-1.005-.235-.24-.408-.518-.514-.826-.204-.583-.149-1.197.163-1.827,1.059.652,2.026,1.069,2.877,1.238.821.165,1.563.106,2.209-.175.442-.193.829-.492,1.25-.818.728-.565,1.481-1.148,2.603-1.156.115.037.443.182.709.299l.06.026c1.244.552,3.324,1.476,5.223,1.657.077.007.107.058.119.093.009.021.023.075-.027.13-1.128,1.217-3.533,3.304-6.968,3.604-.416.038-.844.046-1.279.027-.506-.014-1.027.189-1.399.576-.014.014-.023.019-.036.02l-4.325.363c-.011-.009-.018-.022-.019-.035" style="fill:#fdb913;"/><path d="M501.1304,105.6917c-.084.329-.239.635-.46.907-.243.295-.377.676-.377,1.071v2.283c0,.036-.032.068-.068.068h-4.469c-.022,0-.035-.008-.044-.016-.361-.314-.81-.484-1.259-.484-.077,0-.154.005-.231.015-.444.058-.891.088-1.329.088-3.584,0-6.263-1.944-7.541-3.103-.03-.025-.065-.069-.044-.149.012-.044-.523-2.052-.441-2.066,1.934-.357,4.57.454,5.814-.232l.05-.028c.27-.149.603-.333.72-.38,1.161-.104,1.998.441,2.811.964.455.293.885.57,1.36.729.689.231,1.46.223,2.291-.02.866-.251,1.832-.772,2.872-1.547.389.631.505,1.27.345,1.9" style="fill:#fdb913;"/><path d="M501.1303,105.6916c-.084.329-.239.635-.46.907-.243.295-.377.676-.377,1.071v2.283c0,.036-.032.068-.068.068h-4.469c-.021,0-.035-.008-.044-.015-.361-.315-.809-.485-1.259-.485-.077,0-.154.005-.231.015-.443.058-.891.088-1.329.088-3.584,0-6.483-3.357-7.761-4.516-.03-.025-.065-.069-.044-.149.012-.044.046-.1.128-.115,1.934-.356,4.221-.083,5.465-.77l.05-.027c.27-.15.603-.333.72-.381,1.162-.104,1.998.441,2.811.965.455.293.885.569,1.36.728.689.232,1.46.223,2.291-.019.867-.252,1.832-.773,2.872-1.548.389.632.505,1.27.345,1.9M501.3443,102.6146l-.359-.435-.441.353c-1.91,1.531-3.447,2.114-4.558,1.741-.338-.113-.708-.35-1.112-.61-.888-.571-1.996-1.284-3.577-1.133-.219.022-.455.147-1.175.546-1.174.647-3.36.319-5.113.643-.494.091-.885.446-1.021.926-.136.477.009.979.376,1.311,1.65,1.496,5.329,5.326,10.006,4.714.205-.03.416.045.592.198.22.191.502.297.794.297h4.469c.669,0,1.213-.544,1.213-1.213v-2.283c0-.131.042-.254.118-.348.329-.403.558-.857.682-1.348.202-.793.21-2.019-.894-3.359" style="fill:#034ea2;"/></g></g></g></svg>